<svg width="284" height="315" viewBox="0 0 284 315" fill="none" xmlns="http://www.w3.org/2000/svg">
<path d="M164.55 274.68C164.55 274.68 156.03 289.737 159.494 290.43C162.959 291.123 188.235 292.509 188.235 286.587C188.235 280.665 180.965 276.444 180.965 276.444L164.55 274.68Z" fill="#000005"/>
<path d="M170.854 291.438C167.049 291.501 163.243 291.249 159.438 290.745C159.04 290.682 158.699 290.367 158.529 289.989C157.336 286.965 163.584 275.814 164.322 274.491L164.436 274.302L181.135 276.129C181.419 276.318 188.576 280.476 188.576 286.587C188.576 287.343 188.235 288.036 187.667 288.477C185.168 290.745 177.557 291.438 170.854 291.438ZM164.663 274.995C162.675 278.46 158.131 287.469 159.04 289.737C159.097 289.989 159.324 290.115 159.551 290.178C163.13 290.871 183.18 291.816 187.27 288.036C187.667 287.721 187.951 287.217 187.951 286.65C187.951 281.169 181.476 277.137 180.851 276.822L164.663 274.995Z" fill="#000005"/>
<path d="M153.076 272.664C153.076 272.664 153.928 291.501 153.417 291.501C152.906 291.501 145.351 291.249 145.351 291.249V283.752L141.659 292.005L116.497 290.493C116.497 290.493 115.702 287.784 121.325 284.76C126.948 281.736 136.093 277.515 136.093 277.515L136.32 266.301L153.076 272.664Z" fill="#000005"/>
<path d="M151.826 272.286C151.997 275.94 152.11 279.594 152.224 283.248C152.281 285.39 152.338 287.469 152.281 289.611C152.281 289.926 152.281 290.241 152.224 290.493C152.224 290.619 152.224 290.682 152.224 290.808C152.281 290.304 152.281 290.619 152.224 290.745C152.394 290.43 152.735 290.052 153.076 290.115H152.962C152.849 290.115 152.678 290.115 152.565 290.115L151.145 290.052L145.067 289.863L146.658 291.564V284.067C146.658 282.744 144.726 281.547 144.102 282.996L140.41 291.249L141.318 290.619L132.855 290.115L119.337 289.296L116.213 289.107L117.803 290.493V290.367C117.86 290.745 117.86 290.556 117.803 290.304C117.803 290.178 117.86 290.115 117.86 289.989C117.86 289.863 117.917 289.8 117.974 289.674L118.03 289.485C118.144 289.17 117.917 289.674 118.087 289.359C119.166 287.532 120.984 286.524 122.688 285.579C126.494 283.563 130.356 281.736 134.218 279.909C135.184 279.468 136.093 279.027 137.058 278.586C137.286 278.397 137.456 278.082 137.456 277.767L137.683 266.553L136.377 267.498L151.031 273.105L153.076 273.861C153.587 274.05 154.098 273.798 154.326 273.294C154.382 273.168 154.382 273.105 154.382 272.979C154.326 272.16 153.814 271.53 153.076 271.341L138.422 265.734L136.377 264.978C135.866 264.789 135.354 265.041 135.127 265.608C135.07 265.734 135.07 265.797 135.07 265.923L134.843 277.137L135.241 276.318C132.458 277.578 129.731 278.901 127.005 280.224C124.903 281.232 122.858 282.303 120.814 283.374C118.996 284.319 116.951 285.579 115.872 287.532C115.304 288.351 115.134 289.422 115.304 290.43C115.531 291.186 116.156 291.753 116.894 291.816L125.358 292.32L138.876 293.139L142 293.328C142.398 293.391 142.795 293.139 142.909 292.698L146.601 284.445L144.045 283.374V290.871C144.102 291.816 144.783 292.572 145.635 292.572L151.145 292.761C151.997 292.761 152.792 292.824 153.644 292.824C154.553 292.824 154.723 292.131 154.78 291.312C154.894 289.422 154.894 287.469 154.78 285.579C154.723 282.996 154.61 280.35 154.553 277.767C154.496 276.192 154.439 274.68 154.382 273.105C154.326 272.286 153.814 271.656 153.076 271.467C152.565 271.215 151.77 271.467 151.826 272.286Z" fill="#000005"/>
<path d="M153.758 278.082L131.435 279.09C131.435 279.09 122.745 175.266 130.867 155.61L170.968 155.106L187.44 277.326L153.758 278.082Z" fill="#000005"/>
<path d="M153.985 276.759L134.389 277.641L131.662 277.767L132.798 278.712C132.514 275.247 132.23 271.719 132.003 268.254C131.378 259.623 130.81 251.055 130.356 242.424C129.731 231.588 129.277 220.689 128.993 209.853C128.709 199.395 128.595 188.937 129.05 178.479C129.334 171.549 129.674 163.989 131.662 157.185C131.776 156.87 131.549 157.437 131.719 157.059L131.833 156.681C131.946 156.429 132.003 156.177 132.117 155.925L130.64 156.933L144.272 156.744L165.799 156.492L170.741 156.429L169.605 155.484L170.059 158.76L171.252 167.643L173.013 180.81L175.171 196.875L177.557 214.452L179.942 232.218L182.158 248.787L184.032 262.773L185.395 272.853C185.622 274.428 185.736 276.066 186.02 277.641C186.02 277.704 186.02 277.767 186.02 277.83L187.61 276.192L176.194 276.444L158.074 276.822L153.985 276.759C153.246 276.759 152.622 277.326 152.394 278.082C152.338 278.712 152.678 279.279 153.246 279.342C153.36 279.342 153.417 279.342 153.53 279.342L164.947 279.09L183.066 278.712L187.27 278.649C187.951 278.649 188.974 277.956 188.86 277.011L188.406 273.735L187.213 264.852L185.452 251.685L183.294 235.62L180.908 218.043L178.522 200.277L176.307 183.708L174.433 169.722L173.07 159.642C172.842 158.067 172.672 156.429 172.445 154.854C172.445 154.791 172.445 154.728 172.445 154.665C172.331 154.098 171.82 153.657 171.309 153.72L157.677 153.909L136.15 154.161L131.208 154.224C130.583 154.224 130.015 154.602 129.731 155.232C128.709 157.878 128.027 160.713 127.686 163.548C127.118 167.454 126.778 171.36 126.607 175.266C126.039 185.472 126.096 195.741 126.266 206.01C126.494 217.035 126.948 228.123 127.516 239.148C127.97 248.22 128.538 257.292 129.22 266.364C129.447 269.262 129.618 272.16 129.845 275.058C129.958 276.444 130.015 277.83 130.186 279.153C130.186 279.216 130.186 279.279 130.186 279.342C130.299 279.909 130.754 280.35 131.322 280.287L150.918 279.405L153.644 279.279C154.382 279.279 155.007 278.712 155.234 277.956C155.291 277.326 154.95 276.822 154.382 276.696C154.155 276.759 154.042 276.759 153.985 276.759Z" fill="#000005"/>
<path d="M158.358 278.523C158.358 277.578 158.245 276.57 158.131 275.625C157.904 273.546 157.734 271.404 157.506 269.262C156.825 262.773 156.143 256.284 155.405 249.795C154.553 242.046 153.701 234.297 152.849 226.548C152.11 219.807 151.372 213.066 150.634 206.325C150.236 202.734 149.782 199.08 149.554 195.489C149.554 195.363 149.554 195.237 149.554 195.111C149.554 194.166 146.942 195.237 146.942 196.119C146.942 197.001 147.055 198.072 147.169 199.017C147.396 201.159 147.566 203.238 147.794 205.38C148.475 211.869 149.157 218.358 149.895 224.847C150.747 232.596 151.599 240.345 152.451 248.094C153.19 254.835 153.928 261.576 154.61 268.317C155.007 271.908 155.462 275.562 155.689 279.153C155.689 279.279 155.689 279.405 155.689 279.531C155.802 280.539 158.358 279.468 158.358 278.523Z" fill="white"/>
<path d="M85.5976 132.741L85.7112 128.709C85.7112 128.709 75.828 121.464 73.3856 112.392C73.3856 112.392 69.0688 109.872 70.0912 107.352C71.1136 104.832 73.4424 106.218 73.4424 106.218C73.4424 106.218 75.26 104.832 77.4752 108.801C77.4752 108.801 95.992 112.644 96.6168 112.203C97.2416 111.762 100.309 108.171 104.342 107.289C108.374 106.407 109.397 109.809 107.238 111.51C105.705 112.77 104.228 114.093 102.808 115.542C102.808 115.542 105.023 122.346 100.025 126.189L100.366 130.851C100.309 130.725 94.7992 134.568 85.5976 132.741Z" fill="white"/>
<path d="M86.5632 133.749L86.62 130.851C86.6768 130.473 86.6768 130.032 86.6768 129.654C86.5632 128.835 85.7112 128.016 85.1432 127.575C84.7456 127.26 84.4048 127.008 84.0072 126.693C83.78 126.504 83.8936 126.63 83.6096 126.378C83.3256 126.126 83.212 126 82.9848 125.811C82.5304 125.433 82.076 124.992 81.6216 124.551C79.52 122.598 77.6456 120.267 76.1688 117.747C75.7712 117.054 75.3736 116.298 75.0328 115.479C74.692 114.66 74.5216 113.778 74.1808 113.022C73.7832 112.203 73.1584 111.51 72.42 111.069C72.2496 110.943 72.4768 111.069 72.3632 111.069L72.136 110.88C71.9088 110.754 71.6816 110.565 71.5112 110.376C71.3408 110.25 71.1704 110.061 71 109.935C71.1136 110.061 70.8864 109.746 71 109.998C70.9432 109.935 70.9432 109.935 70.9432 109.872C70.6592 109.116 70.8296 108.297 71.284 107.73C71.9656 106.911 73.1016 106.722 73.9536 107.226C74.0104 107.289 74.124 107.289 74.1808 107.289C74.408 107.163 74.692 107.037 74.976 107.1C75.828 107.163 76.112 107.667 76.5664 108.36C76.964 109.116 77.532 109.683 78.2704 109.935C78.5544 109.998 78.8952 110.061 79.1792 110.124C82.076 110.691 84.916 111.258 87.8128 111.825C90.7096 112.392 93.4928 112.959 96.3328 113.274C96.6168 113.337 96.9008 113.337 97.1848 113.337C97.5256 113.211 97.8664 112.959 98.0936 112.644C99.7408 111.006 101.558 109.746 103.603 108.801C104.796 108.36 106.273 107.919 107.522 108.423C108.374 108.801 106.841 107.856 107.068 107.667C107.125 107.793 107.125 107.982 107.125 108.108C107.125 108.549 107.011 108.99 106.784 109.368C106.443 109.809 106.102 110.25 105.648 110.565C105.023 111.069 104.398 111.636 103.774 112.203C103.035 112.896 102.354 113.589 101.615 114.282C101.558 114.345 101.558 114.471 101.615 114.534C102.013 115.92 102.183 117.432 102.013 118.881C101.899 120.267 101.502 121.653 100.763 122.787C100.366 123.417 99.8544 123.984 99.3432 124.488C99.0024 124.803 98.832 124.866 98.832 125.307C98.832 126.378 98.9456 127.386 99.0592 128.457C99.116 128.835 99.116 129.15 99.116 129.528C99.116 129.717 99.2296 129.528 99.0592 129.591C97.8664 130.347 96.56 130.914 95.1968 131.229C91.6752 132.174 88.0968 132.237 84.5184 131.481C84.1208 131.418 84.8592 132.552 84.8592 132.615C85.2 133.056 85.6544 133.749 86.2224 133.875C89.8008 134.631 93.4928 134.505 97.0712 133.56C98.4912 133.245 99.7976 132.615 101.047 131.859L101.104 131.733L100.934 128.961C100.877 128.457 100.82 127.89 100.82 127.386C100.82 127.323 100.763 127.134 100.82 127.071C100.877 127.008 101.218 126.819 101.274 126.756C101.445 126.567 101.615 126.441 101.786 126.252C103.603 124.11 104.398 121.212 103.944 118.314C103.887 117.621 103.717 116.928 103.49 116.235V116.487C104.966 114.975 106.557 113.715 108.09 112.329C109.624 110.943 109.056 109.116 107.92 107.667C107.295 106.785 106.443 106.155 105.478 105.84C104.398 105.651 103.319 105.714 102.297 106.155C100.195 106.911 98.264 108.171 96.6168 109.809C96.276 110.25 95.8784 110.565 95.424 110.88C95.4808 110.88 95.424 110.88 95.3104 110.88C95.1968 110.88 95.0264 110.88 94.9128 110.88C93.8904 110.817 92.9248 110.628 91.9024 110.439C88.8352 109.935 85.7112 109.305 82.644 108.738C80.5424 108.297 78.4408 107.919 76.396 107.478L77.9296 109.053C76.964 107.415 75.6008 105.399 73.84 104.832C73.3288 104.58 72.704 104.643 72.2496 104.958L72.4768 105.021C71.7952 104.58 70.9432 104.517 70.2048 104.706C69.012 105.21 68.3872 106.596 68.8416 107.919C69.3528 109.494 70.6024 110.817 71.7384 111.888C72.42 112.518 73.1016 113.022 73.84 113.463L72.1928 111.447C73.272 115.353 75.4872 118.818 77.9296 121.842C79.9744 124.299 82.1896 126.567 84.632 128.583C85.0864 128.961 85.5408 129.339 85.9952 129.717L84.5184 127.638L84.4048 131.67C84.4048 132.237 85.0864 132.93 85.4272 133.245C85.7112 133.371 86.5632 134.19 86.5632 133.749Z" fill="#000005"/>
<path d="M83.6664 116.802C83.6664 116.802 79.0088 112.329 77.4184 108.738L83.6664 116.802Z" fill="white"/>
<path d="M84.4048 115.731C84.1776 115.479 83.8936 115.227 83.6664 115.038L82.8712 114.219L82.4168 113.715C82.2464 113.526 82.644 113.967 82.36 113.652L82.1328 113.4C81.4512 112.581 80.7696 111.762 80.088 110.88C79.7472 110.439 79.4632 109.998 79.1792 109.494L78.952 109.116L78.8384 108.927L78.8952 108.99C78.7816 108.738 78.668 108.549 78.5544 108.297C78.2704 107.541 77.4752 107.163 76.7368 107.352C76.112 107.541 75.828 108.297 75.9984 108.927C75.9984 108.99 76.0552 109.053 76.112 109.179C76.9072 110.88 77.9296 112.392 79.0656 113.778C80.0312 114.975 81.1104 116.172 82.1896 117.306C82.4168 117.495 82.5872 117.747 82.8144 117.936C83.3824 118.503 84.1776 118.44 84.6888 117.873C85.2 117.117 85.0296 116.235 84.4048 115.731Z" fill="#000005"/>
<path d="M73.3856 106.092C73.3856 106.092 71.9088 107.226 73.3856 112.329V106.092Z" fill="white"/>
<path d="M72.42 105.651C72.0792 105.966 71.7952 106.344 71.6816 106.848C71.3976 107.793 71.284 108.801 71.4544 109.809C71.568 110.817 71.7952 111.888 72.0792 112.896C72.136 113.148 72.4768 113.274 72.6472 113.337C72.988 113.4 73.3288 113.337 73.6696 113.148C74.124 112.896 74.8624 112.392 74.692 111.762C74.5216 111.195 74.408 110.628 74.2944 110.061L74.2376 109.683C74.2376 109.62 74.1808 109.305 74.1808 109.494C74.1808 109.305 74.124 109.116 74.124 108.927C74.0672 108.297 74.0672 107.667 74.1808 107.037L74.2376 106.911C74.1808 107.226 74.1808 107.037 74.2376 106.974C74.2944 106.911 74.2944 106.785 74.3512 106.722C74.3512 106.659 74.408 106.596 74.4648 106.533C74.5784 106.281 74.2944 106.785 74.408 106.596C74.5216 106.407 74.692 106.155 74.3512 106.659L74.408 106.596C74.8056 106.281 75.0328 105.462 74.4648 105.273C73.6696 104.958 72.9312 105.147 72.42 105.651Z" fill="#000005"/>
<path d="M86.052 113.778C86.052 113.778 78.8384 110.124 77.8728 109.116L86.052 113.778Z" fill="white"/>
<path d="M87.0744 113.778L84.632 112.518C83.8936 112.14 83.1552 111.762 82.4736 111.321L81.508 110.754C81.1672 110.565 80.8832 110.376 80.5424 110.187C80.2016 109.998 79.9176 109.809 79.6336 109.62L79.3496 109.431L79.236 109.305C78.7248 108.927 78.1568 108.738 77.5888 108.675C77.3048 108.612 77.0208 108.612 76.7368 108.612C76.68 108.612 76.396 108.675 76.5664 108.801C76.964 109.179 77.4184 109.494 77.8728 109.746C78.5544 110.124 79.1792 110.502 79.8608 110.88C81.2808 111.699 82.7008 112.455 84.1776 113.148L85.1432 113.652C85.768 113.967 86.4496 114.093 87.1312 114.093C87.2448 114.093 87.5288 114.093 87.5856 113.967C87.6424 113.841 87.1312 113.778 87.0744 113.778Z" fill="#000005"/>
<path d="M88.324 118.881C88.8352 118.818 89.4032 118.881 89.9144 118.944H90.0848H90.1984H90.1416C90.2552 118.944 90.3688 119.007 90.5392 119.007C90.7664 119.07 91.0504 119.133 91.2776 119.259C91.3344 119.259 91.6184 119.385 91.6752 119.448C91.448 119.322 91.732 119.511 91.6752 119.448L91.8456 119.574L92.016 119.7C91.7888 119.511 92.1296 119.763 92.016 119.7L92.1864 119.826C91.9592 119.574 92.4136 120.015 92.1864 119.826L92.2432 119.889C92.4136 120.078 92.1296 119.763 92.1296 119.763C92.1296 119.826 92.2432 119.889 92.3 119.952C91.9592 119.511 92.1864 119.826 92.2432 119.952C92.3 120.078 92.1296 119.763 92.1296 119.763C92.1296 119.826 92.1864 119.889 92.1864 119.889C92.1864 119.952 92.2432 119.952 92.2432 120.015C92.2432 120.078 92.1296 119.7 92.1864 119.952C92.2432 120.015 92.2432 120.141 92.3 120.204C92.3568 120.267 92.4136 120.519 92.3568 120.33C92.4136 120.456 92.4136 120.582 92.4704 120.708C92.6408 121.401 93.0384 122.031 93.6064 122.472C93.8336 122.661 94.572 123.102 94.4584 122.409C93.9472 120.204 92.6408 118.377 90.8232 117.306C89.744 116.739 88.608 116.424 87.4152 116.424C87.188 116.424 86.9608 116.424 86.7336 116.424C86.2224 116.487 86.7904 117.495 86.9608 117.684C87.188 117.999 87.4152 118.314 87.6992 118.566C87.8128 118.755 88.0968 118.818 88.324 118.881Z" fill="#000005"/>
<path d="M142.625 182.7C187.61 208.719 187.099 123.606 170.4 108.675C160.346 99.729 152.906 112.77 152.906 112.77C133.707 102.123 122.347 114.975 109.226 148.806C105.932 138.915 102.297 127.953 101.615 127.197C100.366 125.811 81.9624 131.292 81.9624 131.292C81.9624 131.292 82.36 163.926 96.9576 173.439C107.693 180.369 123.426 166.95 125.017 166.509" fill="white"/>
<path d="M142 183.519C146.487 186.102 151.372 188.181 156.427 188.622C160.29 189.063 164.209 188.244 167.674 186.291C170.798 184.401 173.41 181.629 175.285 178.353C177.386 174.699 178.977 170.667 179.999 166.446C181.135 161.784 181.817 157.059 182.044 152.271C182.328 147.42 182.214 142.506 181.76 137.655C181.362 133.056 180.567 128.457 179.374 124.047C178.409 120.267 176.989 116.613 175.171 113.211C172.842 109.053 169.264 105.651 164.834 104.769C159.835 103.761 155.178 106.974 152.224 111.258C151.997 111.573 151.826 111.825 151.656 112.14L153.53 112.077C146.998 108.486 139.558 106.596 132.628 109.935C125.301 113.463 120.359 121.527 116.44 128.898C113.202 135.198 110.362 141.687 107.806 148.365L110.476 148.806C108.715 143.577 107.011 138.285 105.137 133.119C104.569 131.481 104.001 129.906 103.376 128.331C102.978 127.323 102.581 126.504 101.558 126.189C100.65 125.937 99.684 125.937 98.7752 126.063C97.4688 126.189 96.2192 126.441 94.9128 126.756C92.016 127.386 89.176 128.079 86.336 128.898C84.5752 129.402 82.8712 129.843 81.1104 130.347C80.7696 130.41 80.4856 130.725 80.4856 131.166C80.5424 133.875 80.7128 136.584 81.0536 139.23C81.6216 145.152 82.8144 150.948 84.5184 156.555C86.3928 162.477 89.2328 168.336 93.6632 172.368C96.1056 174.636 99.116 176.085 102.24 176.526C105.534 176.841 108.829 176.4 111.953 175.203C114.85 174.132 117.633 172.746 120.302 171.045C122.006 170.037 123.597 168.84 125.301 167.769L125.585 167.58C125.812 167.391 125.471 167.643 125.528 167.58C125.926 167.517 126.21 167.076 126.153 166.635C126.153 166.446 126.039 166.32 125.982 166.194C125.528 165.564 124.79 165.312 124.108 165.501C123.597 165.69 123.086 166.005 122.631 166.32L120.302 167.895C117.974 169.47 115.588 170.793 113.089 171.99C110.306 173.376 107.352 174.195 104.342 174.447C102.978 174.51 101.615 174.384 100.252 174.069C98.9456 173.691 97.7528 173.061 96.6168 172.242C92.2432 168.903 89.46 163.422 87.5288 158.004C85.7112 152.586 84.4616 146.916 83.8368 141.183C83.6096 139.104 83.3824 137.025 83.2688 134.946C83.212 133.938 83.2688 132.867 83.1552 131.859C83.1552 131.796 83.1552 131.733 83.1552 131.733L82.5304 132.552C86.5064 131.355 90.5392 130.284 94.572 129.339C95.8216 129.024 97.128 128.772 98.4344 128.52L98.832 128.457H99.0024L99.7408 128.331C100.138 128.268 100.536 128.268 100.934 128.268C101.331 128.268 100.706 128.205 101.047 128.268C101.104 128.268 101.331 128.394 101.047 128.268C100.934 128.268 100.82 128.205 100.706 128.142L100.309 127.764C100.366 127.827 100.479 128.079 100.252 127.701C100.309 127.89 100.422 128.079 100.479 128.205C101.104 129.591 101.558 131.04 102.07 132.426C104.058 137.907 105.875 143.451 107.693 149.058C108.034 150.003 109.908 150.633 110.362 149.499C112.634 143.703 115.02 137.907 117.746 132.363C119.848 128.016 122.29 123.921 125.13 120.078C127.289 117.117 129.902 114.597 132.912 112.707C135.468 111.069 138.422 110.25 141.375 110.313C142.17 110.313 142.966 110.376 143.761 110.565C144.215 110.628 144.67 110.754 145.181 110.88L145.749 111.006C145.749 111.006 146.203 111.132 146.374 111.195C148.362 111.825 150.293 112.644 152.11 113.715C152.565 113.967 153.587 114.282 153.985 113.652C155.746 110.565 158.642 107.793 161.823 106.974C162.959 106.659 164.152 106.659 165.345 106.974C166.878 107.478 168.242 108.297 169.434 109.431C169.662 109.683 169.889 109.872 170.116 110.124L170.286 110.313C170.23 110.25 170.457 110.502 170.286 110.313L170.627 110.754C171.082 111.321 171.536 111.888 171.934 112.518C172.161 112.833 172.331 113.211 172.558 113.526C172.672 113.652 172.729 113.841 172.842 114.03C172.842 114.03 172.786 113.904 172.899 114.093L173.07 114.408C173.467 115.164 173.808 115.92 174.149 116.739C174.887 118.44 175.512 120.267 176.08 122.031C177.273 126.126 178.125 130.284 178.636 134.568C179.204 139.23 179.431 143.955 179.318 148.617C179.261 153.216 178.75 157.815 177.898 162.351C177.102 166.572 175.853 170.667 174.092 174.447C173.297 176.148 172.331 177.723 171.252 179.235C170.741 179.991 170.173 180.621 169.548 181.314C169.264 181.629 168.923 181.944 168.639 182.259L168.185 182.637C168.071 182.763 167.958 182.889 167.787 182.952C167.106 183.519 166.424 183.96 165.742 184.464C165.402 184.716 165.004 184.905 164.606 185.094L164.152 185.22L163.868 185.346C163.754 185.409 163.925 185.346 163.925 185.346L163.754 185.409C162.959 185.724 162.107 185.976 161.312 186.165C161.085 186.228 160.914 186.228 160.687 186.291L160.403 186.354C160.346 186.354 159.949 186.417 160.233 186.354C159.778 186.417 159.381 186.48 158.926 186.48C158.472 186.48 157.961 186.543 157.506 186.543C157.279 186.543 157.052 186.543 156.882 186.543H156.484H156.314C155.291 186.417 154.269 186.291 153.246 186.039L152.451 185.85L152.11 185.787H152.167L151.883 185.724C151.315 185.598 150.804 185.409 150.236 185.22C149.043 184.779 147.907 184.338 146.771 183.771C146.43 183.582 146.317 183.582 146.09 183.456L145.181 183.015C144.556 182.7 143.931 182.322 143.363 182.007C142.852 181.692 141.943 181.503 141.489 182.07C141.034 182.637 141.602 183.33 142.057 183.582L142 183.519Z" fill="#000005"/>
<path d="M161.539 97.02C161.539 97.02 170.457 98.973 171.877 94.941C173.297 90.909 167.617 91.917 167.617 91.917C167.617 91.917 174.206 83.664 165.118 82.215C165.118 82.215 172.672 75.978 166.708 70.182C160.744 64.386 148.93 68.166 148.93 68.166C148.93 68.166 149.214 59.22 139.955 60.417C130.697 61.614 132.969 66.969 132.969 66.969C132.969 66.969 127.062 67.662 126.891 70.749C126.721 73.836 131.208 75.033 131.208 75.033C131.208 75.033 132.912 83.853 140.978 82.53L148.759 93.555C148.759 93.555 146.033 97.587 148.986 101.745C151.94 105.903 161.937 102.69 161.539 97.02Z" fill="#000005"/>
<path d="M161.766 98.217C164.379 98.847 167.049 98.91 169.662 98.343C171.309 97.902 172.842 96.957 173.354 95.067C173.865 92.988 172.445 91.413 170.741 90.909C169.548 90.594 168.298 90.531 167.049 90.783L168.753 92.925C170.798 90.342 172.615 86.184 169.946 83.349C168.582 81.963 166.765 81.396 164.947 81.081L166.31 83.223C167.56 82.215 168.582 80.892 169.378 79.443C170.854 76.86 170.684 73.584 169.037 71.19C165.402 65.835 158.358 65.331 152.906 66.15C151.315 66.339 149.725 66.717 148.191 67.221L150.406 68.796C150.52 65.331 148.873 62.118 146.146 60.48C143.42 58.842 140.012 59.031 137.115 59.85C135.07 60.354 132.628 61.425 131.833 63.756C131.435 64.89 131.492 66.15 131.946 67.284L132.571 65.898C130.64 66.024 128.766 66.717 127.118 67.914C126.039 68.67 125.528 70.056 125.755 71.442C126.039 73.08 127.289 74.277 128.538 75.033C129.39 75.6 130.299 75.978 131.208 76.23L130.015 74.97C130.413 76.797 131.208 78.498 132.287 79.947C134.616 83.097 138.138 84.294 141.716 83.727L140.126 83.034L146.942 92.673L147.907 94.059L147.68 92.862C145.294 96.39 146.601 101.934 150.122 103.887C153.36 105.714 157.677 104.895 160.574 102.627C162.05 101.493 163.186 99.666 163.073 97.587C163.016 96.831 162.505 96.201 161.823 96.012C161.369 95.886 160.346 95.949 160.403 96.705C160.574 99.729 157.79 101.556 155.348 102.123C154.666 102.312 153.985 102.375 153.246 102.375C152.906 102.375 152.565 102.375 152.224 102.312L151.997 102.249C151.77 102.186 152.167 102.312 151.94 102.249C151.713 102.186 151.542 102.123 151.372 102.06L151.202 101.997C150.974 101.934 151.429 102.123 151.202 101.997C150.974 101.871 150.918 101.871 150.804 101.808C150.577 101.682 150.69 101.745 150.804 101.808C150.747 101.745 150.69 101.682 150.577 101.682C150.463 101.682 150.179 101.304 150.35 101.493C149.668 100.674 149.214 99.603 149.043 98.469C148.873 96.957 149.27 95.445 150.066 94.185C150.293 93.807 150.009 93.303 149.838 92.988L143.363 83.853C142.966 83.286 142.568 82.719 142.17 82.215C142.057 82.026 141.943 81.9 141.773 81.711C140.921 80.955 139.842 81.396 138.876 81.396C138.365 81.396 137.797 81.333 137.286 81.144C136.774 81.018 136.263 80.766 135.809 80.451C135.411 80.199 136.036 80.64 135.695 80.325C135.582 80.262 135.468 80.136 135.354 80.073C135.241 80.01 134.786 79.506 134.957 79.695C134.616 79.317 134.275 78.876 133.934 78.372C133.707 78.057 134.048 78.624 133.878 78.246C133.821 78.12 133.764 78.057 133.707 77.931C133.594 77.679 133.48 77.49 133.366 77.238C133.253 76.986 133.196 76.797 133.082 76.608C133.026 76.482 132.798 75.915 132.969 76.23C132.855 75.852 132.742 75.474 132.628 75.033C132.458 74.403 132.003 73.899 131.435 73.773C131.151 73.71 130.924 73.584 130.64 73.521L130.356 73.395C130.697 73.521 130.242 73.332 130.129 73.269C129.845 73.143 129.561 72.954 129.334 72.765C129.561 72.954 129.106 72.576 129.106 72.576C129.106 72.576 128.766 72.261 128.936 72.45C128.709 72.261 128.538 71.946 128.425 71.631C128.311 71.19 128.368 70.623 128.595 70.245C129.163 69.3 130.583 68.796 131.606 68.481C132.287 68.292 132.969 68.166 133.65 68.04C134.105 67.977 134.446 67.599 134.389 67.095C134.389 66.969 134.332 66.78 134.275 66.654C134.162 66.402 134.332 66.969 134.332 66.78C134.275 66.654 134.275 66.465 134.218 66.339C134.218 66.213 134.162 66.15 134.162 66.024C134.105 65.709 134.162 66.276 134.162 65.961C134.162 65.709 134.218 65.394 134.218 65.142C134.275 64.827 134.162 65.205 134.275 64.953C134.389 64.638 134.502 64.386 134.673 64.134C134.673 64.071 134.843 63.945 134.73 64.071C134.786 63.945 134.9 63.882 135.014 63.756C135.695 63.063 136.547 62.559 137.456 62.244C138.876 61.74 140.353 61.425 141.886 61.425C142.454 61.425 142.966 61.488 143.534 61.551C143.761 61.614 143.988 61.677 144.215 61.74L144.499 61.866L144.783 61.992C144.67 61.929 144.67 61.929 144.783 61.992C144.897 62.055 145.181 62.181 145.351 62.307C145.408 62.307 145.749 62.559 145.465 62.37L145.692 62.559C145.749 62.622 146.203 63.063 145.976 62.811C146.146 63 146.26 63.189 146.43 63.315C146.487 63.378 146.771 63.819 146.601 63.567C146.714 63.756 146.771 63.945 146.885 64.071C146.942 64.26 147.055 64.449 147.112 64.575C147.169 64.638 147.169 64.764 147.226 64.827C147.282 64.89 147.169 64.701 147.282 64.953C147.453 65.646 147.623 66.339 147.68 67.032C147.68 67.095 147.68 67.095 147.68 67.158C147.68 66.969 147.737 67.473 147.68 67.158C147.68 67.347 147.68 67.347 147.68 67.41C147.68 67.473 147.68 67.599 147.68 67.662C147.623 68.859 148.986 69.489 149.895 69.237L150.122 69.174C149.838 69.237 150.179 69.174 150.122 69.174L150.52 69.048C151.258 68.859 152.054 68.67 152.792 68.544C155.007 68.103 157.279 67.977 159.551 68.166C161.937 68.418 164.266 69.111 166.026 70.812C167.787 72.387 168.242 75.159 167.106 77.364C166.367 78.813 165.402 80.136 164.152 81.081C163.811 81.396 163.925 82.026 164.152 82.341C164.493 82.845 164.947 83.16 165.515 83.223C166.254 83.349 167.049 83.601 167.73 83.916C167.787 83.979 168.128 84.168 167.844 83.979C167.958 84.105 168.128 84.168 168.242 84.294C168.014 84.042 168.242 84.294 168.298 84.357C168.355 84.42 168.412 84.483 168.412 84.546C168.355 84.42 168.355 84.42 168.412 84.546C168.469 84.672 168.526 84.798 168.582 84.924C168.639 84.987 168.582 84.987 168.582 84.861C168.582 84.924 168.639 84.987 168.639 85.05C168.639 85.176 168.696 85.302 168.696 85.491C168.696 85.743 168.696 85.365 168.696 85.617C168.696 85.869 168.696 86.121 168.639 86.373C168.639 86.562 168.526 87.003 168.526 87.003C168.242 87.948 167.844 88.893 167.276 89.712C167.162 89.838 167.049 90.027 166.992 90.216C166.935 90.405 166.651 90.72 166.878 90.405C166.822 90.531 166.708 90.657 166.651 90.72C165.799 91.791 167.39 93.051 168.355 92.862C168.582 92.799 168.81 92.799 169.037 92.799H169.321C169.605 92.799 169.207 92.799 169.434 92.799C169.718 92.799 170.002 92.799 170.286 92.862C170.4 92.862 170.684 92.925 170.4 92.862C170.514 92.862 170.684 92.925 170.798 92.988C170.911 93.051 171.025 93.114 170.741 92.925C170.798 92.925 170.854 92.988 170.911 92.988C171.082 93.114 170.684 92.799 170.968 93.051C170.741 92.862 170.854 92.925 170.911 92.988C170.854 92.925 170.854 92.736 170.854 92.925C170.798 92.673 170.854 92.988 170.854 93.051C170.854 93.051 170.854 93.177 170.854 93.366C170.854 93.555 170.798 93.744 170.741 93.933C170.286 95.13 169.207 95.571 168.128 95.76C166.765 96.012 165.345 96.075 163.982 95.886C163.13 95.823 162.278 95.697 161.426 95.508C160.971 95.382 160.517 95.697 160.403 96.201C160.346 96.327 160.346 96.453 160.403 96.579C160.346 97.713 161.142 98.091 161.766 98.217Z" fill="#000005"/>
<path d="M154.269 113.148C154.894 110.817 152.565 96.894 152.565 96.894C152.565 96.894 157.393 97.02 158.131 91.161C158.87 85.302 153.36 84.42 150.634 90.279C150.634 90.279 145.351 77.931 148.646 71.379C148.646 71.379 138.194 78.12 131.833 76.482C131.833 76.482 124.562 96.453 129.447 104.265C133.707 111.132 138.024 110.817 138.024 110.817L138.478 112.14L143.59 117.81L154.269 113.148Z" fill="white"/>
<path d="M155.632 113.526C155.802 112.644 155.859 111.699 155.746 110.817C155.689 109.431 155.518 108.108 155.348 106.722C155.007 103.95 154.61 101.178 154.155 98.469C154.042 97.839 153.928 97.272 153.871 96.642L152.451 98.154C155.064 98.217 157.506 96.579 158.756 94.059C159.665 92.106 159.949 89.397 158.983 87.381C158.074 85.68 156.314 84.735 154.553 85.05C152.11 85.365 150.293 87.57 149.214 89.838L151.94 89.964C151.372 88.515 150.861 87.066 150.406 85.554C149.441 82.656 148.986 79.569 148.93 76.482C148.93 74.844 149.27 73.206 149.952 71.757C150.236 71.19 149.782 70.56 149.327 70.308C148.759 69.993 148.134 70.056 147.623 70.434C148.134 70.119 147.623 70.434 147.396 70.56C146.998 70.812 146.601 71.064 146.203 71.253C144.84 72.009 143.477 72.702 142.057 73.332C140.41 74.088 138.706 74.655 136.945 75.096C135.411 75.537 133.821 75.6 132.23 75.285C131.549 75.033 130.81 75.411 130.47 76.104C128.936 80.325 127.8 84.735 127.005 89.271C126.323 92.547 126.153 95.949 126.437 99.288C126.607 100.863 126.948 102.375 127.573 103.824C128.482 105.777 129.788 107.478 131.265 108.864C132.969 110.502 135.525 112.266 137.91 112.14L136.547 111.132C136.718 111.888 137.058 112.581 137.456 113.148C138.024 113.778 138.535 114.345 139.103 114.975L142.454 118.692C142.966 119.133 143.59 119.196 144.158 118.944L154.894 114.219C155.462 114.03 155.746 113.337 155.575 112.77C155.575 112.707 155.518 112.644 155.462 112.518C155.007 111.888 154.212 111.699 153.53 112.014L142.795 116.676L144.499 116.928L139.387 111.321L139.728 111.888L139.274 110.565C139.046 109.998 138.535 109.62 137.967 109.62C137.854 109.62 137.74 109.62 137.626 109.62H137.456C137.229 109.62 137.797 109.683 137.57 109.62C137.342 109.557 137.172 109.557 137.002 109.494C136.831 109.431 136.547 109.368 136.32 109.242C136.547 109.305 136.263 109.242 136.206 109.179L135.695 108.927C135.07 108.612 134.502 108.171 133.991 107.73C132.514 106.47 131.265 104.895 130.356 103.131C129.845 101.934 129.504 100.674 129.334 99.351C129.05 96.264 129.22 93.114 129.788 90.09C130.299 87.192 130.924 84.294 131.776 81.459C132.23 79.947 132.685 78.435 133.196 76.986L131.435 77.805C134.502 78.561 137.74 77.805 140.694 76.797C143.193 75.915 145.578 74.781 147.907 73.458C148.475 73.143 149.043 72.765 149.611 72.45L147.282 71.127C145.862 74.025 146.033 77.616 146.487 80.766C146.942 83.601 147.623 86.31 148.589 88.956C148.816 89.523 148.986 90.09 149.214 90.594C149.611 91.476 150.52 91.791 151.315 91.413C151.599 91.287 151.826 91.035 151.997 90.72C152.508 89.649 153.246 88.704 154.155 88.074C154.326 88.011 154.439 87.885 154.61 87.822L154.837 87.759C155.064 87.696 154.837 87.759 154.95 87.696C155.064 87.633 155.234 87.633 155.348 87.633H155.518C155.802 87.633 155.348 87.57 155.632 87.633L155.802 87.696C155.973 87.759 155.632 87.57 155.859 87.696C156.2 87.885 156.427 88.2 156.598 88.515C157.166 89.964 156.825 91.98 156.143 93.303C155.859 93.807 155.518 94.248 155.121 94.626L154.837 94.878C154.78 94.941 154.439 95.13 154.666 95.004C154.439 95.13 154.212 95.256 153.985 95.382C153.928 95.445 153.474 95.571 153.871 95.445L153.587 95.508C153.417 95.571 153.19 95.571 153.019 95.634C152.962 95.634 152.849 95.634 152.792 95.697C152.622 95.76 153.19 95.697 152.962 95.697H152.792C151.997 95.697 151.202 96.264 151.372 97.209C152.167 101.43 152.735 105.714 153.076 110.061C153.133 110.628 153.133 111.258 153.133 111.825C153.133 112.077 153.133 112.266 153.133 112.518C153.133 112.644 153.133 112.707 153.076 112.833C153.076 113.022 153.133 112.518 153.076 112.833C152.508 114.408 155.234 115.038 155.632 113.526Z" fill="#000005"/>
<path d="M138.365 85.239C138.478 85.806 138.194 86.31 137.683 86.499C137.626 86.499 137.57 86.499 137.513 86.499C136.49 86.625 136.377 85.239 137.229 84.861C137.57 84.609 138.081 84.735 138.251 85.113C138.308 85.176 138.365 85.176 138.365 85.239Z" fill="#000005"/>
<path d="M133.594 85.554C133.707 86.121 133.423 86.625 132.969 86.814C132.912 86.814 132.855 86.814 132.798 86.814C131.776 86.94 131.662 85.554 132.514 85.176C132.855 84.924 133.366 85.05 133.594 85.491C133.594 85.491 133.594 85.491 133.594 85.554Z" fill="#000005"/>
<path d="M124.733 140.553L123.881 153.972L122.574 175.329L122.29 180.18C122.29 180.936 122.574 181.629 123.086 182.133C123.313 182.385 123.994 182.889 123.994 182.196L124.846 168.777L126.153 147.42L126.437 142.569C126.437 141.813 126.153 141.12 125.642 140.616C125.471 140.364 124.79 139.86 124.733 140.553Z" fill="#000005"/>
<path d="M135.809 97.965C135.809 97.965 123.654 102.312 120.302 95.571C116.951 88.83 125.414 83.664 133.366 88.326" fill="white"/>
<path d="M134.73 97.272C133.764 97.587 132.798 97.902 131.833 98.091C129.845 98.532 127.8 98.721 125.755 98.532C125.471 98.469 125.187 98.469 124.903 98.406C124.449 98.343 125.017 98.469 124.79 98.343L124.449 98.28C124.449 98.28 123.994 98.091 124.278 98.217L123.881 98.028C123.654 97.965 123.483 97.839 123.313 97.713C122.461 97.146 121.779 96.264 121.382 95.256C120.359 92.862 121.154 89.901 123.256 88.578C126.039 86.625 129.674 87.003 132.458 88.641C132.969 88.956 133.821 89.271 134.389 89.019C134.957 88.767 134.502 88.2 134.105 88.011C130.64 86.058 126.437 85.05 122.688 86.373C120.075 87.318 117.803 89.712 118.201 92.988C118.598 96.264 121.154 98.406 123.824 99.351C126.494 100.17 129.277 100.296 131.946 99.792C133.594 99.54 135.241 99.162 136.888 98.595C137.513 98.406 136.888 97.776 136.604 97.587C136.036 97.272 135.354 97.146 134.73 97.272Z" fill="#000005"/>
<path d="M145.806 93.996L141.148 98.658C141.148 98.658 142 100.863 144.67 100.611C147.339 100.359 148.078 95.949 145.806 93.996Z" fill="#000005"/>
<path d="M145.067 93.366L140.978 97.461L140.41 98.028C140.012 98.343 139.785 98.91 139.955 99.414C140.182 99.918 140.523 100.359 140.864 100.674C142.966 102.438 145.919 101.997 147.51 99.792C148.191 98.784 148.532 97.524 148.418 96.327C148.362 95.004 147.737 93.744 146.828 92.925C146.374 92.484 145.465 92.925 145.067 93.366C144.67 93.744 144.272 94.5 144.783 94.941L145.067 95.193C145.124 95.256 145.124 95.256 145.181 95.319C145.01 95.193 145.124 95.256 145.124 95.319C145.238 95.508 145.408 95.76 145.522 95.949C145.635 96.138 145.692 96.327 145.749 96.516C145.635 96.264 145.749 96.579 145.749 96.642C145.806 96.768 145.806 96.894 145.806 97.02C145.862 97.209 145.862 97.461 145.862 97.65V97.776C145.862 97.965 145.862 97.713 145.862 97.713L145.806 98.091C145.806 98.28 145.749 98.469 145.692 98.721C145.635 98.973 145.806 98.469 145.692 98.784C145.635 98.91 145.635 98.973 145.578 99.099L145.522 99.225C145.465 99.351 145.749 98.91 145.578 99.099L145.408 99.288C145.181 99.603 145.635 99.036 145.408 99.288L145.351 99.351C145.238 99.477 145.124 99.477 145.465 99.288C145.408 99.351 145.294 99.477 145.238 99.477C145.181 99.477 145.635 99.288 145.408 99.351L145.294 99.414C144.954 99.54 145.635 99.351 145.294 99.414H145.181C145.01 99.414 145.124 99.351 145.238 99.414C145.124 99.414 144.954 99.414 144.84 99.414H144.442C144.215 99.414 144.499 99.414 144.499 99.414C144.499 99.414 144.386 99.414 144.329 99.351C144.272 99.288 144.102 99.288 143.931 99.225C143.761 99.162 143.761 99.162 143.704 99.099C143.477 99.036 143.818 99.225 143.761 99.099C143.704 98.973 143.647 99.036 143.647 99.036C143.477 98.91 143.363 98.847 143.193 98.721C143.136 98.658 143.079 98.595 142.966 98.532L142.909 98.469C142.795 98.343 143.079 98.658 142.966 98.532C142.852 98.406 142.795 98.28 142.738 98.154C142.682 98.028 142.625 97.902 142.568 97.776L142.114 99.162L146.203 95.067L146.771 94.5C147.112 94.122 147.623 93.303 147.055 92.862C146.487 92.421 145.465 92.925 145.067 93.366Z" fill="#05050A"/>
<path d="M145.408 129.276V149.94C145.408 150.381 146.09 150.885 146.374 151.137C146.771 151.452 147.169 151.704 147.623 151.956V131.292C147.623 130.851 146.942 130.347 146.658 130.095C146.26 129.78 145.862 129.528 145.408 129.276Z" fill="#000005"/>
<path d="M124.222 161.784C124.222 161.784 122.29 181.503 124.051 181.881C125.812 182.259 129.22 162.099 129.22 162.099L124.222 161.784Z" fill="#000005"/>
<path d="M122.858 161.91C122.631 164.304 122.404 166.761 122.29 169.155C122.063 172.746 121.722 176.526 122.063 180.117C122.177 181.314 122.347 182.889 123.654 183.141C125.074 183.393 125.926 182.07 126.437 180.81C127.743 177.66 128.368 174.006 129.106 170.604C129.674 167.769 130.242 164.871 130.754 161.973C130.867 161.406 130.242 160.839 129.731 160.839L124.733 160.461C123.994 160.335 123.313 160.776 122.972 161.532C122.802 162.162 123.086 162.792 123.654 162.981C123.71 162.981 123.824 163.044 123.881 163.044L128.879 163.422L127.857 162.288C127.743 162.918 127.63 163.548 127.516 164.178C127.459 164.367 127.573 163.989 127.459 164.304L127.402 164.808C127.346 165.186 127.289 165.564 127.175 165.942C127.005 166.761 126.891 167.58 126.721 168.399C126.096 171.927 125.301 175.392 124.278 178.794C124.108 179.361 123.881 179.991 123.654 180.495C123.654 180.558 123.597 180.621 123.597 180.684C123.54 180.873 123.767 180.369 123.597 180.621L123.483 180.873C123.426 180.936 123.37 180.999 123.37 181.125C123.37 181.062 123.597 180.873 123.426 181.062C123.881 180.684 124.506 180.621 125.017 180.936C124.846 180.81 125.244 181.188 125.074 180.999C124.903 180.81 125.13 181.314 125.074 180.999C125.017 180.684 124.96 180.621 124.96 180.432C124.96 180.243 124.903 180.18 124.903 180.054C124.903 179.928 124.903 179.928 124.903 179.865C124.846 179.55 124.903 180.18 124.903 179.802C124.619 176.4 124.846 172.935 125.074 169.533C125.244 166.887 125.471 164.241 125.698 161.658C125.812 159.957 122.972 160.335 122.858 161.91Z" fill="#000005"/>
<path d="M119.848 147.483C119.848 147.483 132.23 149.688 133.48 150.444C134.73 151.2 134.389 162.54 133.65 163.107C132.912 163.674 120.87 162.54 119.848 162.036C118.826 161.532 119.848 147.483 119.848 147.483Z" fill="#4CC66E"/>
<path d="M119.337 148.428L123.029 149.121C124.165 149.31 125.301 149.562 126.437 149.814C127.005 149.94 127.573 150.066 128.141 150.192L129.561 150.507C130.356 150.696 131.208 150.885 132.003 151.137L132.401 151.263C132.628 151.326 132.514 151.326 132.458 151.263C132.401 151.2 132.401 151.137 132.514 151.326C132.458 151.2 132.628 151.515 132.514 151.326C132.571 151.389 132.571 151.515 132.571 151.578C133.139 153.657 133.026 156.114 132.969 158.256C132.969 159.39 132.855 160.524 132.742 161.658C132.685 162.036 132.628 162.414 132.571 162.792C132.514 163.044 132.571 162.855 132.514 162.918C132.458 162.981 131.89 163.359 132.628 162.792C132.855 162.603 133.082 162.477 133.366 162.351C133.082 162.414 133.821 162.351 133.366 162.351H132.912H132.174C132.117 162.351 132.06 162.351 131.946 162.351C130.867 162.351 129.788 162.225 128.709 162.162C126.494 161.973 124.278 161.784 122.12 161.469C121.779 161.406 121.438 161.343 121.041 161.28L120.87 161.217C120.7 161.217 121.154 161.343 120.984 161.217C120.814 161.091 120.53 161.028 120.927 161.28C121.495 161.658 120.984 161.343 121.041 161.343C121.098 161.343 120.927 161.028 121.041 161.406C120.984 161.28 120.984 161.154 120.927 161.028C120.87 160.65 120.814 160.335 120.814 159.957C120.7 157.374 120.757 154.791 120.927 152.271C120.984 150.633 121.098 148.995 121.268 147.357C121.382 145.971 118.598 146.349 118.485 147.546C118.087 151.641 117.917 155.736 117.974 159.831C117.974 160.587 118.03 161.406 118.258 162.099C118.542 162.855 119.223 162.981 119.905 163.107C122.006 163.485 124.165 163.674 126.323 163.863C128.482 164.115 130.64 164.241 132.798 164.115C133.65 164.052 134.616 163.863 135.07 162.918C135.354 162.099 135.525 161.217 135.525 160.272C135.752 157.626 135.752 154.98 135.525 152.334C135.468 151.515 135.354 150.444 134.9 149.814C134.502 149.247 133.707 149.121 133.139 148.995C129.05 147.861 124.846 147.168 120.7 146.412L120.359 146.349C119.678 146.223 118.939 146.538 118.542 147.168C118.201 147.987 118.769 148.302 119.337 148.428Z" fill="#4CC66E"/>
<path d="M123.597 126.126C123.597 126.126 133.707 123.039 136.774 128.016C139.842 132.993 137.286 147.168 132.969 149.436C128.652 151.704 122.006 150.066 120.643 142.695C119.28 135.324 121.211 127.386 123.597 126.126Z" fill="#000005"/>
<path d="M123.029 126.756C123.938 126.504 124.846 126.252 125.812 126.126C127.743 125.748 129.731 125.748 131.662 126.126C133.537 126.567 135.127 127.638 135.922 129.591C136.718 131.544 136.831 134.001 136.718 136.206C136.604 138.789 136.15 141.372 135.411 143.829C134.843 145.656 133.991 147.861 132.628 149.058L132.458 149.184C132.174 149.436 132.628 149.058 132.344 149.247C132.401 149.184 132.571 149.058 132.344 149.247L132.174 149.31C132.458 149.184 131.719 149.436 131.89 149.373C131.719 149.436 131.492 149.499 131.322 149.499C130.299 149.688 129.277 149.625 128.254 149.373C126.096 148.869 124.222 147.357 123.086 145.278C122.347 143.766 121.893 142.065 121.722 140.364C121.495 138.222 121.438 136.143 121.666 134.001C121.836 132.3 122.177 130.599 122.745 128.961C122.972 128.331 123.256 127.638 123.54 127.071C123.654 126.819 123.824 126.567 123.994 126.378C124.165 126.189 124.562 125.874 124.051 126.252C124.278 126.126 125.13 125.685 124.79 125.37C124.449 125.055 123.313 125.685 123.086 125.811C120.757 127.134 119.848 130.032 119.337 132.741C118.655 136.458 118.542 140.742 119.564 144.396C120.302 147.042 122.063 149.184 124.335 150.255C126.607 151.2 129.106 151.263 131.378 150.444C133.537 149.814 135.411 148.302 136.604 146.16C137.797 143.829 138.592 141.246 138.933 138.537C139.614 134.316 140.069 127.575 135.809 125.37C133.594 124.173 130.867 124.236 128.482 124.551C127.005 124.677 125.528 124.992 124.051 125.433C123.54 125.559 122.574 125.811 122.29 126.378C122.006 126.945 122.745 126.882 123.029 126.756Z" fill="#000005"/>
<path d="M140.694 183.834C140.694 183.834 120.246 181.062 122.745 174.258C122.745 174.258 117.462 172.683 120.814 168.651C120.814 168.651 114.566 165.69 113.884 162.414C113.202 159.138 116.156 157.878 118.314 159.768C120.473 161.658 125.585 164.241 128.879 163.422C128.879 163.422 127.232 161.28 125.755 160.776C124.278 160.272 120.7 156.933 123.71 154.161C127.459 150.759 143.25 155.988 145.749 167.832C145.749 167.706 149.27 177.786 140.694 183.834Z" fill="white"/>
<path d="M139.785 183.393L139.274 183.33L138.706 183.267L138.365 183.204H138.194H138.138C137.456 183.078 136.774 182.952 136.036 182.826L134.9 182.574C134.673 182.511 134.843 182.574 134.9 182.574L134.559 182.511L133.821 182.322L133.196 182.196L132.969 182.133C132.571 182.007 133.253 182.196 132.855 182.07C132.458 181.944 131.946 181.818 131.435 181.692H131.378L131.038 181.566L130.413 181.377C130.015 181.251 130.526 181.44 130.299 181.314L129.958 181.188L129.22 180.873C127.8 180.369 126.494 179.55 125.301 178.542C124.278 177.534 123.654 176.211 124.165 174.762C124.222 174.573 122.858 174.195 122.858 174.132L123.142 174.195C122.972 174.132 123.54 174.321 123.256 174.195C123.086 174.132 123.483 174.321 123.199 174.195L123.029 174.132C122.574 173.88 122.177 173.565 121.779 173.187C120.643 171.864 121.325 170.289 122.234 169.092C122.29 169.029 121.779 168.777 121.893 168.84L121.836 168.777L121.154 168.399C120.473 168.021 119.791 167.58 119.11 167.139C117.69 166.194 115.929 164.871 115.418 163.044C115.077 162.099 115.19 161.028 115.702 160.209C115.929 159.831 116.27 159.579 116.667 159.453C116.838 159.39 117.065 159.327 117.235 159.327C117.292 159.327 117.406 159.327 117.462 159.327C117.803 159.264 116.099 158.697 116.554 159.075C118.258 160.461 120.132 161.595 122.12 162.414C124.562 163.422 127.573 164.43 130.186 163.8C130.242 163.8 130.242 163.737 130.186 163.674C129.618 162.981 128.993 162.351 128.311 161.784C127.857 161.406 127.402 161.154 126.891 160.902C126.721 160.839 126.55 160.776 126.437 160.713C126.323 160.65 126.778 160.965 126.494 160.713C126.323 160.587 126.096 160.461 125.926 160.335C125.017 159.705 124.335 158.697 123.994 157.563C123.767 156.366 124.222 155.106 125.13 154.35C126.039 153.594 127.402 153.405 128.538 153.468C129.22 153.468 129.958 153.594 130.64 153.72C130.867 153.783 130.754 153.72 131.038 153.783C131.322 153.846 131.094 153.783 131.492 153.909C131.549 153.909 131.776 153.972 131.549 153.909L131.89 154.035L132.458 154.224C136.32 155.673 139.671 158.382 142.114 161.91C143.647 164.367 144.613 167.202 144.954 170.163C145.238 172.305 145.067 174.447 144.442 176.526C143.477 179.361 141.659 181.818 139.33 183.393C139.785 183.645 140.182 183.834 140.637 184.023C140.978 184.086 141.716 184.464 142.057 184.212C145.01 182.07 147.169 178.92 147.68 174.951C147.964 172.746 147.794 170.541 147.169 168.399C146.885 167.391 146.601 166.383 146.26 165.375C145.635 163.863 144.783 162.414 143.761 161.154C141.602 158.634 138.99 156.555 136.093 155.232C133.196 153.783 130.129 152.901 126.948 152.586C124.96 152.46 122.063 152.649 121.268 155.106C120.757 156.744 121.893 158.445 123.029 159.453C123.597 159.894 124.222 160.272 124.903 160.587C125.642 160.965 126.323 161.532 126.834 162.225C127.062 162.414 127.232 162.603 127.402 162.855C127.459 163.044 127.516 162.855 127.402 162.918C127.175 162.981 126.891 162.981 126.664 162.981C125.926 163.044 125.13 162.981 124.449 162.729C122.745 162.162 121.154 161.28 119.734 160.083C118.939 159.39 117.974 158.949 117.008 158.697C116.099 158.382 115.19 158.256 114.225 158.382C112.634 158.76 112.066 160.587 112.578 162.162C113.089 163.737 114.338 164.871 115.531 165.753C116.667 166.635 117.803 167.328 119.053 167.958C119.28 168.084 119.564 168.21 119.848 168.336L119.507 168.084C118.371 169.533 117.917 171.297 119.45 172.62C120.473 173.439 121.609 174.006 122.802 174.321L121.495 173.691C120.302 177.156 124.733 179.235 126.948 180.18C130.81 181.755 134.786 182.889 138.876 183.582C139.842 183.771 140.807 183.96 141.773 184.086C142.227 184.149 142.284 184.023 141.83 183.771C141.034 183.645 140.41 183.456 139.785 183.393Z" fill="#000005"/>
<path d="M134.275 162.54C133.366 162.792 132.401 162.792 131.435 162.603C130.413 162.414 129.39 162.162 128.368 162.036C128.141 162.036 127.914 162.099 127.743 162.225C127.402 162.414 127.118 162.603 126.778 162.855C126.664 162.918 125.812 163.737 126.153 163.8C127.289 163.926 128.368 164.241 129.447 164.367C130.583 164.556 131.719 164.493 132.798 164.115C133.423 163.863 134.048 163.485 134.502 162.918C134.559 162.855 134.843 162.603 134.73 162.477C134.616 162.351 134.332 162.54 134.275 162.54Z" fill="#000005"/>
<path d="M126.891 168.84C124.562 168.651 122.29 168.147 120.075 167.265C119.791 167.139 118.996 166.95 119.28 167.58C119.621 168.21 120.132 168.714 120.814 168.966C123.37 169.974 125.982 170.541 128.652 170.793C129.277 170.856 128.822 170.037 128.652 169.848C128.141 169.344 127.573 168.966 126.891 168.84Z" fill="#000005"/>
<path d="M125.301 173.817C124.903 173.817 124.506 173.817 124.108 173.817H124.449C123.881 173.754 123.37 173.691 122.858 173.502L123.199 173.628L122.802 173.502C122.461 173.376 122.12 173.313 121.779 173.439C121.495 173.502 121.268 173.691 121.154 174.006C120.984 174.699 121.609 175.392 122.12 175.581C123.37 176.022 124.733 176.211 126.039 176.148C126.323 176.148 126.664 176.022 126.834 175.77C127.005 175.518 127.062 175.203 126.948 174.951C126.664 174.258 125.982 173.817 125.301 173.817Z" fill="#000005"/>
<path d="M135.866 130.977C135.809 131.229 134.957 131.355 134.673 131.418C134.105 131.544 133.537 131.67 132.969 131.67C131.89 131.733 130.754 131.607 129.731 131.355C128.027 130.914 126.323 130.158 125.642 128.268C125.13 126.945 122.404 127.386 123.086 129.024C124.222 131.859 127.175 133.056 129.731 133.623C131.265 134.001 132.798 134.064 134.332 133.875C135.127 133.749 135.922 133.623 136.661 133.308C137.342 133.056 138.251 132.741 138.535 131.985C139.046 130.473 136.32 129.591 135.866 130.977Z" fill="white"/>
<path d="M135.014 111.573L133.878 115.794L133.31 117.936C133.082 118.755 132.912 119.511 133.253 120.33C133.707 121.338 134.559 121.653 135.525 121.653H137.513C138.819 121.653 140.182 121.653 141.489 121.653C142.057 121.59 142.454 121.086 142.398 120.456C142.398 120.33 142.398 120.267 142.341 120.204C142.17 119.448 141.546 118.818 140.864 118.755C139.728 118.755 138.649 118.755 137.513 118.755H135.866H135.014H134.502C134.673 118.755 134.843 118.818 134.957 118.944L135.411 119.637C135.468 119.826 135.525 120.015 135.468 120.204V120.078C135.525 119.952 135.525 119.763 135.582 119.574L135.809 118.692L136.32 116.802L137.342 113.022C137.456 112.203 137.115 111.447 136.434 111.069C135.979 110.754 135.354 110.88 135.07 111.384C135.07 111.384 135.014 111.51 135.014 111.573Z" fill="#000005"/>
<path d="M144.67 120.519C146.487 121.086 148.362 121.59 150.236 122.094C151.145 122.346 152.11 122.535 153.076 122.724C153.928 122.913 154.894 122.976 155.348 121.968C155.632 121.149 155.746 120.267 155.632 119.385C155.632 118.44 155.575 117.495 155.575 116.55C155.518 114.786 155.518 112.959 156.2 111.321C156.484 110.628 156.03 109.935 155.518 109.557C155.121 109.305 154.098 108.927 153.814 109.62C152.394 112.896 153.303 116.361 153.019 119.826C153.019 120.015 152.962 120.267 152.906 120.456H153.19C153.076 120.456 152.962 120.393 152.849 120.393L152.224 120.267C151.372 120.078 150.463 119.889 149.611 119.637C147.85 119.196 146.146 118.755 144.442 118.188C144.045 117.999 143.534 118.251 143.363 118.692C143.306 118.818 143.306 118.944 143.306 119.07C143.477 119.826 144.045 120.393 144.67 120.519Z" fill="#000005"/>
<path d="M151.372 162.162C152.792 165.69 154.439 169.218 155.291 172.998C156.143 176.589 155.632 180.432 153.871 183.645C153.19 184.842 155.859 185.787 156.484 184.716C158.358 181.44 158.983 177.471 158.245 173.691C157.45 169.722 155.689 166.005 154.212 162.351C153.928 161.721 153.303 161.28 152.622 161.343C152.167 161.217 151.088 161.469 151.372 162.162Z" fill="#000005"/>
<path d="M152.167 178.857V177.282C152.167 177.156 152.11 176.967 151.997 176.841C151.94 176.715 151.826 176.589 151.656 176.463C151.486 176.337 151.372 176.274 151.145 176.211C150.974 176.148 150.747 176.085 150.577 176.085C150.236 176.085 149.895 176.148 149.668 176.4L149.498 176.652C149.384 176.841 149.327 177.03 149.384 177.219V178.794C149.384 178.983 149.441 179.109 149.554 179.235C149.611 179.361 149.725 179.487 149.895 179.613C150.066 179.739 150.179 179.802 150.406 179.865C150.918 180.054 151.429 179.991 151.883 179.676L152.054 179.424C152.167 179.235 152.167 179.046 152.167 178.857Z" fill="#000005"/>
<path d="M145.578 162.729C151.826 163.359 158.472 159.516 161.198 153.153C161.766 151.767 159.04 152.019 158.642 152.964C156.484 158.004 151.77 161.469 146.714 160.902C146.033 160.839 145.351 161.091 144.897 161.721C144.499 162.351 145.067 162.666 145.578 162.729Z" fill="#000005"/>
<path d="M84.5752 143.199C89.6304 139.797 95.4808 137.97 101.388 137.97C101.956 137.97 102.694 137.592 102.638 136.836C102.581 136.08 101.672 135.639 101.047 135.639C94.6288 135.576 88.3808 137.466 82.8712 141.183C81.3376 142.191 83.3824 143.955 84.5752 143.199Z" fill="#000005"/>
<path d="M85.5976 136.269H85.768C86.2224 136.269 87.188 136.08 87.188 135.45C87.188 134.82 86.1656 134.631 85.768 134.631H85.5976C85.1432 134.631 84.1776 134.82 84.1776 135.513C84.1776 136.206 85.2 136.269 85.5976 136.269H85.768C86.2224 136.269 87.188 136.08 87.188 135.45C87.188 134.82 86.1656 134.631 85.768 134.631H85.5976C85.1432 134.631 84.1776 134.82 84.1776 135.513C84.1776 136.206 85.2 136.269 85.5976 136.269Z" fill="#000005"/>
<path d="M233.107 183.015H51.688C51.2336 183.015 50.7224 183.015 50.2112 183.015C46.292 183.015 42.7704 180.243 41.5208 176.148C40.7824 173.628 41.0664 170.604 41.0664 167.958V41.202C41.0664 39.123 41.0096 37.044 41.0664 35.028C41.18 29.169 45.6104 24.57 50.7792 24.507H229.074C230.608 24.507 232.142 24.507 233.675 24.507C237.765 24.507 241.4 27.531 242.479 31.941C242.706 33.138 242.82 34.398 242.763 35.658V170.919C242.763 171.423 242.763 171.864 242.763 172.368C242.763 178.29 238.446 183.015 233.107 183.015C231.46 183.015 232.426 185.913 233.789 185.913C239.355 185.85 244.07 181.44 245.092 175.392C245.262 174.195 245.319 172.998 245.262 171.801V36.099C245.319 34.398 245.149 32.697 244.694 31.059C243.047 25.452 238.39 21.672 233.05 21.609C231.687 21.609 230.324 21.609 228.961 21.609H51.12C50.6088 21.609 50.0976 21.609 49.6432 21.609C44.0768 21.987 39.5328 26.649 38.7944 32.76C38.624 35.217 38.5672 37.737 38.6808 40.194V167.58C38.6808 170.667 38.4536 174.006 39.4192 176.967C41.2368 182.259 45.7808 185.85 50.8928 185.913C51.2904 185.913 51.688 185.913 52.0856 185.913H233.846C235.493 185.913 234.47 183.015 233.107 183.015Z" fill="#4CC66E"/>
<path d="M51.0632 41.706V37.674C51.0632 36.981 51.0064 36.351 51.0632 35.658C51.0632 35.532 51.0632 35.532 51.12 35.469C51.2336 35.406 51.404 35.343 51.5176 35.343C51.6312 35.343 51.688 35.28 51.8016 35.28C51.9152 35.28 51.9152 35.28 51.8584 35.28C51.688 35.28 51.5176 35.217 51.3472 35.154C51.2336 35.154 51.1768 35.091 51.0632 35.028L51.2336 35.091C51.1768 35.028 51.1768 35.028 51.2336 35.091C51.404 35.217 51.5744 35.343 51.688 35.532C51.972 35.91 52.1992 36.477 51.9152 36.918C51.5744 37.296 51.12 37.548 50.6656 37.674C50.1544 37.926 49.6432 38.115 49.132 38.241C48.564 38.43 49.3592 38.745 49.5864 38.808C49.9272 38.934 50.268 38.997 50.6656 39.06C50.9496 39.123 51.2336 39.123 51.5176 39.06C52.0288 38.934 52.54 38.745 53.0512 38.493C53.5056 38.304 53.96 38.052 54.3576 37.8C54.7552 37.548 54.9256 37.044 54.7552 36.54C54.5848 36.099 54.3576 35.721 53.96 35.406C53.4488 35.028 52.8808 34.713 52.256 34.587C51.4608 34.335 50.6088 34.272 49.7568 34.335C49.4728 34.335 49.132 34.398 48.848 34.461C48.6208 34.524 48.3368 34.524 48.28 34.839C48.2232 35.154 48.2232 35.406 48.28 35.721V41.013C48.28 41.202 48.564 41.265 48.6776 41.328C48.9616 41.454 49.3024 41.58 49.6432 41.643C49.7568 41.769 51.0632 42.021 51.0632 41.706Z" fill="#000005"/>
<path d="M50.0976 39.501L52.256 42.966C52.4832 43.281 52.824 43.533 53.1648 43.596C53.5056 43.722 53.9032 43.659 54.244 43.47C54.528 43.281 54.7552 43.029 54.812 42.651C54.8688 42.273 54.7552 41.895 54.5848 41.643L52.4264 38.178C51.972 37.548 51.12 37.359 50.4384 37.737C50.1544 37.926 49.9272 38.178 49.8704 38.556C49.8136 38.871 49.9272 39.249 50.0976 39.501Z" fill="#000005"/>
<path d="M59.1856 33.831H58.0496C57.5384 33.768 57.0272 33.831 56.516 33.957C56.1184 34.02 55.7776 34.272 55.5504 34.65C55.4368 34.902 55.38 35.154 55.38 35.406L55.3232 36.729C55.2096 38.493 55.2096 40.257 55.2096 42.084C55.2096 42.336 55.4936 42.588 55.664 42.651C56.0048 42.777 56.3456 42.84 56.6864 42.777L57.5384 42.714H57.7656C58.22 42.714 58.7312 42.777 59.1856 42.84C59.64 42.903 60.6624 42.651 60.8328 42.021C61.0032 41.391 60.1512 41.076 59.7536 41.076C59.356 41.076 58.788 40.95 58.2768 40.95C57.652 40.95 57.084 41.013 56.4592 41.013L57.9928 41.706C57.9928 40.509 57.9928 39.375 57.9928 38.178C57.9928 37.611 58.0496 37.044 58.0496 36.477C58.0496 36.225 58.0496 35.91 58.1064 35.658C58.1064 35.406 58.1064 35.154 58.1632 34.902L57.8224 35.343L57.8792 35.28L57.2544 35.595H57.3112L56.5728 35.721C57.1976 35.721 57.8224 35.721 58.4472 35.721C59.072 35.721 59.924 35.595 60.0944 34.902C60.2648 34.209 59.64 33.894 59.1856 33.831Z" fill="#000005"/>
<path d="M57.368 39.438H60.3216C60.7192 39.438 61.06 39.375 61.4008 39.123C61.6848 38.934 61.912 38.619 61.9688 38.304C62.0256 37.989 61.912 37.611 61.7416 37.359C61.5144 37.107 61.1736 36.918 60.8328 36.918H57.8792C57.4816 36.918 57.1408 36.981 56.8 37.233C56.516 37.422 56.2888 37.737 56.232 38.052C56.1752 38.367 56.2888 38.745 56.4592 38.997C56.6864 39.249 57.0272 39.438 57.368 39.438Z" fill="#000005"/>
<path d="M68.444 34.398C67.308 33.642 65.9448 33.516 64.6952 34.083C63.6728 34.587 62.9344 35.595 62.6504 36.792C62.2528 37.926 62.2528 39.186 62.5936 40.383C62.9344 41.454 63.7296 42.336 64.6952 42.714C66.0584 43.281 67.592 42.903 68.5576 41.706C69.012 41.139 68.5576 40.383 67.9896 40.131C67.308 39.816 66.5696 40.005 66.0584 40.635C66.2856 40.383 66.0584 40.635 66.0016 40.635C65.9448 40.635 65.9448 40.698 66.1152 40.572L65.9448 40.635C65.9448 40.572 66.2856 40.509 65.9448 40.635C65.8312 40.635 65.8312 40.635 65.9448 40.635C66.0584 40.635 66.0584 40.635 65.9448 40.635H65.888C66.1152 40.635 66.172 40.635 66.0584 40.635C65.7176 40.572 66.2856 40.761 66.0584 40.635H66.0016C65.888 40.572 65.888 40.572 66.0584 40.698C66.0016 40.635 65.888 40.572 65.8312 40.572C65.604 40.446 65.9448 40.761 65.7744 40.572C65.7176 40.509 65.6608 40.383 65.604 40.32C65.5472 40.257 65.4336 39.942 65.5472 40.194L65.4336 39.942C65.3768 39.816 65.3768 39.753 65.32 39.69C65.32 39.627 65.2632 39.564 65.2632 39.501C65.2632 39.627 65.2632 39.627 65.2632 39.501C65.2064 39.249 65.2064 38.997 65.2064 38.745C65.2064 38.619 65.2064 38.493 65.2064 38.367C65.2064 38.115 65.2064 38.43 65.2064 38.178C65.2632 37.926 65.32 37.611 65.3768 37.359C65.4336 37.17 65.4904 36.981 65.604 36.729C65.6608 36.603 65.6608 36.603 65.604 36.729L65.6608 36.603C65.7176 36.477 65.7744 36.414 65.8312 36.288C65.9448 36.099 65.6608 36.414 65.888 36.225L66.0016 36.099C66.0584 36.036 66.0584 36.036 65.888 36.162C65.9448 36.099 66.0584 36.036 66.1152 36.036C65.9448 36.099 65.888 36.099 66.0584 36.036L66.2288 35.973C65.888 36.036 66.2288 36.036 66.2288 35.973C65.888 35.973 66.5696 35.91 66.2288 35.973C66.0016 35.847 66.5696 35.973 66.2288 35.973C66.2856 35.973 66.6832 36.225 66.3424 36.036C66.9672 36.477 67.7624 36.414 68.3304 35.973C68.728 35.658 68.8416 35.091 68.5576 34.65C68.6144 34.524 68.5008 34.461 68.444 34.398Z" fill="#000005"/>
<path d="M72.988 37.17C72.3632 37.422 71.9656 38.115 71.9656 38.871C71.9088 39.249 72.0792 39.627 72.3632 39.816C72.5336 39.942 72.7608 40.005 72.9312 40.005C73.2152 40.068 73.4424 40.068 73.7264 40.005C74.0104 39.942 74.2376 39.753 74.3512 39.501C74.4648 39.186 74.408 38.808 74.2376 38.493C74.0104 38.115 73.6696 37.8 73.3288 37.611C73.1584 37.485 72.9312 37.485 72.7608 37.611C72.6472 37.737 72.5904 37.863 72.5336 37.989C72.4768 38.241 72.42 38.556 72.42 38.808C72.42 38.934 72.42 39.06 72.4768 39.123C72.5336 39.186 72.5904 39.249 72.704 39.249C73.0448 39.375 73.4424 39.312 73.7264 39.123C74.0104 38.808 74.0672 38.304 73.7832 37.989C73.7264 37.926 73.6128 37.8 73.4992 37.8" fill="#4CC66E"/>
<path d="M72.8744 36.036C72.4768 36.162 72.0792 36.414 71.7384 36.729C71.4544 37.044 71.1704 37.422 71 37.8C70.8296 38.115 70.7728 38.43 70.716 38.745C70.6592 39.06 70.6592 39.375 70.716 39.69C70.7728 39.879 70.8296 40.068 70.8864 40.257C71 40.446 71.1136 40.635 71.284 40.761C71.6248 41.013 72.0224 41.202 72.42 41.202L73.1016 41.265C73.3288 41.265 73.6128 41.265 73.84 41.202C74.2944 41.076 74.692 40.887 75.0328 40.572C75.4304 40.194 75.7144 39.69 75.828 39.123C75.8848 38.934 75.8848 38.682 75.828 38.493C75.7712 38.304 75.7144 38.052 75.6008 37.863C75.4304 37.548 75.26 37.296 74.976 37.044C74.7488 36.792 74.4648 36.603 74.1808 36.477C73.6128 36.225 72.9312 36.225 72.3632 36.54C71.9656 36.792 71.6816 37.107 71.4544 37.485C71.3408 37.674 71.284 37.926 71.2272 38.115C71.1136 38.493 71.1136 38.871 71.1136 39.249C71.1136 39.564 71.2272 39.816 71.3976 40.068C71.6248 40.32 71.852 40.446 72.136 40.509C72.5904 40.635 73.0448 40.635 73.4992 40.509C73.84 40.383 74.124 40.257 74.408 40.005C74.692 39.816 74.8624 39.501 75.0328 39.186C75.3168 38.682 75.3168 38.115 75.1464 37.611C75.0896 37.422 74.976 37.233 74.8056 37.044C74.6352 36.855 74.4648 36.729 74.2944 36.666C74.0104 36.54 73.6128 36.54 73.3288 36.603C72.988 36.729 72.6472 36.918 72.42 37.233C72.1928 37.485 72.0792 37.863 72.136 38.178C72.1928 38.493 72.3632 38.745 72.6472 38.934L72.7608 38.997L72.5336 38.808C72.5904 38.871 72.6472 38.934 72.704 38.997L72.5336 38.745C72.5904 38.808 72.6472 38.934 72.6472 38.997L72.5904 38.682C72.5904 38.745 72.5904 38.871 72.5904 38.934V38.619C72.5904 38.682 72.5904 38.808 72.5336 38.871L72.6472 38.556C72.6472 38.619 72.5904 38.682 72.5336 38.745L72.704 38.43C72.6472 38.493 72.6472 38.493 72.5904 38.556L72.8176 38.304C72.7608 38.367 72.7608 38.367 72.704 38.43L73.0448 38.178L72.9312 38.241L73.272 38.115C73.2152 38.115 73.1584 38.178 73.1016 38.178L73.4424 38.115C73.3288 38.115 73.272 38.115 73.1584 38.115H73.4992C73.3856 38.115 73.272 38.115 73.1016 38.052L73.3856 38.178L73.272 38.115L73.4992 38.304C73.4424 38.304 73.4424 38.241 73.4424 38.241L73.6128 38.493V38.43L73.6696 38.745C73.6696 38.682 73.6696 38.556 73.6696 38.493V38.808C73.6696 38.493 73.6696 38.241 73.7264 37.926L73.6128 38.241C73.6128 38.178 73.6696 38.115 73.6696 38.052L73.4992 38.367L73.556 38.304L73.3288 38.556L73.3856 38.493L73.0448 38.745L73.1016 38.682L72.7608 38.808H72.8744L72.5336 38.871H72.6472H72.3064C72.3632 38.871 72.42 38.871 72.4768 38.934L72.1928 38.808C72.3632 38.871 72.4768 38.934 72.6472 39.06L72.42 38.871C72.5904 38.997 72.7608 39.186 72.9312 39.375L72.7608 39.123C72.8744 39.312 72.9312 39.438 72.988 39.627L72.9312 39.312C72.988 39.438 72.988 39.564 72.988 39.69V39.375C72.988 39.438 72.988 39.501 72.9312 39.564L73.0448 39.249C73.0448 39.312 72.988 39.375 72.988 39.438L73.272 39.06C73.2152 39.123 73.2152 39.123 73.1584 39.186L73.3856 38.934L73.272 39.06L73.6128 38.808C73.556 38.871 73.4992 38.871 73.3856 38.934L73.7264 38.808C73.6696 38.871 73.556 38.871 73.4992 38.871L73.84 38.808C73.6696 38.808 73.556 38.808 73.3856 38.808H73.7264C73.4992 38.808 73.272 38.808 73.1016 38.745L73.3856 38.871C73.3288 38.871 73.272 38.808 73.2152 38.745L73.4424 38.934C73.3856 38.871 73.3288 38.808 73.272 38.745L73.4424 38.997C73.3856 38.871 73.3288 38.808 73.3288 38.682L73.3856 38.997C73.3288 38.808 73.3288 38.682 73.3288 38.493V38.808C73.3288 38.619 73.3856 38.43 73.4424 38.241L73.3288 38.556C73.3856 38.43 73.4424 38.241 73.4992 38.115L73.3288 38.43C73.3856 38.304 73.4992 38.241 73.556 38.115L73.3288 38.367C73.3856 38.304 73.4992 38.241 73.556 38.178L73.2152 38.43C73.272 38.367 73.3856 38.367 73.4424 38.304L73.1016 38.43H73.1584C73.4992 38.304 73.84 38.115 74.0672 37.8C74.2944 37.548 74.408 37.17 74.3512 36.855C74.2944 36.54 74.124 36.288 73.84 36.099C73.556 35.91 73.2152 35.91 72.8744 36.036Z" fill="#4CC66E"/>
<path d="M230.551 32.13L236.629 38.178C236.856 38.43 237.14 38.682 237.424 38.871C237.424 38.871 237.708 39.123 237.822 39.06C237.935 38.997 236.856 37.926 236.856 37.863L230.778 31.815C230.551 31.563 230.267 31.311 229.983 31.122C229.983 31.122 229.699 30.87 229.586 30.933C229.472 30.996 230.551 32.13 230.551 32.13Z" fill="#000005"/>
<path d="M230.949 38.997C232.994 36.792 234.868 34.398 236.515 31.878C236.856 31.374 235.947 30.996 235.663 30.933C235.322 30.807 234.925 30.744 234.584 30.807C234.357 30.807 234.016 30.87 233.902 31.059C232.198 33.579 230.324 35.973 228.336 38.178C227.938 38.619 228.961 39.06 229.188 39.123C229.642 39.249 230.494 39.438 230.949 38.997Z" fill="#000005"/>
<path d="M107.522 70.938V63.756C107.522 62.874 107.579 64.512 106.614 64.323C106.898 64.323 107.182 64.323 107.466 64.323H108.261C108.829 64.323 109.397 64.323 109.908 64.386L110.76 64.449L111.214 64.512C111.669 64.575 110.93 64.512 111.442 64.512C112.01 64.575 112.578 64.638 113.202 64.764C113.827 64.89 114.736 64.638 114.963 63.882C115.077 63.189 114.736 62.559 114.111 62.37C114.054 62.37 113.998 62.37 113.941 62.37C112.578 62.118 111.158 61.992 109.794 61.929C109.113 61.866 108.488 61.866 107.806 61.866C107.125 61.866 106.216 61.803 105.534 62.118C105.08 62.37 104.739 62.874 104.682 63.504C104.682 63.819 104.682 64.071 104.682 64.386V71.064C104.682 72.639 107.522 72.576 107.522 70.938Z" fill="#4CC66E"/>
<path d="M103.49 136.521L103.433 141.183C103.433 141.939 103.376 142.695 103.433 143.388C103.49 144.081 103.887 144.648 104.455 144.774C105.08 144.963 105.705 145.089 106.33 145.152L108.488 145.53L112.634 146.223C113.316 146.349 113.998 146.223 114.566 145.845C115.077 145.404 114.282 145.152 113.998 145.089L110.192 144.459L108.261 144.144L107.352 144.018L106.841 143.955C106.898 143.955 106.443 143.892 106.614 143.892C106.159 143.766 106.216 143.199 106.216 142.758C106.216 142.002 106.216 141.246 106.216 140.553L106.273 136.269C106.273 135.765 105.08 135.765 104.796 135.828C104.512 135.891 103.49 136.017 103.49 136.521Z" fill="#4CC66E"/>
<path d="M175.171 145.908H183.237C184.202 145.908 185.395 146.16 186.19 145.404C186.986 144.648 186.702 143.514 186.645 142.506L186.474 139.671L186.077 133.749C186.02 132.993 185.452 132.489 184.827 132.552H184.77C184.202 132.615 183.237 133.119 183.294 133.938L183.634 139.356L183.805 142.002L183.862 143.325L183.918 143.955V144.27C183.918 144.459 183.918 144.459 183.918 144.333L184.316 143.766L184.202 143.829L184.827 143.451C185.111 143.388 184.6 143.451 184.543 143.451H180.226H175.285C174.546 143.451 173.922 144.018 173.808 144.837C173.751 145.53 174.49 145.908 175.171 145.908Z" fill="#4CC66E"/>
<path d="M173.865 64.575H181.249C181.59 64.575 181.703 64.701 181.135 64.197C180.567 63.693 180.681 63.756 180.681 64.26L180.51 73.647C180.51 74.403 181.249 74.844 181.874 74.844C182.498 74.844 183.35 74.655 183.35 73.836L183.464 68.481L183.521 65.772C183.521 65.016 183.691 64.008 183.407 63.315C183.01 62.37 182.044 62.244 181.249 62.244H174.035C173.467 62.244 172.615 62.433 172.558 63.252C172.502 64.071 173.297 64.575 173.865 64.575Z" fill="#4CC66E"/>
</svg>
