<svg width="239" height="239" viewBox="0 0 239 239" fill="none" xmlns="http://www.w3.org/2000/svg">
<path d="M137.855 127.1C137.855 127.1 140.341 118.783 130.207 110.657C120.074 102.531 87.6651 106.259 92.3973 132.597C92.3973 132.597 76.3843 140.914 81.4511 149.136C86.5179 157.358 98.6591 153.534 95.8389 149.662C93.0187 145.79 85.9921 157.549 95.1219 160.034C104.252 162.52 122.607 154.394 117.731 151.239C112.856 148.084 110.227 167.061 124.949 163.906C139.672 160.751 144.069 145.455 139.194 146.507C134.318 147.559 133.936 160.895 144.977 154.059C156.019 147.224 149.805 129.825 137.855 127.1Z" fill="white"/>
<path d="M138.954 126.766C139.241 125.523 139.337 124.28 139.146 122.989C138.763 119.835 137.52 116.871 135.513 114.385C133.649 112.043 131.354 109.797 128.63 108.506C126.718 107.598 124.71 107.024 122.655 106.69C117.779 105.877 112.808 106.164 108.076 107.502C103.2 108.841 98.4679 111.374 95.1697 115.341C91.6325 119.596 90.4375 125.093 90.9633 130.542C91.0589 131.354 91.1545 132.215 91.2979 133.027L91.9671 132.31C89.7683 133.458 87.6651 134.844 85.7053 136.421C82.9329 138.62 79.6825 141.775 79.3479 145.551C79.0133 149.853 82.9329 153.295 86.7569 154.251C88.7167 154.729 90.7243 154.681 92.6841 154.155C94.2137 153.725 96.0779 152.96 96.9383 151.622C97.6075 150.666 97.3685 149.327 96.4125 148.658C95.1697 147.702 93.2099 148.658 92.1583 149.471C89.8639 151.239 88.6689 154.92 90.0073 157.597C91.9193 161.325 97.3685 161.277 100.953 160.895C105.59 160.417 110.083 159.078 114.242 156.975C115.819 156.258 117.253 155.254 118.544 154.059C119.165 153.39 120.026 152.339 119.5 151.383C118.926 150.522 117.875 150.044 116.823 150.283C115.58 150.474 114.481 151.239 113.812 152.291C112.569 154.298 112.521 156.975 113.142 159.222C113.907 162.042 116.249 164.145 119.117 164.623C121.316 165.053 123.658 164.671 125.809 164.097C128.391 163.428 130.876 162.377 133.123 160.943C136.564 158.792 139.385 155.78 141.153 152.1C141.775 150.905 142.109 149.614 142.205 148.276C142.205 147.463 142.109 146.507 141.344 146.077C140.197 145.408 138.429 146.172 137.473 146.794C136.373 147.559 135.513 148.658 135.13 149.949C134.413 152.147 134.7 155.35 137.186 156.258C138.954 156.927 141.01 156.354 142.683 155.637C145.025 154.729 147.128 153.247 148.849 151.383C154.824 144.595 151.096 133.936 144.499 129.108C142.778 127.817 140.771 126.957 138.715 126.431C138.142 126.383 137.616 126.574 137.138 126.909C136.899 127.052 136.469 127.483 136.947 127.578C144.547 129.347 150.379 137.473 149.566 145.264C149.184 149.136 146.841 152.578 143.352 154.346C142.635 154.729 141.918 155.015 141.153 155.207C140.58 155.35 139.958 155.302 139.432 155.159C138.429 154.824 137.664 154.059 137.377 153.103C137.042 152.052 136.995 150.905 137.234 149.805C137.473 148.754 137.951 147.845 138.668 147.081C138.907 146.889 138.62 147.081 138.811 146.985C138.859 146.985 138.907 146.937 138.907 146.937C138.572 147.128 138.763 146.985 138.859 146.937C138.524 147.081 138.715 146.985 138.811 146.985C138.476 147.081 139.146 146.937 138.763 146.985C138.811 146.985 139.098 146.985 138.859 146.985C138.954 146.985 139.002 146.985 139.098 147.033C138.954 146.985 139.241 147.081 139.098 147.033L139.193 147.081C139.289 147.128 139.337 147.176 139.385 147.224C139.863 147.606 140.006 148.515 139.958 149.184C139.767 151.956 138.094 154.585 136.373 156.641C133.792 159.7 130.35 161.946 126.526 163.046C123.515 163.906 119.93 164.097 117.397 161.851C115.628 160.273 114.863 157.74 114.959 155.446C114.959 154.442 115.198 153.39 115.58 152.482C115.724 152.147 115.915 151.813 116.154 151.478L116.249 151.383C116.106 151.526 116.202 151.43 116.202 151.43C116.202 151.43 116.536 151.239 116.249 151.383C116.154 151.43 116.488 151.239 116.249 151.383C116.441 151.287 115.963 151.526 116.106 151.43C116.249 151.335 115.771 151.526 115.963 151.478C115.915 151.526 115.819 151.526 115.771 151.526C116.01 151.574 115.628 151.478 115.867 151.526C116.01 151.526 116.154 151.574 116.249 151.622C116.632 151.765 116.966 152.004 117.205 152.339C117.397 152.625 117.444 153.008 117.301 153.342C117.253 153.534 117.158 153.677 117.062 153.82C116.919 154.012 116.775 154.203 116.584 154.394C116.154 154.824 115.676 155.207 115.15 155.541C114.529 155.971 113.859 156.354 113.19 156.641C111.565 157.453 109.844 158.075 108.076 158.6C104.443 159.652 100.38 160.417 96.6515 159.652C94.9785 159.317 93.2577 158.553 92.3017 157.023C91.6325 155.78 91.4413 154.346 91.7759 152.96C91.9193 152.291 92.1583 151.669 92.4929 151.096C92.7797 150.57 93.1143 150.14 93.4967 149.71C93.5923 149.614 93.6879 149.518 93.7835 149.471C93.5923 149.614 94.1659 149.327 93.7835 149.471C94.0703 149.375 93.6401 149.518 93.5923 149.518C93.8791 149.423 93.4011 149.518 93.5445 149.518C93.6879 149.518 93.4967 149.471 93.7357 149.518C93.8313 149.518 93.8791 149.566 93.9269 149.566C94.1181 149.662 94.3093 149.805 94.4527 149.949C94.7873 150.283 94.9785 150.761 94.9785 151.239C94.9307 151.669 94.7873 152.1 94.4527 152.386C94.4527 152.386 94.2615 152.578 94.2137 152.625C94.0225 152.769 94.3093 152.578 94.2137 152.625L94.0225 152.721C93.9747 152.769 93.7357 152.864 93.9747 152.769L93.7835 152.864C93.5445 153.008 93.7357 152.912 93.7835 152.864L93.4489 153.008C93.4011 153.008 93.2577 153.103 93.4967 153.008L93.2099 153.103C93.1621 153.103 92.7319 153.247 92.9231 153.199C92.5407 153.295 92.1583 153.342 91.7759 153.39C87.9041 153.725 84.1757 151.813 82.2637 148.467C80.4473 145.264 81.9291 141.87 84.1279 139.337C86.2311 137.043 88.6689 135.083 91.3457 133.553L91.6325 133.362C91.2979 133.553 91.6803 133.314 91.7759 133.314L92.2061 133.075L92.6363 132.836C92.8753 132.741 93.3533 132.454 93.3055 132.119C92.3495 126.766 92.7797 121.077 95.8867 116.441C96.5081 115.485 97.2251 114.624 98.0377 113.812C99.6151 112.234 101.431 110.944 103.439 109.988L103.774 109.844C103.535 109.94 103.917 109.797 103.965 109.749C104.252 109.605 104.538 109.51 104.873 109.366C105.208 109.223 105.399 109.175 105.686 109.08C105.733 109.08 105.925 108.984 105.686 109.08L105.877 109.032L106.307 108.888C108.458 108.219 110.657 107.741 112.903 107.598C115.15 107.407 117.397 107.454 119.595 107.741C121.603 107.98 123.563 108.458 125.475 109.223C127.721 110.179 129.729 111.613 131.402 113.429C134.844 116.919 137.759 122.225 136.612 127.291C136.612 127.387 136.564 127.435 136.564 127.53C136.421 127.961 137.377 127.722 137.52 127.674C138.094 127.483 138.811 127.196 138.954 126.766Z" fill="#000005"/>
<path d="M60.8014 121.412C60.8014 121.412 65.199 105.877 60.8492 105.447C56.4994 105.017 54.4918 113.047 54.4918 113.047C54.4918 113.047 45.6966 96.9384 42.4462 97.751C39.1958 98.5636 43.928 112.712 43.928 112.712C43.928 112.712 35.563 98.8026 33.1252 102.005C30.6874 105.208 37.3316 115.485 37.3316 115.485C37.3316 115.485 30.9742 108.41 29.4924 111.183C28.0106 113.955 42.7808 137.951 42.7808 137.951C42.7808 137.951 53.966 137.09 62.809 127.435C62.331 125.379 61.614 123.372 60.8014 121.412Z" fill="white"/>
<path d="M61.9009 121.842C63.0003 118.257 63.6695 114.529 63.9085 110.8C64.0041 108.984 64.0041 106.594 62.4267 105.351C61.3751 104.586 60.0845 104.395 58.8417 104.825C57.6467 105.256 56.5951 106.068 55.8781 107.12C54.6831 108.793 53.8705 110.657 53.3447 112.665L55.5435 113.095C54.6353 111.422 53.6793 109.797 52.6755 108.171C51.0025 105.351 49.1383 102.627 47.0351 100.093C46.2225 99.0416 45.2187 98.1812 44.1193 97.4642C43.1633 96.9384 41.7293 96.556 40.8689 97.4642C40.1041 98.2768 40.1041 99.6152 40.1519 100.667C40.2475 102.244 40.4387 103.774 40.8211 105.303C41.3469 107.789 42.0161 110.275 42.8287 112.665L45.0275 112.712C44.2149 111.326 43.3545 110.036 42.4463 108.697C40.9167 106.498 39.2915 104.252 37.3317 102.483C35.9933 101.24 33.1731 99.5674 31.8825 101.766C31.3089 102.77 31.4045 104.108 31.5957 105.16C31.9303 106.642 32.4083 108.124 33.0297 109.51C33.9857 111.661 35.0851 113.668 36.3757 115.628L38.3355 115.246C37.5707 114.385 36.7103 113.573 35.8499 112.808C34.5593 111.661 33.0775 110.418 31.4045 109.892C30.1617 109.51 28.2975 109.701 28.2019 111.326C28.2019 112.282 28.4409 113.238 28.8233 114.099C29.9227 117.206 31.5479 120.217 33.0775 123.133C34.7983 126.383 36.6147 129.538 38.4789 132.693C39.5305 134.509 40.6299 136.326 41.7771 138.142C42.1117 138.524 42.5897 138.763 43.1155 138.763C45.5533 138.524 47.8955 137.951 50.1899 137.09C52.4843 136.278 54.6353 135.226 56.7385 133.936C59.3197 132.406 61.6619 130.446 63.7173 128.2C63.9563 128.008 64.0519 127.674 63.9085 127.387C63.8129 126.957 63.6695 126.527 63.5739 126.096C63.0959 124.519 62.5223 122.942 61.9009 121.46C61.6141 120.934 61.0405 120.647 60.4669 120.647C60.0367 120.647 59.5109 120.934 59.7021 121.412C60.2757 122.798 60.8015 124.232 61.2795 125.714C61.4707 126.335 61.6141 126.766 61.7097 127.244L61.8531 126.861C57.0731 132.071 50.7157 135.656 43.7369 136.995C43.3545 137.043 43.0199 137.138 42.6375 137.186C42.4941 137.186 41.9683 137.234 42.4941 137.186L43.8325 137.807C43.5935 137.425 43.4023 137.09 43.1633 136.756C43.3067 136.995 43.1155 136.66 43.0677 136.612L42.9243 136.326L42.4941 135.609L41.5381 133.983C39.8173 131.068 38.0965 128.152 36.4713 125.188C34.8461 122.225 33.2209 119.165 31.8347 116.011C31.5957 115.437 31.3567 114.863 31.1177 114.242C31.0221 114.003 30.9265 113.716 30.8309 113.477L30.7353 113.143C30.7353 113.095 30.6875 112.999 30.6875 112.951C30.7353 113.143 30.6875 112.904 30.6875 112.856C30.6397 112.521 30.5919 112.187 30.5919 111.804C30.5919 111.565 30.5441 111.852 30.5919 111.756C30.5919 111.709 30.6397 111.661 30.6397 111.613C30.6875 111.47 30.8309 111.374 30.9743 111.278C31.0699 111.231 30.9743 111.231 30.9265 111.278L31.0699 111.231C30.9265 111.231 30.8787 111.231 31.0221 111.231C31.1177 111.231 31.1655 111.278 31.2611 111.278C30.9265 111.231 31.4523 111.374 31.5479 111.422C31.2611 111.278 31.6435 111.47 31.5479 111.422L31.8825 111.613C32.2171 111.804 32.5517 111.995 32.8385 112.282C33.2209 112.569 33.6033 112.856 33.9379 113.19C34.5593 113.716 35.1807 114.338 35.7543 114.911L35.9933 115.15L36.2323 115.389L36.4235 115.628C36.8059 116.106 37.4273 116.297 38.0009 116.202C38.5267 116.058 38.6223 115.676 38.3833 115.246L38.1443 114.911C38.0965 114.816 37.8575 114.481 38.0009 114.672C37.9053 114.481 37.7619 114.29 37.6663 114.099C37.0449 113.047 36.4713 111.995 35.9455 110.896C35.3241 109.653 34.7983 108.315 34.3203 106.976C33.9379 105.877 33.7467 104.73 33.8423 103.583C33.8901 103.2 34.0335 102.818 34.2725 102.483C34.3203 102.435 34.3681 102.388 34.4159 102.34C34.5593 102.196 34.3681 102.435 34.4637 102.292C34.5593 102.149 34.6071 102.34 34.4637 102.292C34.5115 102.292 34.5115 102.292 34.5593 102.292C34.6549 102.244 34.3203 102.292 34.4637 102.292C34.2247 102.244 34.7505 102.292 34.4637 102.292C34.5593 102.34 34.6071 102.34 34.7027 102.388C34.5593 102.34 34.5593 102.292 34.7505 102.435L34.9895 102.579C35.2763 102.722 34.8939 102.531 35.0851 102.627C35.2763 102.722 35.5153 102.961 35.7065 103.105C35.8977 103.248 36.0889 103.439 36.2801 103.63C36.4713 103.822 36.6147 103.965 36.8059 104.156C37.2361 104.586 37.6185 105.064 38.0009 105.542C38.8135 106.546 39.5783 107.55 40.2953 108.602C41.0123 109.653 41.6337 110.561 42.3029 111.565C42.4941 111.852 42.6853 112.187 42.8765 112.521L43.0199 112.76C43.0677 112.808 42.8765 112.521 42.9721 112.665C43.2589 113.143 43.8325 113.477 44.4061 113.477C44.8841 113.477 45.3143 113.238 45.1709 112.712C44.5973 110.896 44.0715 109.032 43.6413 107.215C43.2589 105.734 42.9721 104.252 42.7809 102.77C42.6375 101.623 42.4941 100.284 42.7809 99.2328C42.8287 99.1372 42.8287 99.0416 42.8765 98.946C42.8765 98.8982 43.0199 98.707 42.9721 98.7548C42.9243 98.8026 43.0677 98.6592 43.0677 98.6114C43.1155 98.5636 43.1633 98.5158 43.1633 98.5158C43.0677 98.5636 43.0677 98.6114 43.1633 98.5158C43.2589 98.4202 43.3067 98.5158 43.2111 98.5158C43.4979 98.5158 43.0199 98.5158 43.1633 98.5158C42.8765 98.468 43.3067 98.5158 43.1633 98.5158L43.0199 98.468C43.0677 98.468 43.1633 98.5158 43.2111 98.5158C42.9721 98.4202 43.0677 98.4202 43.2111 98.5158L43.4501 98.6592C43.6413 98.8026 43.3067 98.5158 43.4023 98.6114L43.5457 98.707C43.6413 98.8026 43.7847 98.8982 43.8803 98.9938C44.0715 99.185 44.2627 99.3762 44.5017 99.5674C44.5495 99.6152 44.6451 99.7108 44.5017 99.5674L44.6929 99.7586L45.0275 100.141C47.0351 102.531 48.8515 105.064 50.4289 107.741C51.4805 109.414 52.4843 111.135 53.4881 112.904C53.7271 113.334 54.1573 113.621 54.6353 113.668C54.9699 113.716 55.5913 113.716 55.6869 113.334C56.0693 111.852 56.6429 110.418 57.3599 109.127C57.8379 108.171 58.5549 107.311 59.4153 106.642C59.7977 106.355 60.2279 106.164 60.7059 106.116C60.8015 106.116 60.8493 106.116 60.9449 106.116C61.1361 106.116 61.1839 106.116 61.0883 106.116C61.2795 106.116 61.2317 106.164 61.0405 106.116C60.8493 106.02 61.3273 106.212 61.0405 106.116C60.8971 105.925 61.2317 106.259 61.0405 106.116C61.0883 106.164 61.1361 106.259 61.1839 106.307C61.2795 106.451 61.1839 106.307 61.1839 106.259C61.1839 106.212 61.2317 106.355 61.2795 106.403C61.4229 106.69 61.5185 107.024 61.5663 107.311C61.7575 108.267 61.8053 109.271 61.7097 110.227C61.5663 112.473 61.2317 114.672 60.7537 116.871C60.4669 118.209 60.1323 119.548 59.7977 120.886C59.3675 121.938 61.6619 122.75 61.9009 121.842Z" fill="#000005"/>
<path d="M52.771 113.19C51.9106 113.955 50.9546 114.529 50.0942 115.341C49.3772 116.058 48.7558 116.871 48.3256 117.779C47.4174 119.691 47.1306 121.794 46.8916 123.85C46.8438 124.328 49.186 124.662 49.2816 124.137C49.5206 122.129 49.8074 120.074 50.6678 118.209C51.098 117.301 51.6716 116.489 52.3886 115.772C53.2012 115.007 54.205 114.385 55.0654 113.621C55.3522 113.334 54.3962 113.095 54.3006 113.095C53.9182 113.047 53.1534 112.904 52.771 113.19Z" fill="#000005"/>
<path d="M42.781 137.951C42.781 137.951 56.5474 191.582 89.6728 205.397C143.448 227.815 183.217 196.315 197.796 137.999C197.796 137.999 180.971 129.442 177.673 129.442C174.374 129.442 115.58 177.481 62.7614 127.435L42.781 137.951Z" fill="#000005"/>
<path d="M41.9683 137.521C42.5897 139.911 43.3545 142.253 44.1193 144.595C45.9835 150.235 48.1823 155.78 50.6201 161.182C53.8227 168.304 57.6467 175.187 62.0443 181.64C66.6809 188.38 72.1301 194.642 78.6309 199.661C85.7053 205.11 94.0225 208.36 102.579 210.702C110.944 212.997 119.691 214.096 128.391 213.523C136.23 212.997 143.926 210.989 151.048 207.595C158.17 204.154 164.671 199.469 170.264 193.829C176.286 187.663 181.449 180.684 185.56 173.084C190.196 164.575 193.925 155.541 196.649 146.22C197.366 143.782 198.035 141.345 198.657 138.859C198.8 138.19 198.179 137.425 197.653 137.138C194.785 135.656 191.869 134.27 188.906 132.884C186.707 131.832 184.46 130.829 182.166 129.92C180.684 129.347 178.963 128.534 177.338 128.439C176.86 128.486 176.382 128.63 175.952 128.917C175.187 129.299 174.47 129.777 173.753 130.207C171.22 131.737 168.686 133.219 166.105 134.653C158.075 139.194 149.566 142.874 140.723 145.503C129.538 148.801 117.731 150.14 106.164 148.562C91.8715 146.603 78.7265 140.197 67.7325 131.02C66.1073 129.681 64.5777 128.295 63.0481 126.861C62.8091 126.622 62.4267 126.288 62.0921 126.479L44.5495 135.704L42.0639 136.995C41.4425 137.329 42.7809 139.289 43.4979 138.907L61.0883 129.681L63.5739 128.391L62.6179 128.008C73.5163 138.333 86.6613 146.268 101.384 149.518C113.143 152.1 125.379 151.622 137.043 148.801C146.555 146.507 155.685 142.826 164.336 138.285C167.348 136.708 170.264 134.987 173.179 133.266C174.709 132.263 176.334 131.354 177.959 130.542C178.151 130.446 177.864 130.542 178.103 130.494C178.151 130.494 178.246 130.446 178.294 130.446C178.868 130.494 179.393 130.59 179.967 130.781C182.022 131.45 184.03 132.215 185.942 133.123C189.814 134.796 193.59 136.66 197.366 138.572L198.035 138.907L197.032 137.186C194.689 146.794 191.391 156.163 187.137 165.101C183.409 173.036 178.724 180.445 173.084 187.137C167.969 193.255 161.899 198.513 155.063 202.672C148.467 206.639 141.249 209.364 133.649 210.655C125.427 211.993 117.062 211.897 108.936 210.32C104.395 209.46 99.9497 208.265 95.5999 206.783C91.4413 205.349 87.3305 203.724 83.5543 201.477C76.8145 197.462 71.1263 191.821 66.3463 185.655C61.6619 179.537 57.5989 172.94 54.2051 166.009C51.3849 160.273 48.8515 154.346 46.7483 148.276C45.6011 145.073 44.6451 142.157 43.7369 138.811C43.6891 138.668 43.6413 138.524 43.6413 138.381C43.4979 137.807 43.1155 137.329 42.5897 137.043C42.1595 136.851 41.8249 137.043 41.9683 137.521Z" fill="#000005"/>
<path d="M179.728 123.42C179.728 123.42 175.33 107.885 179.68 107.454C184.03 107.024 186.037 115.055 186.037 115.055C186.037 115.055 194.833 98.946 198.083 99.7586C201.333 100.571 196.601 114.72 196.601 114.72C196.601 114.72 204.966 100.81 207.404 104.013C209.842 107.215 203.198 117.492 203.198 117.492C203.198 117.492 209.555 110.418 211.037 113.19C212.519 115.963 197.748 139.958 197.748 139.958C197.748 139.958 186.563 139.098 177.72 129.442C178.198 127.339 178.867 125.332 179.728 123.42Z" fill="white"/>
<path d="M180.684 123.276C180.397 122.177 180.11 121.077 179.871 119.978C179.346 117.875 179.011 115.724 178.82 113.525C178.772 112.999 178.772 112.426 178.772 111.9C178.772 111.661 178.772 111.422 178.772 111.183C178.772 111.039 178.772 111.183 178.772 111.231V111.039C178.772 110.896 178.772 110.8 178.82 110.657C178.82 110.418 178.868 110.227 178.915 109.988C178.915 109.892 178.963 109.797 178.963 109.701C178.963 109.605 179.059 109.366 179.011 109.558C179.059 109.414 179.154 109.223 179.202 109.08C179.25 108.984 179.298 108.936 179.346 108.841C179.25 109.032 179.346 108.888 179.393 108.793C179.441 108.697 179.489 108.697 179.537 108.649C179.441 108.697 179.68 108.506 179.537 108.649C179.632 108.602 179.68 108.602 179.728 108.554C179.919 108.458 179.68 108.554 179.776 108.554L180.254 108.506C180.397 108.506 180.493 108.506 180.636 108.554C180.684 108.554 181.066 108.649 180.923 108.602C181.401 108.745 181.783 109.032 182.118 109.366C182.166 109.414 182.214 109.462 182.261 109.51C182.357 109.605 182.453 109.701 182.5 109.797C182.692 110.036 182.883 110.227 183.026 110.466C183.026 110.466 183.17 110.705 183.122 110.561C183.17 110.609 183.17 110.657 183.217 110.705C183.313 110.848 183.361 110.992 183.456 111.135C183.6 111.422 183.743 111.709 183.887 111.995C184.03 112.282 184.126 112.569 184.269 112.856C184.317 112.999 184.365 113.095 184.412 113.238C184.317 112.999 184.412 113.286 184.46 113.382C184.651 113.955 184.843 114.481 184.986 115.055C185.177 115.819 186.277 116.584 186.802 115.628C189.097 111.47 191.582 107.311 194.546 103.63C194.976 103.105 195.406 102.627 195.884 102.149C196.076 101.957 196.267 101.766 196.458 101.623C196.554 101.527 196.649 101.432 196.745 101.384C196.745 101.384 196.936 101.24 196.84 101.336L196.984 101.24C197.127 101.145 197.318 101.049 197.462 100.954C197.557 100.906 197.653 100.906 197.701 100.858C197.749 100.81 197.653 100.906 197.605 100.906L197.796 100.858C197.94 100.81 197.988 100.81 197.796 100.858C197.892 100.858 197.94 100.858 198.035 100.906C197.749 100.81 197.892 100.858 197.94 100.858C198.083 100.906 198.035 100.954 197.892 100.81C197.749 100.619 198.083 101.001 197.892 100.81C197.701 100.571 198.035 101.001 197.892 100.81C197.94 100.858 197.94 100.906 197.94 100.954C197.988 101.097 197.892 100.619 197.892 100.858C197.892 100.954 197.94 101.049 197.988 101.145C198.083 101.479 197.988 101.001 198.035 101.336C198.083 101.671 198.083 101.91 198.083 102.196C198.083 102.34 198.083 102.483 198.083 102.627C198.083 102.77 198.083 102.77 198.083 102.866C198.083 103.105 198.083 102.722 198.083 102.961C197.94 104.491 197.701 105.973 197.366 107.454C197.032 108.984 196.601 110.514 196.171 112.043C196.076 112.33 195.98 112.617 195.932 112.904C195.884 113.047 195.837 113.143 195.837 113.286C195.837 113.429 195.741 113.621 195.837 113.382L195.645 113.955C195.454 114.529 195.645 115.198 196.123 115.58C196.458 115.915 196.984 115.915 197.271 115.58C197.318 115.533 197.366 115.485 197.414 115.389C198.083 114.242 198.896 113.047 199.565 112.043C200.903 109.94 202.481 108.028 204.202 106.212C204.775 105.542 205.492 105.017 206.305 104.682C206.496 104.586 206.257 104.682 206.353 104.682C206.448 104.682 206.496 104.682 206.592 104.634C206.639 104.634 206.926 104.634 206.592 104.634C206.639 104.634 206.878 104.682 206.687 104.634C206.496 104.586 206.783 104.634 206.783 104.682C206.687 104.539 206.592 104.586 206.735 104.682C206.544 104.539 206.639 104.539 206.735 104.73C206.592 104.443 206.735 104.73 206.783 104.825C206.831 104.921 206.687 104.586 206.735 104.778C206.735 104.825 206.783 104.873 206.783 104.921C206.783 104.969 206.878 105.303 206.831 105.16C206.783 105.017 206.831 105.351 206.831 105.399C206.831 105.542 206.831 105.734 206.831 105.877C206.831 106.116 206.783 106.307 206.783 106.546C206.735 106.833 206.687 107.168 206.592 107.502C206.257 108.841 205.779 110.083 205.158 111.326C204.297 113.19 203.293 115.007 202.194 116.728C201.668 117.54 203.007 119.261 203.819 118.353C204.488 117.588 205.205 116.919 205.97 116.202C206.544 115.676 207.165 115.15 207.834 114.672C208.121 114.433 208.456 114.242 208.79 114.051C208.934 113.955 209.077 113.907 209.221 113.86L209.46 113.764L209.603 113.716C209.507 113.764 209.507 113.764 209.603 113.716C209.699 113.668 209.842 113.668 209.985 113.668C210.129 113.668 210.272 113.668 210.033 113.668C210.081 113.668 210.129 113.668 210.177 113.668C210.368 113.764 210.129 113.668 210.129 113.668L210.177 113.716C210.272 113.764 210.272 113.764 210.129 113.668C209.985 113.429 210.224 113.86 210.129 113.668C209.985 113.429 210.272 113.907 210.129 113.668C210.272 113.907 210.033 113.286 210.081 113.573C210.081 113.668 210.081 113.19 210.081 113.477C210.081 113.525 210.081 113.621 210.081 113.668C210.081 113.764 210.033 113.907 210.081 113.525C210.081 113.573 210.081 113.668 210.081 113.716C210.033 114.146 209.89 114.577 209.794 114.959C209.746 115.198 209.842 114.72 209.794 114.959L209.842 115.198L209.699 115.58C209.603 115.867 209.46 116.202 209.316 116.489C208.026 119.548 206.592 122.464 204.966 125.332C203.293 128.391 201.573 131.402 199.804 134.414C198.848 136.039 197.844 137.664 196.888 139.289L197.701 138.859C196.267 138.716 194.881 138.429 193.494 137.999C187.711 136.373 182.453 133.171 178.342 128.725L178.676 129.873C179.154 127.913 179.824 125.953 180.636 124.089C180.827 123.515 180.684 122.846 180.158 122.464C179.824 122.129 179.298 122.129 179.011 122.464C178.963 122.511 178.915 122.607 178.868 122.655C178.246 124.089 177.72 125.571 177.29 127.052C177.051 127.674 176.908 128.295 176.764 128.917C176.621 129.729 177.29 130.303 177.816 130.829C178.342 131.354 179.011 132.024 179.632 132.597C180.78 133.601 181.927 134.557 183.217 135.37C186.898 137.903 191.057 139.672 195.406 140.628C196.171 140.819 196.984 140.962 197.796 141.01C198.131 141.058 198.466 140.914 198.609 140.58C201.381 136.087 204.058 131.498 206.592 126.861C208.265 123.85 209.794 120.791 211.133 117.636C211.611 116.632 211.897 115.533 212.089 114.433C212.232 113.095 211.611 111.613 210.081 111.374C208.312 111.087 206.448 112.76 205.205 113.812C204.249 114.624 203.293 115.533 202.433 116.489L204.058 118.114C205.062 116.536 206.018 114.863 206.831 113.143C207.548 111.709 208.073 110.275 208.504 108.745C208.934 107.454 208.982 106.068 208.743 104.73C208.456 103.63 207.739 102.483 206.544 102.34C205.54 102.196 204.632 102.77 203.915 103.344C201.907 104.921 200.33 107.072 198.848 109.175C197.749 110.705 196.697 112.33 195.741 113.907L197.51 115.341C198.179 113.334 198.752 111.278 199.23 109.175C199.613 107.598 199.9 106.02 200.091 104.395C200.234 103.009 200.33 101.479 199.756 100.141C199.326 99.1372 198.322 98.2768 197.175 98.5158C196.028 98.7548 195.167 99.663 194.403 100.428C192.156 102.77 190.34 105.59 188.619 108.315C187.424 110.227 186.229 112.187 185.129 114.194L186.946 114.768C186.516 113.047 185.846 111.422 184.938 109.892C184.269 108.697 183.361 107.646 182.214 106.881C181.21 106.259 179.824 105.877 178.676 106.307C176.86 107.072 176.764 109.701 176.764 111.374C176.812 113.907 177.147 116.393 177.72 118.831C178.055 120.36 178.39 121.89 178.82 123.372C178.963 123.898 179.441 124.471 180.063 124.376C180.684 124.28 180.827 123.802 180.684 123.276Z" fill="#000005"/>
<path d="M185.464 115.58C186.277 116.297 187.233 116.919 188.045 117.636C188.81 118.353 189.431 119.165 189.862 120.121C190.722 121.986 190.961 124.041 191.248 126.049C191.296 126.574 193.686 126.383 193.638 126.001C193.399 123.945 193.112 121.842 192.204 119.93C191.774 119.022 191.2 118.209 190.531 117.54C189.67 116.728 188.667 116.106 187.806 115.341C187.472 115.055 186.755 115.102 186.324 115.15C186.181 115.15 185.225 115.341 185.464 115.58Z" fill="#000005"/>
<path d="M101.288 134.127C101.288 134.127 99.4238 128.534 97.1294 130.112C94.835 131.689 98.2766 142.301 101.909 139.863C105.542 137.425 101.288 134.127 101.288 134.127Z" fill="white"/>
<path d="M102.149 134.7C101.479 132.741 100.332 130.733 98.6113 129.538C97.7987 129.012 96.6515 128.678 95.9823 129.586C95.5043 130.207 95.4565 131.211 95.5043 131.976C95.6477 134.318 96.4603 136.612 97.8465 138.477C98.6113 139.48 99.6151 140.532 100.81 140.914C101.862 141.297 102.77 140.819 103.487 140.054C105.447 137.903 102.913 135.035 101.193 133.697C101.049 133.601 100.428 133.075 100.332 133.41C100.237 133.744 101.097 134.414 101.288 134.557C101.479 134.7 101.001 134.318 101.145 134.461C101.288 134.605 101.575 134.892 101.288 134.557C101.336 134.653 101.671 134.987 101.479 134.748C101.623 134.892 101.718 135.035 101.814 135.178C102.292 135.943 102.579 136.899 102.149 137.807C101.718 138.62 100.81 139.385 99.8541 139.385C99.7585 139.385 99.6151 139.385 99.5195 139.337C99.3283 139.289 99.5195 139.337 99.4239 139.289C99.3761 139.289 99.3283 139.241 99.3283 139.241C99.3761 139.289 99.4717 139.337 99.3761 139.241C99.2805 139.146 99.5673 139.385 99.3283 139.194C99.6151 139.433 99.2327 139.05 99.4717 139.337C99.4239 139.289 99.2327 139.098 99.3761 139.241C99.5195 139.385 99.2327 139.098 99.2327 139.05C99.1371 138.907 99.2327 139.002 99.2327 139.05L99.1849 138.955L98.9937 138.668C98.8503 138.477 98.8025 138.333 98.7069 138.142C98.4679 137.712 98.2767 137.282 98.1333 136.804C97.7987 135.895 97.5597 134.987 97.4641 134.031C97.3207 133.266 97.3685 132.502 97.5597 131.737C97.7031 131.115 98.3245 130.637 98.9937 130.733C99.0893 130.733 99.1371 130.781 99.2327 130.781C99.1849 130.781 99.2327 130.781 99.1849 130.733L98.9937 130.59C98.8025 130.398 99.1849 130.781 98.9937 130.59C98.8981 130.446 99.0415 130.637 99.0415 130.685C99.0893 130.733 99.1371 130.829 99.0415 130.685C99.0893 130.733 99.1371 130.829 99.1849 130.876C99.2805 130.972 99.3283 131.115 99.4239 131.211C99.5673 131.402 99.6151 131.546 99.7585 131.785C100.045 132.358 100.284 132.932 100.476 133.505C100.715 133.983 101.145 134.414 101.623 134.7C101.766 134.844 102.34 135.178 102.149 134.7Z" fill="#000005"/>
<path d="M132.884 134.557C132.884 134.557 135.609 129.347 137.616 131.307C139.624 133.266 134.461 143.113 131.307 140.15C128.152 137.186 132.884 134.557 132.884 134.557Z" fill="white"/>
<path d="M133.601 135.513C134.27 134.27 135.226 132.788 136.469 132.071C136.804 131.832 137.186 131.785 137.616 131.832C137.712 131.832 137.807 131.88 137.855 131.928C137.999 131.976 138.046 132.071 137.855 131.88C137.664 131.689 137.425 131.307 137.186 131.02C137.138 130.972 137.186 130.876 137.186 130.972C137.186 131.068 137.234 131.115 137.234 131.115C137.377 131.88 137.329 132.645 137.09 133.362C136.565 135.274 135.609 136.995 134.27 138.429C133.744 139.05 133.027 139.48 132.263 139.672C131.928 139.719 131.593 139.719 131.307 139.576L131.163 139.528C131.115 139.528 130.924 139.385 130.972 139.433C130.924 139.337 131.02 139.48 130.972 139.433L131.02 139.528C131.02 139.576 131.211 139.719 131.211 139.767C131.211 139.815 131.115 139.576 131.115 139.576C130.446 137.903 132.263 136.23 133.601 135.513C133.744 135.417 133.075 134.557 132.98 134.461C132.884 134.366 132.31 133.553 132.071 133.649C130.637 134.461 129.012 136.039 129.538 137.855C129.873 138.811 130.446 139.672 131.163 140.341C131.593 140.867 132.119 141.297 132.693 141.536C133.505 141.727 134.318 141.536 134.939 141.01C136.66 139.767 137.807 137.568 138.429 135.561C138.763 134.7 138.859 133.84 138.716 132.932C138.572 132.31 138.238 131.737 137.807 131.259C137.377 130.733 136.851 130.112 136.182 129.92C135.035 129.634 134.031 130.781 133.41 131.546C132.884 132.167 132.454 132.884 132.071 133.601C131.928 133.84 132.502 134.461 132.645 134.653C132.741 134.748 133.553 135.656 133.601 135.513Z" fill="#000005"/>
<path d="M111.613 146.22L108.841 153.964C108.841 153.964 114.385 162.711 123.181 155.446L123.037 148.849L111.613 146.22Z" fill="white"/>
<path d="M110.657 145.503L108.602 151.239C108.315 151.861 108.076 152.53 107.885 153.247C107.837 153.725 108.554 154.394 108.793 154.729C110.418 156.641 112.617 158.266 115.055 158.839C116.536 159.222 118.162 159.174 119.643 158.696C120.552 158.409 121.46 157.979 122.272 157.453C122.75 157.166 123.181 156.832 123.611 156.497C123.85 156.306 124.089 156.21 124.137 155.924C124.184 155.493 124.137 155.063 124.089 154.681L124.041 152.482L123.993 149.423C123.993 148.849 122.942 148.228 122.464 148.084L112.521 145.79L111.087 145.455C110.657 145.36 110.514 145.503 110.753 145.933C111.087 146.411 111.565 146.746 112.139 146.937L122.129 149.232L123.563 149.566L122.033 148.228L122.129 151.956L122.177 154.203C122.177 154.394 122.177 154.585 122.177 154.776C122.129 154.968 122.32 154.585 122.033 154.872C121.699 155.159 121.364 155.446 120.982 155.685C119.118 156.975 116.871 157.836 114.624 157.501C113.86 157.405 113.143 157.166 112.473 156.784L112.378 156.736C112.282 156.688 112.187 156.641 112.091 156.593L111.9 156.497C112.139 156.641 111.852 156.497 111.852 156.449L111.47 156.163C111.709 156.354 111.47 156.163 111.422 156.115L111.135 155.876L110.992 155.78C110.753 155.589 111.039 155.828 110.896 155.685C110.753 155.541 110.705 155.446 110.561 155.35C110.418 155.254 110.37 155.159 110.275 155.063C110.036 154.824 110.322 155.111 110.131 154.92C109.94 154.729 109.844 154.537 109.701 154.346L109.797 154.776L112.569 147.033C112.856 146.268 110.8 145.121 110.657 145.503Z" fill="#000005"/>
<path d="M134.605 127.052C135.322 140.006 127.53 158.266 112.282 152.864C100.045 148.515 101.001 129.538 101.001 129.538C101.862 128.869 102.722 128.295 103.63 127.769C107.885 125.379 110.992 121.412 112.33 116.728L113.095 114.003C113.095 114.003 114.72 122.607 124.949 125.332" fill="white"/>
<path d="M133.41 127.052C133.696 132.215 132.74 137.377 130.733 142.109C128.869 146.411 125.857 150.522 121.46 152.147C121.603 152.1 121.316 152.195 121.268 152.195C121.125 152.243 120.982 152.291 120.838 152.339C120.551 152.434 120.217 152.482 119.93 152.578C119.404 152.673 118.878 152.769 118.305 152.769C114.624 152.912 111.039 151.622 108.315 149.136C106.737 147.559 105.494 145.694 104.634 143.687C103.821 141.727 103.2 139.719 102.818 137.616C102.626 136.66 102.483 135.704 102.387 134.748C102.387 134.557 102.34 134.318 102.34 134.127L102.292 133.792C102.292 133.744 102.244 133.41 102.244 133.553C102.244 133.697 102.244 133.41 102.244 133.362C102.244 133.314 102.244 133.171 102.244 133.123C102.244 132.932 102.244 132.741 102.196 132.549C102.148 131.641 102.196 130.685 102.148 129.777C102.148 129.729 102.148 129.681 102.148 129.634L101.766 130.398C102.77 129.681 103.774 129.012 104.873 128.391C106.355 127.483 107.693 126.383 108.888 125.14C111.039 122.846 112.617 120.074 113.477 117.014C113.716 116.154 113.955 115.294 114.194 114.385H111.9C112.186 115.58 112.617 116.68 113.19 117.779C114.481 120.217 116.393 122.32 118.687 123.898C120.504 125.093 122.463 125.953 124.519 126.527C125.905 126.909 126.765 124.854 125.284 124.423C122.224 123.659 119.452 121.986 117.301 119.643C116.584 118.831 115.963 117.923 115.437 116.967C115.198 116.584 115.007 116.154 114.815 115.724C114.768 115.628 114.768 115.58 114.72 115.485C114.624 115.246 114.768 115.676 114.672 115.437C114.624 115.246 114.529 115.102 114.481 114.959C114.337 114.624 114.242 114.29 114.194 113.907C114.003 112.808 112.186 112.904 111.9 113.907C111.661 114.816 111.374 115.724 111.135 116.632C110.561 118.687 109.605 120.599 108.362 122.32C107.12 123.993 105.59 125.427 103.821 126.574C102.818 127.196 101.814 127.769 100.858 128.439C100.38 128.773 99.854 129.108 99.7584 129.729C99.6628 130.829 99.7106 131.928 99.8062 133.027C99.9496 135.513 100.332 137.999 100.906 140.436C101.575 143.304 102.77 146.029 104.443 148.419C106.307 151.096 108.936 153.103 111.995 154.155C115.246 155.254 118.783 155.493 122.033 154.346C125.045 153.199 127.674 151.191 129.633 148.61C133.696 143.352 135.656 136.23 135.8 129.634C135.8 128.821 135.8 128.056 135.752 127.244C135.752 126.622 135.274 126.144 134.652 126.144C134.127 126.144 133.362 126.574 133.41 127.196V127.052Z" fill="#000005"/>
<path d="M119.452 135.083C119.452 135.083 127.722 138.333 131.976 135.083C136.23 131.832 131.02 128.439 123.754 130.255" fill="white"/>
<path d="M119.356 135.943C120.408 136.326 121.46 136.66 122.559 136.899C124.71 137.473 126.909 137.616 129.108 137.329C131.067 137.043 133.505 136.039 134.366 134.079C135.178 132.215 133.696 130.542 132.071 129.777C129.251 128.439 125.953 128.678 123.037 129.395C122.463 129.538 122.559 130.255 122.846 130.59C123.228 131.068 123.85 131.259 124.423 131.115C126.526 130.59 128.964 130.398 131.067 131.163C131.211 131.211 131.306 131.259 131.45 131.307C131.498 131.354 131.928 131.593 131.737 131.45C131.88 131.546 132.023 131.641 132.167 131.785C131.976 131.593 132.358 132.119 132.215 131.88C132.31 132.024 132.358 132.167 132.406 132.358C132.406 132.645 132.358 132.932 132.167 133.171C131.354 134.7 129.394 135.37 127.769 135.561C126.048 135.704 124.328 135.561 122.655 135.178C121.603 134.939 120.599 134.653 119.595 134.27C119.117 134.079 118.448 134.222 118.353 134.796C118.257 135.37 118.878 135.8 119.356 135.943Z" fill="#000005"/>
<path d="M114.72 126.813C115.293 126.718 115.819 127.1 115.963 127.674C115.963 127.722 115.963 127.769 115.963 127.817C116.01 128.964 114.576 129.06 114.242 128.056C114.003 127.626 114.194 127.1 114.624 126.861C114.624 126.861 114.672 126.813 114.72 126.813Z" fill="#000005"/>
<path d="M122.75 126.574C123.324 126.479 123.898 126.861 123.993 127.435C123.993 127.483 123.993 127.53 123.993 127.578C124.041 128.725 122.607 128.821 122.272 127.817C122.033 127.387 122.225 126.861 122.655 126.622C122.655 126.622 122.703 126.574 122.75 126.574Z" fill="#000005"/>
<path d="M119.596 116.393C122.989 120.695 127.913 123.467 133.362 124.041C133.888 124.089 133.601 123.515 133.41 123.324C133.075 122.846 132.597 122.511 132.071 122.416C127.769 122.081 123.754 119.978 121.03 116.632C120.743 116.25 120.169 115.724 119.691 115.676C119.213 115.628 119.404 116.058 119.596 116.393Z" fill="#000005"/>
<path d="M111.565 136.804C111.9 137.568 112.473 138.19 113.143 138.668C113.573 138.955 114.051 139.194 114.529 139.385C115.055 139.576 115.628 139.672 116.154 139.719C116.441 139.719 116.728 139.672 117.014 139.576C117.158 139.528 117.397 139.385 117.397 139.194C117.349 138.716 116.584 138.62 116.202 138.572C116.68 138.62 116.202 138.572 116.058 138.524C115.772 138.477 116.25 138.572 116.106 138.524L115.915 138.477L115.724 138.429C115.533 138.381 115.963 138.524 115.772 138.429L115.389 138.238L115.198 138.142L115.102 138.094L115.15 138.142L114.863 137.903C114.672 137.712 114.481 137.521 114.29 137.329L114.385 137.473C114.146 137.186 113.955 136.899 113.812 136.565C113.668 136.373 113.477 136.23 113.286 136.182C112.999 136.087 112.665 136.039 112.378 136.087C112.091 136.134 111.326 136.326 111.565 136.804Z" fill="#000005"/>
<path d="M14.2444 34.6072C17.0168 34.7984 20.7452 34.7984 22.3704 32.0738C22.944 31.1178 22.944 29.875 21.8924 29.2536C20.7452 28.5366 19.2634 28.919 18.5464 30.0662C16.969 32.9342 19.8848 36.328 22.3704 37.5708C24.617 38.6224 26.9114 39.5306 29.3014 40.3432C33.699 41.9684 38.1922 43.4502 42.6854 44.7886C48.9472 46.7006 55.3046 48.4214 61.662 49.951C69.2622 51.7674 76.8624 53.3448 84.5582 54.6354C93.0188 56.0694 101.575 57.0732 110.131 57.6946C119.07 58.3638 128.056 58.4594 137.043 58.0292C146.125 57.599 155.111 56.404 163.954 54.492C172.701 52.58 181.258 49.7598 189.384 45.9836C197.605 42.1596 205.301 37.2362 212.184 31.309C213.905 29.8272 215.578 28.2976 217.155 26.6724C217.777 26.051 215.578 25.334 214.957 25.9554C208.743 32.1216 201.716 37.3796 194.116 41.586C186.563 45.7446 178.581 48.995 170.311 51.2894C162.042 53.5838 153.581 55.1612 145.025 56.0216C136.469 56.882 127.817 57.121 119.213 56.8342C110.896 56.5474 102.579 55.8782 94.3572 54.7788C86.6614 53.775 78.9656 52.4366 71.3654 50.8114C64.7212 49.4252 58.1726 47.8 51.6718 45.9836C46.4616 44.5496 41.2992 42.9722 36.1368 41.2514C32.7908 40.152 29.4926 38.957 26.2422 37.6664L25.4296 37.3318L25.095 37.1884L24.856 37.0928L24.6648 36.9972L24.378 36.8538L23.9 36.7104C23.7088 36.6148 23.5176 36.5192 23.3264 36.4236C22.705 35.9456 22.1314 35.4198 21.6056 34.8462C20.554 33.6034 20.076 32.026 20.8886 30.5442C21.032 30.2574 21.51 30.2096 20.793 30.2574C20.076 30.3052 20.554 30.1618 20.4106 30.5442C20.3628 30.831 20.2672 31.07 20.1716 31.3568C19.837 31.9304 19.3112 32.4084 18.7376 32.6952C17.2558 33.5078 15.4872 33.3644 13.862 33.2688C13.4796 33.221 12.8104 33.4122 12.906 33.938C13.0016 34.4638 13.8142 34.5594 14.2444 34.6072Z" fill="#000005"/>
<path d="M19.6457 62.7614C19.6457 62.7614 27.0069 37.1884 29.3491 37.1884C31.6913 37.1884 49.2339 40.5822 49.7119 43.5936C50.1899 46.605 43.8325 71.7 41.0601 70.744C38.2877 69.788 35.5631 62.8092 32.1693 62.7614C28.7755 62.7136 18.9765 64.9124 19.6457 62.7614Z" fill="#59BE4C"/>
<path d="M20.6496 63.335C21.2232 61.2796 21.8446 59.272 22.466 57.2644C23.661 53.3448 24.9516 49.4252 26.3378 45.6012C26.9592 43.976 27.5806 42.303 28.2976 40.7256C28.7278 39.8652 29.158 38.7658 29.9228 38.0966C30.0184 38.001 29.875 38.1444 29.875 38.0966C29.875 38.0488 29.9706 38.0488 29.9706 38.0488C29.9706 38.0488 30.0184 38.0488 30.0662 38.001C30.1618 38.001 29.875 38.001 29.9706 38.001C30.0662 38.001 30.353 38.001 30.5442 38.0488C31.2134 38.0966 31.548 38.1922 32.3128 38.2878C34.2726 38.6224 36.2324 39.0048 38.1922 39.435C40.391 39.9608 42.5898 40.4866 44.7408 41.2036C45.6012 41.4904 46.4616 41.825 47.2742 42.2074C47.4654 42.303 47.6566 42.3986 47.8 42.4464C47.9434 42.4942 47.6566 42.3508 47.8478 42.4942L48.1346 42.6376C48.278 42.7332 48.3736 42.781 48.517 42.8766C48.3258 42.7332 48.6604 42.9722 48.517 42.8766C48.5648 42.9244 48.6126 42.9722 48.7082 43.02C48.8994 43.1156 48.517 42.8288 48.6604 42.9722C48.7082 43.02 48.8516 43.2112 48.7082 43.02C48.5648 42.8288 48.7082 43.02 48.7082 43.0678C48.5648 42.8766 48.7082 43.1156 48.7082 43.0678C48.8516 43.259 48.7082 42.9722 48.7082 43.02C48.7082 43.0678 48.7082 43.1156 48.7082 43.1156C48.7082 43.1634 48.7082 43.1634 48.7082 43.2112C48.7082 43.0678 48.7082 43.3068 48.7082 43.2112C48.7082 43.6892 48.6604 44.1672 48.6126 44.5974C48.4214 46.1748 48.1346 47.7044 47.8 49.2818C46.8918 53.4404 45.7924 57.5512 44.5018 61.6142C43.976 63.3828 43.3068 65.1036 42.5898 66.8244C42.1596 67.8282 41.6816 68.9754 40.8212 69.7402C40.6778 69.8358 40.869 69.6924 40.7256 69.788C40.6778 69.8358 40.5822 69.8358 40.5344 69.8358C40.5822 69.788 40.63 69.8358 40.6778 69.8358C40.63 69.8358 40.869 69.9314 40.6778 69.8358C40.4866 69.7402 40.63 69.8358 40.6778 69.8358L40.5344 69.7402C40.3432 69.6446 40.63 69.8358 40.4388 69.6924C40.3432 69.5968 40.2476 69.549 40.152 69.4534L40.0086 69.31C39.913 69.2144 39.8174 69.1188 39.7218 69.0232C39.3394 68.593 39.0526 68.2106 38.6702 67.7326C37.0928 65.725 35.611 63.335 33.221 62.1878C31.4046 61.2796 29.0624 61.901 27.1504 62.14C24.9516 62.4268 22.705 62.8092 20.5062 62.6658C20.3628 62.6658 20.2194 62.6658 20.1238 62.618L19.9326 62.5702C19.6936 62.5224 20.0282 62.618 19.9326 62.5702C19.837 62.5224 20.1716 62.7136 20.2194 62.7614C20.3628 62.9048 20.5062 63.0482 20.6018 63.2394C20.6018 63.5262 20.554 63.574 20.6496 63.335C20.8408 62.618 18.881 61.2796 18.642 62.14C18.403 63.096 19.5024 63.9086 20.2194 64.2432C21.0798 64.53 22.0358 64.6734 22.944 64.5778C25.3818 64.4822 27.7718 64.052 30.1618 63.813C31.07 63.6696 32.026 63.574 32.9342 63.6696C33.1254 63.6696 33.3166 63.7652 33.5078 63.8608C33.3644 63.813 33.6034 63.9086 33.6512 63.9564L33.8424 64.0998C33.7468 64.0042 33.7946 64.0998 33.8902 64.1476C34.3204 64.4822 34.7028 64.8646 35.0374 65.2948C36.7104 67.2068 38.001 69.5968 40.152 71.0786C40.7256 71.461 41.5382 71.939 42.2074 71.6522C42.5898 71.461 42.9244 71.1742 43.1634 70.7918C43.976 69.549 44.6452 68.2106 45.1232 66.7766C46.6528 62.6658 47.9434 58.4594 48.9472 54.1574C49.4252 52.2454 49.8554 50.2856 50.2378 48.3258C50.5246 47.1308 50.668 45.888 50.7158 44.5974C50.668 43.0678 49.234 42.064 48.039 41.3948C46.1748 40.4388 44.1672 39.674 42.1118 39.1004C38.0966 37.9054 33.938 36.9972 29.7794 36.4236C29.3492 36.328 28.8712 36.2802 28.441 36.3758C28.1064 36.5192 27.8196 36.806 27.6284 37.0928C26.8636 38.24 26.2422 39.4828 25.7642 40.7734C24.139 44.6452 22.8006 48.6604 21.51 52.7234C20.554 55.687 19.6458 58.6506 18.7854 61.662C18.7376 61.8054 18.6898 61.9966 18.642 62.14C18.4508 62.857 20.4106 64.1954 20.6496 63.335Z" fill="#59BE4C"/>
<path d="M49.712 69.8358C49.712 69.8358 55.7826 45.6012 57.9814 45.6012C60.1802 45.6012 73.1818 48.1824 74.1378 49.473C75.0938 50.7636 71.3176 75.6674 69.5968 75.5718C67.876 75.4762 62.8092 69.1188 60.945 69.1188C59.0808 69.1188 48.5648 71.4132 49.712 69.8358Z" fill="#59BE4C"/>
<path d="M50.8592 69.9314C52.2932 64.291 53.8228 58.6984 55.5914 53.1536C56.1172 51.5762 56.643 50.0466 57.2644 48.517C57.5034 47.9912 57.7424 47.4176 58.0292 46.9396C58.077 46.844 58.1248 46.7484 58.2204 46.605C58.316 46.4138 58.1726 46.7006 58.316 46.4616C58.4594 46.2226 58.555 46.1748 58.6506 46.0314C58.4594 46.1748 58.6984 45.9836 58.6506 46.0314C58.4594 46.1748 58.2682 46.2226 58.0292 46.2226C57.5034 46.2704 57.8858 46.2226 58.0292 46.2226L58.4594 46.2704C58.794 46.3182 59.0808 46.366 59.4154 46.366L59.8934 46.4138L60.1802 46.4616C60.3236 46.4616 60.3236 46.4616 60.1802 46.4616L60.3714 46.5094C62.4746 46.844 64.53 47.2742 66.5854 47.7522C67.5892 47.9912 68.593 48.2302 69.549 48.4692C69.9792 48.5648 70.4094 48.7082 70.8396 48.8516L71.4132 49.0428L71.7 49.1384C71.7478 49.1384 71.7956 49.1862 71.8912 49.1862C72.178 49.2818 72.4648 49.3774 72.7038 49.5208C72.7994 49.5686 72.895 49.6164 72.9906 49.6642C72.7516 49.5208 72.9906 49.6642 73.0862 49.7598C73.1818 49.8554 72.9428 49.6164 73.0384 49.712C73.134 49.8076 72.9906 49.5208 73.0384 49.6642C73.0862 49.8076 73.0862 49.951 73.0862 50.0944C73.134 51.1938 73.0862 52.341 72.9428 53.4404C72.7994 55.209 72.5604 56.9298 72.3214 58.6984C71.7956 62.4746 71.1742 66.2508 70.3616 69.9314C70.0748 71.3176 69.6924 72.656 69.2622 73.9944C69.2144 74.1856 69.1188 74.3768 69.0232 74.568C68.9754 74.6636 68.9276 74.7592 68.9276 74.807L68.8798 74.9026C68.7842 75.0938 68.9754 74.807 68.8798 74.9026C68.8798 74.9504 68.7842 75.046 68.7842 75.046C68.6408 75.0938 68.9754 74.9026 68.832 74.9982C69.1666 74.807 69.5968 74.7592 69.9792 74.807C69.788 74.7592 70.1704 74.9026 69.9792 74.807C69.8836 74.7592 69.788 74.7114 69.6924 74.6636C69.4056 74.4724 69.1188 74.2812 68.8798 74.09C68.4974 73.8032 68.115 73.4686 67.7804 73.134C66.92 72.3692 66.1074 71.6044 65.2948 70.8396C64.0042 69.6924 62.5224 68.2584 60.6582 68.354C59.989 68.4018 59.3198 68.4974 58.6506 68.593L55.7826 69.0232C54.8266 69.1666 53.8706 69.31 52.9146 69.4534C52.4844 69.5012 52.0542 69.549 51.6718 69.5968L51.0982 69.6446H50.8592C50.6202 69.6446 51.146 69.6446 50.8114 69.6446L50.429 69.5968C50.7636 69.6446 50.6202 69.6446 50.5246 69.5968C50.3334 69.549 50.7636 69.6924 50.6202 69.6446C50.8114 69.7402 50.8592 69.9314 50.8114 70.027C51.4806 69.071 49.1862 68.7842 48.7082 69.5012C47.6088 71.0786 50.9548 70.983 51.7196 70.9352C53.775 70.7918 55.8304 70.4094 57.8858 70.0748L58.2204 70.027L58.3638 69.9792C58.3638 69.9792 58.1726 70.027 58.316 69.9792L59.033 69.8836C59.4154 69.8358 59.7978 69.788 60.1802 69.7402C60.3236 69.7402 60.467 69.6924 60.6104 69.6924C60.7538 69.6924 61.0884 69.6924 60.8494 69.6924C60.7538 69.6924 60.706 69.6924 60.6582 69.6924C60.6104 69.6924 60.8494 69.7402 60.6582 69.6924C60.8016 69.7402 60.9928 69.8358 61.1362 69.9314C61.1362 69.9314 61.423 70.1226 61.5664 70.2182C61.7576 70.3616 61.9488 70.505 62.14 70.6484C62.5702 70.983 63.0004 71.3654 63.3828 71.7478C64.2432 72.5126 65.1036 73.373 65.964 74.1378C67.1112 75.1416 69.0232 76.9102 70.6484 75.763C71.4132 75.2372 71.6522 74.0422 71.939 73.1818C72.895 69.5968 73.6598 66.0118 74.1378 62.3312C74.7592 58.7462 75.1894 55.1134 75.4284 51.4806C75.4762 50.8114 75.6196 49.712 75.2372 49.0906C74.8548 48.6604 74.3768 48.3258 73.8032 48.1824C72.9906 47.8478 72.1302 47.561 71.2698 47.3698C69.1666 46.7484 66.9678 46.2704 64.8168 45.8402C62.9048 45.4578 60.9928 45.0754 59.0808 44.8842C57.8858 44.7408 56.8342 44.8364 56.1172 45.888C55.448 46.9874 54.8744 48.1824 54.4442 49.4252C53.058 53.1058 51.9586 56.9298 50.8592 60.706C50.0466 63.5262 49.3296 66.3464 48.6126 69.1666L48.517 69.5968C48.3258 70.7918 50.668 70.7918 50.8592 69.9314Z" fill="#59BE4C"/>
<path d="M78.9177 75.524C78.9177 75.524 81.3555 52.1976 83.1241 52.0064C84.8927 51.8152 99.7585 53.4404 100.81 53.9662C101.862 54.492 101.766 81.26 100.237 81.26C98.7069 81.26 91.0111 72.7038 89.1469 73.4208C87.2827 74.1378 77.2925 77.8662 78.9177 75.524Z" fill="#59BE4C"/>
<path d="M79.8261 76.002C80.0651 73.7076 80.3041 71.6522 80.5909 69.3578C81.0689 65.3904 81.5947 61.423 82.4073 57.5034C82.6463 56.165 82.9809 54.8266 83.4111 53.536C83.5067 53.297 83.3633 53.5838 83.4589 53.4404C83.5067 53.3448 83.5545 53.297 83.6023 53.2014C83.6501 53.1536 83.6501 53.1058 83.6979 53.058C83.6023 53.1536 83.5067 53.058 83.6979 53.1058C83.7935 53.1058 83.8891 53.1058 83.9847 53.1058C84.2715 53.1058 84.5105 53.1058 84.7973 53.1058C85.0841 53.1058 85.4187 53.1536 85.8011 53.1536L87.1395 53.2492C88.1911 53.3448 89.1949 53.4404 90.2465 53.536C92.4453 53.775 94.6441 54.014 96.8429 54.3008C98.2291 54.492 99.5675 54.731 100.906 54.97C101.049 54.97 100.762 54.9222 100.715 54.8744C100.476 54.6832 100.284 54.4442 100.141 54.2052C100.237 54.3964 100.093 54.1574 100.093 54.1096C100.093 54.2052 100.141 54.253 100.141 54.3486C100.189 54.5398 100.189 54.731 100.237 54.9222L100.284 55.3046C100.237 54.97 100.284 55.4002 100.284 55.4958C100.619 58.9852 100.571 62.5702 100.571 66.0596C100.523 69.8358 100.476 73.6598 100.093 77.436L100.045 77.9618C100.045 78.0096 99.9977 78.2008 100.045 78.1052C100.093 78.0096 100.045 78.2486 100.045 78.2964C99.9977 78.5832 99.9499 78.87 99.9021 79.1568C99.8543 79.5392 99.7587 79.9216 99.6153 80.304C99.6631 80.1606 99.7109 80.2084 99.6153 80.304C99.5197 80.3996 99.7109 80.2562 99.6631 80.2562C99.6153 80.2562 99.8543 80.2084 99.9021 80.2084C99.8543 80.2084 99.8065 80.1606 99.8065 80.1606C99.8065 80.1606 99.9977 80.2562 99.8543 80.1606L99.5197 79.9694C99.3763 79.8738 99.4241 79.9216 99.5197 79.9694L99.2807 79.7782C98.9461 79.5392 98.6115 79.3002 98.3247 79.0134C96.6517 77.6272 95.0743 76.1454 93.4491 74.807C92.6843 74.1378 91.8717 73.5642 91.0113 73.0384C90.4377 72.6082 89.7207 72.3214 89.0037 72.2736C88.4301 72.3692 87.8565 72.5604 87.2829 72.8472C86.4225 73.1818 85.5621 73.4686 84.7017 73.7554C82.9809 74.329 81.1167 75.046 79.3003 75.1894C79.2047 75.1894 78.9179 75.1894 79.0135 75.1894C79.1091 75.1894 78.9179 75.1894 78.9179 75.1894C78.8223 75.0938 78.9179 75.1416 78.9657 75.2372C79.3959 75.5718 79.6349 76.0498 79.6349 76.5756C79.6349 76.5756 79.6827 76.48 79.7305 76.3844C80.2563 75.6196 78.8223 73.7554 78.2009 74.6158C77.6751 75.4762 77.9619 76.5756 78.7745 77.0536C78.8223 77.1014 78.8701 77.1014 78.9179 77.1492C79.5393 77.4838 80.2563 77.3404 80.9255 77.2448C82.9809 76.8146 85.0363 76.1932 86.9961 75.4284C87.8087 75.1416 88.5735 74.8548 89.3861 74.568C89.4817 74.5202 89.6251 74.4724 89.7207 74.4246C89.4817 74.5202 90.0075 74.4724 89.7207 74.4246C89.8641 74.4246 89.9597 74.4724 90.1031 74.5202C90.1031 74.5202 90.0075 74.4724 90.1509 74.568C90.2943 74.6636 90.3421 74.6636 90.4377 74.7114C90.6289 74.807 90.7723 74.9026 90.9157 74.9982L91.0113 75.046L91.3459 75.285C91.7761 75.5718 92.1585 75.8586 92.5409 76.1932C93.4491 76.9102 94.3095 77.675 95.1699 78.4398C96.6039 79.6826 98.0379 81.2122 99.7109 82.0726C100.141 82.3116 100.762 82.5506 101.145 82.0726C101.336 81.738 101.479 81.4034 101.527 81.021C101.814 79.6348 101.957 78.2486 102.053 76.8624C102.196 74.9026 102.292 72.895 102.34 70.8874C102.435 66.7766 102.483 62.7136 102.292 58.6028C102.292 57.3122 102.149 56.0216 101.957 54.731C101.91 53.5838 100.906 52.6756 99.7587 52.6278C95.6957 51.863 91.4893 51.4806 87.3785 51.0982C86.4703 51.0026 85.5621 50.9548 84.6061 50.907C84.0325 50.8592 83.4111 50.8114 82.8375 50.8592C81.9293 51.0026 81.6425 52.3888 81.4035 53.1058C80.3041 56.8342 79.8261 60.7538 79.3481 64.53C78.9179 67.8282 78.4877 71.1742 78.1053 74.4724L78.0575 74.9982C77.9619 76.0498 79.6827 77.436 79.8261 76.002Z" fill="#59BE4C"/>
<path d="M120.265 74.4724C120.265 74.4724 109.844 81.1644 109.032 79.826C108.219 78.4876 110.657 55.209 112.378 55.0656C114.099 54.9222 128.582 55.6392 129.92 55.6392C131.259 55.6392 134.987 78.7744 133.649 79.4436C132.31 80.1128 120.265 74.4724 120.265 74.4724Z" fill="#59BE4C"/>
<path d="M119.118 74.2334C116.584 75.9064 113.907 77.436 111.135 78.7744C110.466 79.109 109.749 79.3958 109.032 79.6348C108.936 79.6826 108.793 79.6826 108.697 79.6826C108.602 79.6826 108.649 79.6348 108.697 79.6826C108.745 79.826 110.275 79.826 110.227 80.0172C110.179 79.9216 110.131 79.8738 110.131 79.7782C109.988 78.7266 109.988 77.675 110.083 76.6234C110.275 72.7038 110.705 68.7364 111.231 64.8168C111.47 62.9526 111.756 61.0884 112.139 59.2242C112.33 58.0292 112.617 56.8342 113.143 55.7348C113.19 55.6392 113.334 55.448 113.334 55.4002C113.382 55.3524 113.382 55.3524 113.429 55.3046C113.429 55.3046 113.143 55.3046 113.334 55.3046C113.907 55.3046 114.481 55.3046 115.055 55.3046C115.867 55.3046 116.728 55.3524 117.636 55.4002L120.934 55.4958L127.291 55.7348L129.538 55.8782L130.446 55.926C130.542 55.926 130.59 55.926 130.685 55.926C130.064 55.8304 129.49 55.7348 128.869 55.5436L128.917 55.5914C130.064 57.9814 130.494 60.7538 130.972 63.335C131.689 67.2068 132.31 71.1264 132.645 75.046C132.788 76.241 132.836 77.4838 132.741 78.6788C132.741 78.8222 132.693 78.9656 132.645 79.109C132.645 79.1568 132.597 79.1568 132.597 79.2046C132.597 79.1568 132.597 79.2524 132.597 79.2046C132.597 79.2524 132.454 79.2046 132.645 79.2046C132.502 79.2046 132.884 79.2046 132.693 79.2046C132.788 79.2046 132.932 79.2524 132.741 79.2046C133.171 79.2524 132.597 79.1568 132.98 79.2524L132.788 79.2046C132.597 79.1568 132.98 79.2524 132.788 79.2046L132.215 79.0612C131.976 78.9656 131.498 78.8222 131.115 78.6788C130.637 78.4876 130.159 78.3442 129.729 78.153C128.773 77.7706 127.817 77.3882 126.813 77.0058C125.236 76.3366 123.706 75.6674 122.129 74.9504L121.364 74.6158C120.838 74.3768 120.313 74.2812 119.739 74.2812C119.596 74.2812 118.831 74.2812 119.261 74.5202C122.32 75.9542 125.379 77.2926 128.486 78.4876C130.255 79.1568 132.215 79.9216 134.175 79.9216C134.557 79.9216 134.892 79.8738 135.035 79.4914C135.131 79.0612 135.178 78.631 135.131 78.2008C135.131 74.4724 134.461 70.6484 133.888 66.9678C133.553 64.9124 133.171 62.857 132.741 60.8494C132.502 59.4632 132.119 58.077 131.641 56.7386C131.546 56.404 131.354 56.1172 131.115 55.926C130.494 55.5914 129.825 55.448 129.108 55.4958H128.773C128.534 55.4958 128.917 55.4958 128.773 55.4958C127.005 55.448 125.236 55.3524 123.467 55.3046C121.125 55.209 118.783 55.1134 116.393 55.0178C114.816 54.97 113.238 54.8744 111.661 54.9222C111.326 54.8744 110.944 55.0656 110.8 55.4002C110.561 55.8304 110.418 56.3084 110.275 56.7864C109.844 58.4594 109.51 60.1324 109.271 61.8532C108.602 66.1074 108.124 70.4094 107.837 74.7114C107.693 76.1454 107.646 77.5794 107.741 78.9656C107.741 79.2524 107.789 79.587 107.932 79.8738C108.219 80.2084 108.888 80.304 109.319 80.3518C109.797 80.4474 110.322 80.4474 110.8 80.3996C112.521 80.1128 114.194 79.109 115.676 78.2964C117.349 77.3882 118.974 76.4322 120.552 75.4284C120.838 75.2372 121.125 75.0938 121.412 74.9026C121.699 74.7114 120.695 74.5202 120.647 74.5202C120.265 74.2812 119.5 74.0422 119.118 74.2334Z" fill="#59BE4C"/>
<path d="M224.899 53.775C224.899 53.775 211.372 30.8788 209.077 31.4524C206.783 32.026 190.674 39.7218 191.009 42.781C191.343 45.8402 203.724 68.4974 206.209 66.8722C208.695 65.247 209.555 57.838 212.806 56.882C216.056 55.926 226.046 55.7348 224.899 53.775Z" fill="#59BE4C"/>
<path d="M225.998 53.297C224.803 51.2894 223.608 49.3296 222.413 47.3698C220.119 43.6892 217.824 40.0564 215.339 36.5192C214.383 35.0852 213.331 33.7468 212.184 32.4562C211.61 31.787 210.798 30.7832 209.794 30.7832C209.125 30.8788 208.503 31.07 207.882 31.3568C207.165 31.6436 206.4 31.9782 205.683 32.3128C203.58 33.2688 201.572 34.2726 199.565 35.372C197.462 36.4714 195.454 37.7142 193.494 39.1004C192.299 39.9608 190.674 41.0602 190.053 42.4942C189.67 43.4502 190.196 44.5018 190.578 45.3622C191.248 46.9874 192.012 48.5648 192.825 50.1422C194.88 54.1574 197.127 58.077 199.613 61.8532C200.569 63.335 201.668 64.769 202.815 66.1074C203.484 66.8244 204.297 67.7804 205.349 67.7326C207.691 67.637 208.838 64.769 209.651 63.0004C210.129 61.8532 210.607 60.706 211.18 59.6066C211.419 59.1286 211.706 58.6506 212.041 58.2204C212.184 58.077 212.423 57.7902 212.471 57.7902C212.519 57.7902 212.71 57.599 212.662 57.6468C212.614 57.6946 212.853 57.5512 212.662 57.6468C212.471 57.7424 212.805 57.599 212.662 57.6468C212.519 57.6946 212.805 57.599 212.853 57.599C212.662 57.6468 212.805 57.599 212.901 57.599C213.14 57.5512 213.379 57.5034 213.618 57.4556C214.144 57.36 214.67 57.2644 215.195 57.2166C216.39 57.0254 217.633 56.882 218.828 56.7386C220.884 56.4518 223.369 56.2606 225.186 55.1134C225.711 54.7788 226.476 54.1096 226.046 53.4404C225.616 52.7712 223.56 53.8228 223.895 54.4442C223.943 54.5398 223.991 54.6832 223.991 54.6354C223.991 54.731 223.943 54.731 223.991 54.6832C223.943 54.6832 224.038 54.6354 223.991 54.6832C224.038 54.6832 223.991 54.6354 224.038 54.6354C224.086 54.6354 224.23 54.492 224.086 54.5876C224.23 54.492 224.277 54.4442 224.134 54.5876C224.086 54.5876 224.038 54.6354 224.038 54.6354C223.895 54.6832 224.277 54.5398 224.086 54.5876C223.895 54.6354 223.704 54.731 223.513 54.7788L223.369 54.8266C223.178 54.8744 223.513 54.7788 223.369 54.8266L222.987 54.9222C222.461 55.0178 221.935 55.1134 221.409 55.209C219.163 55.5914 216.868 55.7826 214.622 56.165C213.522 56.3084 212.471 56.6908 211.515 57.2644C210.607 57.9336 209.89 58.794 209.364 59.7978C208.217 61.8054 207.643 64.1476 206.4 66.0596C206.305 66.203 206.161 66.3942 206.066 66.5376C205.97 66.6332 205.922 66.7288 205.827 66.7766C205.97 66.6332 205.635 66.8722 205.779 66.8244C206.066 66.681 206.352 66.5854 206.687 66.4898C206.544 66.4898 206.783 66.4898 206.783 66.4898C206.735 66.4898 206.687 66.4898 206.639 66.442C206.496 66.3464 206.687 66.4898 206.544 66.3942C206.448 66.3464 206.352 66.2986 206.305 66.2508C206.113 66.1074 205.922 65.964 205.731 65.8206C204.679 64.8168 203.723 63.6696 202.911 62.4268C200.473 58.9374 198.274 55.2568 196.267 51.4806C195.358 49.7598 194.45 48.0868 193.638 46.3182C193.064 45.171 192.586 43.976 192.251 42.781C192.251 42.6854 192.204 42.6376 192.204 42.542C192.156 42.3508 192.156 42.5898 192.204 42.3986C192.204 42.2074 192.251 42.064 192.347 41.9206C192.395 41.825 192.49 41.6816 192.538 41.586C192.443 41.7294 192.682 41.3948 192.777 41.347C192.873 41.2992 193.016 41.108 193.112 40.9646L193.207 40.869C193.16 40.9168 193.351 40.7256 193.399 40.6778C194.88 39.435 196.506 38.3356 198.179 37.4274C200.186 36.2324 201.955 35.3242 204.058 34.3204C204.918 33.8902 205.779 33.5078 206.639 33.0776C207.022 32.9342 207.356 32.743 207.739 32.5996L208.169 32.4084L208.408 32.3128C208.456 32.3128 208.169 32.4084 208.36 32.3128L208.981 32.0738C209.268 31.9782 208.503 32.1694 208.695 32.1216C208.695 32.1216 208.456 32.1216 208.599 32.1216C208.742 32.1216 208.695 32.1694 208.551 32.1216C208.886 32.3128 209.22 32.504 209.507 32.7908C210.511 33.7946 211.419 34.894 212.232 36.089C214.67 39.3872 216.916 42.8766 219.115 46.366C220.692 48.8516 222.222 51.385 223.704 53.8706L223.943 54.253C224.182 54.97 226.333 53.8706 225.998 53.297Z" fill="#59BE4C"/>
<path d="M193.16 67.9716C193.16 67.9716 186.994 45.6012 184.795 45.6012C182.596 45.6012 168.017 48.8038 167.109 50.0944C166.201 51.385 169.69 75.046 171.459 74.9026C173.227 74.7592 179.967 67.5414 181.831 67.5414C183.695 67.5414 194.307 69.5012 193.16 67.9716Z" fill="#59BE4C"/>
<path d="M194.307 67.7804C193.685 65.5816 193.064 63.4306 192.395 61.2796C191.248 57.4556 190.053 53.6316 188.571 49.9032C188.093 48.517 187.424 47.2264 186.659 45.9836C186.372 45.5534 185.99 45.171 185.559 44.8842C184.986 44.6452 184.317 44.5974 183.695 44.7408C181.974 44.932 180.254 45.3144 178.533 45.6968C176.334 46.1748 174.135 46.7006 171.936 47.2742C170.263 47.6566 168.638 48.1824 167.061 48.8994C166.535 49.0906 166.153 49.473 165.914 49.951C165.818 50.3334 165.77 50.7636 165.77 51.146C165.77 52.5322 165.866 53.8706 166.009 55.2568C166.2 57.2166 166.487 59.1764 166.774 61.1362C167.3 65.008 168.017 68.7842 169.021 72.5604C169.307 73.5164 169.594 74.8548 170.407 75.524C171.745 76.6712 173.466 75.285 174.565 74.4246C176.334 73.0384 177.959 71.5088 179.728 70.1226C180.11 69.8358 180.493 69.5012 180.923 69.2144C181.066 69.1188 181.257 68.9754 181.401 68.8798C181.449 68.832 181.64 68.7364 181.449 68.832C181.544 68.7842 181.64 68.7364 181.735 68.6886C181.831 68.6408 181.974 68.593 182.118 68.5452C182.022 68.593 181.879 68.593 182.07 68.5452C182.261 68.4974 181.783 68.4974 181.974 68.5452C182.166 68.593 182.5 68.593 182.787 68.593C184.699 68.7842 186.611 69.071 188.523 69.31C189.479 69.4056 190.435 69.5012 191.391 69.549C192.156 69.6446 192.921 69.549 193.638 69.3578C194.211 69.1666 194.546 68.593 194.355 68.0194C194.307 67.876 194.259 67.7326 194.163 67.637C193.494 66.6332 191.343 67.2546 192.204 68.4974C192.108 68.354 192.06 68.1628 192.108 68.0194C192.156 67.876 192.251 67.7326 192.443 67.637C192.251 67.7326 192.729 67.5892 192.395 67.637C192.299 67.637 191.821 67.6848 192.156 67.6848C191.343 67.6848 190.578 67.6848 189.766 67.5892C187.854 67.398 185.894 67.159 183.982 66.92C183.313 66.8244 182.644 66.7288 181.974 66.7288C181.257 66.7288 180.493 66.9678 179.919 67.3502C178.246 68.354 176.764 69.6924 175.33 70.983C174.518 71.6522 173.705 72.3692 172.892 72.9906C172.558 73.2296 172.223 73.4686 171.889 73.7076C171.841 73.7554 171.411 73.9944 171.602 73.8988C171.458 73.9944 171.315 74.0422 171.172 74.09C171.028 74.1378 170.98 74.09 171.219 74.09C171.076 74.09 170.98 74.09 171.363 74.09C171.602 74.09 171.889 74.1856 172.08 74.3768C171.889 74.2334 172.223 74.6158 172.128 74.4246C172.08 74.3768 172.032 74.2812 171.984 74.2334C172.032 74.329 172.223 74.5202 171.984 74.2334C171.936 74.1378 171.889 74.0422 171.841 73.9466C171.745 73.7076 171.65 73.4686 171.554 73.1818C170.502 70.027 169.977 66.7288 169.403 63.335C168.782 59.8456 168.351 56.3084 168.112 52.7234C168.065 52.1976 168.065 51.6718 168.065 51.146C168.065 51.0504 168.065 50.9548 168.065 50.8592C168.065 50.9548 168.065 51.2416 168.065 50.8592C168.065 50.8114 168.112 50.7636 168.112 50.668C168.112 50.4768 167.969 50.907 168.065 50.7636C168.065 50.7636 167.873 51.0026 168.065 50.8114C168.112 50.7636 168.399 50.6202 168.065 50.8114C168.304 50.668 168.543 50.5724 168.782 50.4768C169.499 50.19 170.216 49.951 170.933 49.712C172.701 49.1862 174.852 48.6604 176.86 48.1824C178.772 47.7522 180.684 47.322 182.644 46.9874C183.313 46.8918 183.934 46.7484 184.603 46.7006C184.747 46.7006 185.081 46.7006 184.651 46.7006C184.842 46.7006 184.986 46.7484 184.556 46.6528C184.747 46.7006 184.173 46.4616 184.412 46.605C184.221 46.5094 184.173 46.4138 184.364 46.605C184.173 46.366 184.556 46.7962 184.364 46.605C184.412 46.7006 184.46 46.7484 184.556 46.844C184.651 46.9396 184.699 47.0352 184.747 47.1308L184.842 47.2742C184.986 47.5132 184.795 47.1786 184.89 47.322C185.225 47.8956 185.464 48.517 185.751 49.1384C187.185 52.58 188.427 56.1172 189.479 59.7022C190.339 62.4268 191.104 65.1514 191.869 67.876C191.917 68.0194 191.965 68.1628 191.965 68.3062C192.347 69.31 194.641 69.1188 194.307 67.7804Z" fill="#59BE4C"/>
<path d="M162.424 76.4322C162.424 76.4322 159.987 53.1058 158.218 52.9146C156.449 52.7234 141.584 54.3486 140.532 54.8744C139.48 55.4002 141.536 80.0172 143.065 80.0172C144.595 80.0172 150.331 73.6598 152.195 74.329C154.059 74.9982 164.05 78.7744 162.424 76.4322Z" fill="#59BE4C"/>
<path d="M163.476 75.9064C163.237 73.7076 162.998 71.5088 162.711 69.31C162.233 65.3904 161.707 61.423 160.943 57.5034C160.704 56.1172 160.369 54.7788 159.939 53.4404C159.843 53.1058 159.7 52.7712 159.461 52.4844C159.222 52.2932 158.887 52.341 158.553 52.341C154.729 52.3888 150.857 52.9146 147.033 53.3926C145.408 53.5838 143.735 53.775 142.109 54.1096C141.345 54.253 140.628 54.5398 140.006 54.9222C139.624 55.1134 139.337 55.448 139.289 55.8782C139.146 56.9776 139.098 58.1248 139.194 59.272C139.241 61.0884 139.337 62.9048 139.48 64.7212C139.767 68.6408 140.15 72.5604 140.771 76.3844C140.914 77.5794 141.201 78.7744 141.536 79.9216C141.631 80.1606 141.727 80.4952 141.966 80.5908C142.205 80.6386 142.444 80.5908 142.635 80.4952C143.209 80.304 143.735 80.065 144.213 79.7304C146.077 78.631 147.654 77.1014 149.375 75.8108C149.757 75.524 150.14 75.2372 150.57 74.9504L150.713 74.8548C150.761 74.807 150.57 74.9026 150.809 74.807C150.809 74.807 150.713 74.8548 150.761 74.8548C151.239 74.9026 151.765 75.046 152.195 75.2372C154.012 75.9064 155.876 76.5756 157.74 77.1014C158.553 77.3404 159.413 77.5794 160.273 77.675C161.086 77.8184 161.946 77.6272 162.663 77.197C163.285 76.958 163.954 76.5756 163.476 75.9064C163.285 75.5718 161.229 76.8146 161.373 77.0058C161.468 77.1492 161.516 77.2926 161.564 77.436V77.4838C161.229 78.0096 161.755 77.7228 163.046 76.6234C163.141 76.6234 163.189 76.6712 163.046 76.6234H162.711C161.946 76.5278 161.182 76.3844 160.465 76.1932C158.6 75.7152 156.784 75.046 154.968 74.3768C154.394 74.1856 153.868 73.8988 153.295 73.7554C152.482 73.5164 151.526 74.0422 150.809 74.3768C148.849 75.3806 147.128 76.8146 145.455 78.2486C145.121 78.5354 144.738 78.8222 144.404 79.0612C144.213 79.2046 144.069 79.348 143.878 79.4436L143.735 79.5392L143.591 79.6348C143.352 79.7304 143.83 79.5392 143.591 79.6348C143.735 79.587 143.878 79.5392 144.021 79.4436C144.165 79.348 144.069 79.4436 144.069 79.4436C144.069 79.4914 143.974 79.348 143.926 79.2524C143.448 78.5354 143.304 77.3882 143.161 76.5278C142.54 72.9906 142.109 69.4056 141.823 65.8206C141.488 62.5702 141.297 59.272 141.345 55.9738C141.345 55.5914 141.392 55.209 141.44 54.8266C141.44 54.731 141.488 54.6354 141.536 54.492C141.536 54.492 141.536 54.4442 141.584 54.4442L141.536 54.5398C141.918 54.1574 141.44 54.3964 140.197 55.3046C140.006 55.3524 140.054 55.3524 140.197 55.3046C140.006 55.3524 140.389 55.2568 140.197 55.3046L140.341 55.2568L140.675 55.1612C141.01 55.1134 141.345 55.0656 141.631 55.0178C142.492 54.8744 143.304 54.7788 144.165 54.6354C147.989 54.1096 151.861 53.6794 155.732 53.4404C156.21 53.3926 156.641 53.3926 157.119 53.4404C157.358 53.4882 157.405 53.5838 157.549 53.8706C158.027 54.9222 158.314 56.0216 158.505 57.121C159.891 63.4784 160.608 70.027 161.277 76.5278C161.277 76.6712 161.325 76.8146 161.325 76.958C161.325 77.1014 162.424 76.6712 162.472 76.6234C162.711 76.5278 163.524 76.1932 163.476 75.9064Z" fill="#59BE4C"/>
<path d="M27.3894 46.1748V57.2644C27.3894 58.2204 28.919 58.2204 29.4448 57.838L35.7066 53.297L33.6512 52.7234C33.6034 55.209 33.699 57.6946 33.938 60.1802C34.0336 61.0884 35.372 61.184 35.9934 60.7538C39.0048 58.555 41.7294 56.0216 44.1672 53.2014C44.5496 52.7712 44.1672 52.2454 43.6892 52.0542C43.1156 51.8152 42.4942 51.9586 42.064 52.3888C39.7218 55.0656 37.0928 57.5034 34.2726 59.6066L36.328 60.1802C36.0412 57.6946 35.9456 55.209 36.0412 52.7234C36.0412 51.7674 34.5116 51.7674 33.9858 52.1498L27.724 56.643L29.7794 57.2166V46.127C29.7794 44.9798 27.3894 45.0276 27.3894 46.1748Z" fill="#000005"/>
<path d="M68.1629 55.8304C67.4459 55.4958 66.7289 55.1134 65.9641 54.8266C64.8169 54.3486 63.4785 53.6316 62.1879 53.8228C61.6143 53.8706 61.0885 54.0618 60.6105 54.3964C60.3715 54.6832 60.1803 55.0178 60.0847 55.3524C59.7023 56.3084 59.3199 57.2644 58.9853 58.2204C58.2205 60.1802 57.5035 62.0922 56.8343 64.0998C56.7865 64.1476 56.8343 64.2432 56.8821 64.291L63.0961 66.681C63.5741 66.7766 64.0999 66.7288 64.5779 66.5376C64.6735 66.4898 65.6295 66.0596 65.2471 65.9162L59.0809 63.5262L59.1287 63.7174C59.7023 62.0922 60.2759 60.467 60.8973 58.8418C61.1841 58.0292 61.5187 57.2166 61.8055 56.404L62.2357 55.3046C62.3313 54.9222 62.4747 54.5398 62.7137 54.2052L62.0445 54.5398L62.1879 54.492L61.0407 54.731C61.5665 54.7788 62.0445 54.9222 62.5225 55.1612C63.0483 55.3524 63.5741 55.5914 64.0999 55.8304C64.7213 56.1172 65.3427 56.404 65.9641 56.6908C66.3943 56.882 67.0157 56.6908 67.4459 56.5474C67.6371 56.4518 68.5931 56.0216 68.1629 55.8304Z" fill="#000005"/>
<path d="M60.6581 59.5588C62.1877 60.0368 63.7173 60.6104 65.1991 61.2796C65.5815 61.4708 66.1073 61.2796 66.2985 60.8972C66.3463 60.8016 66.3463 60.7538 66.3941 60.6582C66.4897 60.0368 66.1551 59.4154 65.5815 59.1764C64.0997 58.5072 62.5701 57.9336 61.0405 57.4556C60.8015 57.36 60.5147 57.36 60.2757 57.4556C60.0367 57.599 59.8933 57.838 59.8455 58.077C59.7977 58.6984 60.0845 59.3198 60.6581 59.5588Z" fill="#000005"/>
<path d="M86.0879 58.077V67.5414C86.0879 68.2584 85.9445 69.1666 86.3269 69.8358C86.8527 70.6484 87.7131 70.6006 88.5735 70.5528L93.3057 70.3138C94.8353 70.2182 94.2617 68.0672 92.9233 68.115L90.0075 68.2584C89.0515 68.3062 88.0955 68.4018 87.1873 68.4018L87.7609 68.5452L87.6653 68.4974L88.2867 69.1666C88.3345 69.31 88.2867 68.8798 88.2867 68.7842V58.6506C88.2867 58.0292 87.9043 57.4556 87.2829 57.3122C86.8049 57.2166 86.0879 57.4556 86.0879 58.077Z" fill="#000005"/>
<path d="M124.28 60.6104C123.467 59.033 121.316 59.033 119.787 59.272C117.875 59.5588 116.297 60.8972 115.724 62.7614C115.198 64.4822 115.437 66.4898 115.867 68.2584C116.25 69.8358 117.158 71.3176 118.831 71.7956C120.934 72.417 123.372 71.5566 124.949 70.1704C125.332 69.8358 125.475 69.2622 124.997 68.9276C124.471 68.6408 123.802 68.7364 123.372 69.1666C122.368 70.027 120.599 70.744 119.404 69.8358C118.353 69.0232 118.066 67.4458 117.923 66.203C117.731 64.7212 117.588 62.7614 118.687 61.5664C119.165 61.1362 119.835 60.8972 120.504 60.945C120.934 60.945 121.747 60.8972 121.986 61.3752C122.272 61.8532 122.894 62.0444 123.372 61.8054C123.802 61.6142 124.567 61.0884 124.28 60.6104Z" fill="#000005"/>
<path d="M147.272 59.511C145.169 60.0846 143.639 61.8532 143.304 64.0042C143.018 66.2986 144.308 68.4018 146.172 69.5968C148.228 70.9352 151 71.5088 153.247 70.266C154.251 69.7402 155.063 68.832 155.398 67.7326C155.732 66.5376 155.302 65.3426 154.776 64.291C153.534 61.8532 151.096 59.8934 148.323 59.5588C148.228 59.5588 147.941 59.511 147.893 59.6066C147.845 59.7022 148.084 59.8934 148.132 59.9412C148.562 60.3236 149.088 60.5626 149.662 60.6582C149.853 60.6582 150.044 60.706 150.188 60.7538C150.235 60.7538 150.474 60.8494 150.331 60.8016C150.666 60.9928 150.952 61.184 151.191 61.4708C151.813 62.0922 152.339 62.857 152.673 63.6218C153.103 64.5778 153.486 65.6294 153.199 66.681C152.912 67.5892 152.339 68.354 151.574 68.8798C150.809 69.4056 149.949 69.6924 149.088 69.788C148.658 69.8358 148.228 69.788 147.798 69.7402C147.606 69.6924 147.367 69.6446 147.224 69.5012C145.838 68.354 145.216 66.5376 145.503 64.8168C145.886 62.857 147.32 61.2796 149.279 60.706C149.662 60.6104 148.754 60.0368 148.706 59.989C148.323 59.7022 147.702 59.3676 147.272 59.511Z" fill="#000005"/>
<path d="M174.135 65.8684C173.418 62.4746 173.084 59.033 173.084 55.5436L170.933 56.404L178.485 63.1916C178.915 63.574 180.588 62.9048 180.636 62.3312C180.732 59.1764 181.162 56.0216 181.927 52.9624L179.68 53.7272C181.114 56.643 182.309 59.6544 183.265 62.7136C183.456 63.335 185.703 62.5224 185.464 61.8054C184.508 58.6984 183.265 55.7348 181.879 52.819C181.544 52.1498 179.776 53.058 179.632 53.5838C178.868 56.643 178.39 59.7978 178.342 62.9526L180.493 62.0922L172.94 55.3046C172.51 54.9222 170.789 55.5914 170.789 56.165C170.789 59.7022 171.124 63.2872 171.841 66.7766C172.032 67.3502 174.279 66.6332 174.135 65.8684Z" fill="#000005"/>
<path d="M204.01 39.5306C202.529 39.9608 201.095 40.5822 199.804 41.3948C199.326 41.6816 198.466 42.064 198.274 42.6376C198.083 43.2112 198.705 44.1194 198.991 44.6452L203.724 53.9184C203.963 54.4442 205.062 55.2568 205.588 54.7788L211.563 49.951C212.041 49.5686 210.272 48.039 209.603 48.5648L203.628 53.3926L205.492 54.253L201.19 45.8402L200.664 44.7886C200.569 44.5974 200.186 44.1194 200.234 43.8804C200.282 43.6414 200.76 43.4024 200.951 43.3068C201.19 43.1156 201.477 42.9722 201.764 42.781C203.007 42.064 204.345 41.4904 205.731 41.0602C206.209 40.9168 205.588 40.1998 205.444 40.0564C205.11 39.7218 204.536 39.3872 204.01 39.5306Z" fill="#000005"/>
<path d="M203.341 49.2818L205.922 47.2742C206.161 47.1308 206.305 46.8918 206.305 46.605C206.305 46.3182 206.209 46.0792 206.018 45.888C205.54 45.4578 204.871 45.41 204.345 45.7446L201.764 47.7522C201.525 47.8956 201.381 48.1346 201.381 48.4214C201.381 48.7082 201.477 48.9472 201.668 49.1384C202.146 49.5686 202.815 49.6164 203.341 49.2818Z" fill="#000005"/>
</svg>
