<svg xmlns="http://www.w3.org/2000/svg" width="800" height="800" viewBox="0 0 64 64"><defs><style>.cls-1{fill:none;stroke:#000;stroke-linejoin:round;stroke-width:2px}</style></defs><g id="Layer_22" data-name="Layer 22"><path d="M40 52v-2l-5.49-4.8A7.4 7.4 0 0 1 32 39.66V34a4 4 0 0 1 4-4 4 4 0 0 1 4 4v2" class="cls-1"/><path d="M36 30v-4a8 8 0 0 1 8-8h10a8 8 0 0 1 8 8v9.51A20.5 20.5 0 0 1 56 50v2M38 52h20v10H38zM36 26h26" class="cls-1"/><path d="M38 56h6v6M24 52v-2l5.49-4.8A7.4 7.4 0 0 0 32 39.66V34a4 4 0 0 0-4-4 4 4 0 0 0-4 4v2" class="cls-1"/><path d="M28 30v-4a8 8 0 0 0-8-8H10a8 8 0 0 0-8 8v9.51A20.5 20.5 0 0 0 8 50v2M26 62H6V52h20zM28 26H2" class="cls-1"/><path d="M26 56h-6v6M24 15l-5-5h7l-3-6 7 3 2-5 3 5 5-3-2 6h7l-5 5" class="cls-1"/></g></svg>