<svg xmlns="http://www.w3.org/2000/svg" xml:space="preserve" width="800" height="800" viewBox="0 0 64 64"><path d="M15.2 31.3c0-.6-.5-1.1-1.1-1.1-5.2 0-9.4 4.2-9.4 9.4 0 .6.5 1.1 1.1 1.1s1.1-.5 1.1-1.1c0-4 3.2-7.2 7.2-7.2.6 0 1.1-.5 1.1-1.1M21.3 39.6c0 4-3.2 7.2-7.2 7.2-.6 0-1.1.5-1.1 1.1s.5 1.1 1.1 1.1c5.2 0 9.4-4.2 9.4-9.4 0-.6-.5-1.1-1.1-1.1s-1.1.4-1.1 1.1"/><path d="M61.2 31.2 48.6 12.8l-.1-.1c-1.4-1.5-3.3-2.3-5.3-2.3-4 0-7.3 3.3-7.3 7.3 0 1-.3 4.6-2 4.6h-3.7c-1.6 0-2-3.6-2-4.6 0-4-3.3-7.3-7.3-7.3-2 0-4 .8-5.3 2.3l-.1.1L2.8 31.1s0 .1-.1.1C1 33.6 0 36.5 0 39.6c0 7.8 6.3 14.1 14.1 14.1s14.1-6.3 14.1-14.1c0-7 1.9-8.4 2.2-8.6h3.3c.4.3 2.2 1.8 2.2 8.6 0 7.8 6.3 14.1 14.1 14.1s14-6.4 14-14.1c0-3.1-.9-5.9-2.8-8.4M14.1 51.4c-6.5 0-11.9-5.3-11.9-11.9 0-2.6.8-5 2.3-7l.1-.1c2.3-3 5.7-4.8 9.5-4.8 6.5 0 11.9 5.3 11.9 11.9s-5.4 11.9-11.9 11.9m12.5-18.2c0-.1-.1-.2-.1-.2-.1-.1-.1-.2-.2-.3-.2-.3-.3-.6-.5-.9 0-.1-.1-.1-.1-.2-.2-.3-.5-.6-.7-1l-.2-.2c-.2-.2-.4-.5-.6-.7-.1-.1-.1-.2-.2-.2-.3-.3-.6-.5-.9-.8l-.1-.1c-.3-.2-.5-.4-.8-.6-.1-.1-.2-.1-.3-.2l-.9-.6-.1-.1c-.4-.2-.7-.4-1.1-.5-.1 0-.2-.1-.3-.1l-.9-.3c-.1 0-.2-.1-.3-.1l-1.2-.3h-.2c-.3-.1-.7-.1-1-.2h-.3c-.4 0-.9-.1-1.3-.1-.5 0-1 0-1.6.1-.2 0-.3.1-.5.1-.3 0-.7.1-1 .2-.2 0-.4.1-.6.1l-.9.3c-.2.1-.4.1-.6.2-.1 0-.2.1-.3.1l8.5-12.4c1-1 2.3-1.6 3.7-1.6 2.8 0 5.1 2.3 5.1 5.1 0 2.2.7 5.8 3.1 6.6v4.9c-.9.5-1.9 1.6-2.6 4m4.6-8.8h1.5v4.3h-1.5zm6.2 8.8c-.7-2.4-1.7-3.6-2.4-4.1v-4.9c2.4-.8 3.1-4.4 3.1-6.6 0-2.8 2.3-5.1 5.1-5.1 1.4 0 2.7.6 3.7 1.6l8.5 12.4c-.1 0-.2-.1-.4-.1-.2-.1-.4-.1-.6-.2l-.9-.3c-.2 0-.4-.1-.6-.1-.3-.1-.7-.1-1-.2-.2 0-.3-.1-.5-.1-.5-.1-1-.1-1.6-.1-.4 0-.9 0-1.3.1h-.3c-.3 0-.7.1-1 .2H47l-1.2.3c-.1 0-.2.1-.3.1l-.9.3c-.1 0-.2.1-.3.1-.4.2-.7.3-1.1.5l-.1.1-.9.6c-.1.1-.2.1-.3.2-.3.2-.6.4-.8.6l-.1.1c-.3.3-.6.5-.9.8-.1.1-.1.2-.2.2-.2.2-.4.5-.6.7l-.2.2c-.3.3-.5.6-.7 1 0 .1-.1.1-.1.2-.2.3-.4.6-.5.9-.1.1-.1.2-.2.3-.1.2-.2.2-.2.3m12.5 18.2c-6.5 0-11.9-5.3-11.9-11.9s5.3-11.9 11.9-11.9c3.8 0 7.2 1.7 9.5 4.8 1.5 2.1 2.3 4.5 2.3 7 .1 6.7-5.2 12-11.8 12"/><path d="M49.9 30.2c-.6 0-1.1.5-1.1 1.1s.5 1.1 1.1 1.1c4 0 7.2 3.2 7.2 7.2 0 .6.5 1.1 1.1 1.1s1.1-.5 1.1-1.1c0-5.2-4.2-9.4-9.4-9.4M49.9 46.7c-4 0-7.2-3.2-7.2-7.2 0-.6-.5-1.1-1.1-1.1s-1.1.5-1.1 1.1c0 5.2 4.2 9.4 9.4 9.4.6 0 1.1-.5 1.1-1.1s-.5-1.1-1.1-1.1"/></svg>