<svg xmlns="http://www.w3.org/2000/svg" width="800" height="800" viewBox="0 0 64 64"><path d="M21.34 31.87a1 1 0 0 0 1-1v-1.59a1 1 0 0 0-2 0v1.59a1 1 0 0 0 1 1"/><path d="m48.45 29.59.46-1.59a2.79 2.79 0 0 0-2.67-3.57h-.81v-9.32A8.12 8.12 0 0 0 37.32 7H26.7a8.12 8.12 0 0 0-8.12 8.11v9.33h-.82A2.79 2.79 0 0 0 15.09 28l.46 1.58a14.3 14.3 0 0 0-4.34 23.22A14.3 14.3 0 0 0 32 52.22a14.31 14.31 0 1 0 16.45-22.63M20.58 15.11A6.12 6.12 0 0 1 26.7 9h10.62a6.12 6.12 0 0 1 6.11 6.11v9.33h-1.52v-9.33a4.6 4.6 0 0 0-4.59-4.59H26.7a4.6 4.6 0 0 0-4.6 4.59v9.33h-1.52ZM36.4 28l.46 1.58A14.4 14.4 0 0 0 32 33.14a14.35 14.35 0 0 0-4.85-3.56L27.6 28a2.79 2.79 0 0 0-2.68-3.57h-.82v-9.32a2.6 2.6 0 0 1 2.6-2.59h10.62a2.59 2.59 0 0 1 2.59 2.59v9.33h-.83A2.79 2.79 0 0 0 36.4 28M9 42.67a12.39 12.39 0 0 1 8.1-11.56 1 1 0 0 0 .61-1.22L17 27.45a.83.83 0 0 1 .12-.7.78.78 0 0 1 .63-.31h7.16a.78.78 0 0 1 .63.31.8.8 0 0 1 .13.7L25 29.89a1 1 0 0 0 .62 1.22 12.4 12.4 0 0 1 5.18 3.62 14.2 14.2 0 0 0-1.68 3.41 9 9 0 0 0-7.74-4.45 9 9 0 0 0-2.98 17.45 3.6 3.6 0 0 0-.74 2.18 3.5 3.5 0 0 0 .22 1.18A12.31 12.31 0 0 1 9 42.67m12.33 7a7 7 0 1 1 0-14 7 7 0 1 1 0 14m0 5.36a1.68 1.68 0 1 1 0-3.36 9 9 0 0 0 7.73-4.43 14.2 14.2 0 0 0 1.67 3.41A12.23 12.23 0 0 1 21.34 55Zm30-3.61a12.3 12.3 0 0 1-5.26 3.11 3.5 3.5 0 0 0 .22-1.18 3.6 3.6 0 0 0-.74-2.18 9 9 0 0 0-2.94-17.45 9 9 0 1 0 0 18 1.68 1.68 0 1 1 0 3.36 12.32 12.32 0 0 1-4.24-23.89 1 1 0 0 0 .63-1.3l-.72-2.44a.8.8 0 0 1 .13-.7.78.78 0 0 1 .63-.31h7.16a.78.78 0 0 1 .63.31.83.83 0 0 1 .12.7l-.71 2.44a1 1 0 0 0 .61 1.22 12.31 12.31 0 0 1 4.49 20.28Zm-15.7-8.73a7 7 0 0 1 7-7 7 7 0 1 1 0 14 7 7 0 0 1-6.95-7.03Z"/><path d="M42.66 28.28a1 1 0 0 0-1 1v1.59a1 1 0 1 0 2 0v-1.59a1 1 0 0 0-1-1"/></svg>