<svg xmlns="http://www.w3.org/2000/svg" xml:space="preserve" width="800" height="800" viewBox="0 0 204.36 204.36"><path d="M41.966 88.933c8.815 0 15.983-7.172 15.983-15.987S50.78 56.963 41.966 56.963s-15.983 7.168-15.983 15.983 7.168 15.987 15.983 15.987m0-28.696c7.007 0 12.716 5.698 12.716 12.709s-5.708 12.712-12.716 12.712-12.709-5.705-12.709-12.712 5.701-12.709 12.709-12.709M108.747 88.933c8.815 0 15.983-7.172 15.983-15.987s-7.168-15.983-15.983-15.983c-8.822 0-15.99 7.168-15.99 15.983s7.168 15.987 15.99 15.987m0-28.696c7.007 0 12.708 5.698 12.708 12.709s-5.701 12.712-12.708 12.712c-7.011 0-12.719-5.705-12.719-12.712s5.708-12.709 12.719-12.709" style="fill:#010002"/><path d="M173.138 98.585h-19.612V70.487h-10.611c-.855-18.134-15.661-32.281-33.877-32.281-14.691 0-27.779 9.598-32.271 23.492-4.499-13.893-17.59-23.492-32.281-23.492a33.8 33.8 0 0 0-33.877 32.281H0v95.666h153.526v-20.904h19.612l31.222 9.681V88.908zm1.886 43.823V101.43l26.072-8.074v57.136zm-3.279-40.552v40.119h-18.223v-40.119zM44.485 41.484c16.899 0 30.642 13.743 30.642 30.639v.397h3.271v-.397c0-16.892 13.743-30.639 30.639-30.639s30.646 13.743 30.646 30.639v1.639h10.576v89.121H3.275V73.758H13.85v-1.639c0-16.892 13.739-30.635 30.635-30.635" style="fill:#010002"/></svg>