<svg xmlns="http://www.w3.org/2000/svg" width="800" height="800" fill="none" viewBox="0 0 400 400"><path stroke="#000" stroke-linecap="round" stroke-linejoin="round" stroke-opacity=".9" stroke-width="16" d="M109.898 84.763c6.235-6.53 10.971-9.785 19.746-12.436 37.051-11.193 43.194 51.624 15.197 68.538-36.065 21.787-62.784-27.009-37.393-49.385M267.376 100.825c9.478-7.783 25.843-11.647 38.294-6.665 40.195 16.085 18.214 70.212-22.069 64.839-27.152-3.621-25.656-53.36-4.542-61.81M189.401 187.114c8.788-6.978 23.964-10.442 35.508-5.975 37.272 14.421 16.89 62.949-20.463 58.131-25.177-3.246-23.791-47.84-4.212-55.415M87 272.568C88.426 269.79 87 211 106.5 175c3.833 18.667 6.2 80.2 3 91m55.173-30.002c-6.106-6.973-14.556-50.905-15.173-56.998-2.833 14-6.8 64.7-6 83.5M325.264 281.568q-18.258 2.889-24.123 3.551c-20.295 2.291-27.253 2.159-29.382 2.159-4.117 0 22.405-111.627 29.382-111.627 4.651 0 24.123 68.849 53.358 109.468"/><path stroke="#000" stroke-linecap="round" stroke-linejoin="round" stroke-opacity=".9" stroke-width="16" d="M109.027 265.186q-2.966 19.81-2.966 47.225t2.966 51.727l-11.593 2.211M143 265q4.5 14.953 4.5 40.155T143 359h9M160.035 234.954q7.871 14.445 11.37 15.726 3.498 1.28 18.724 5.204m41.248-2.386q14.364-2.178 18.737-6.021a174 174 0 0 1 9.621-7.825M190.366 258.209l6.767 42.063-6.767 47.472-17.379-27.317-8.314-2.806M230.169 252.395l-11.01 48.31 11.01 41.225 18.77-26.55 9.636-2.946M291.035 287.279v82.191l-9.274 1.53M316.54 283.791V371h9.274"/><path stroke="#000" stroke-linecap="round" stroke-linejoin="round" stroke-opacity=".9" stroke-width="16" d="M300.31 175.651q-35.098 61.203-42.894 67.442"/></svg>