<svg xmlns="http://www.w3.org/2000/svg" width="800" height="800" viewBox="0 0 64 64"><g data-name="Magic Book"><path d="M52.71 42.72H36.9a5.89 5.89 0 0 0-4.9 2.62 5.89 5.89 0 0 0-4.9-2.62H11.29A4.29 4.29 0 0 0 7 47v7.57A2.42 2.42 0 0 0 9.42 57h45.16A2.42 2.42 0 0 0 57 54.58V47a4.29 4.29 0 0 0-4.29-4.28m-15.81 2h15.81A2.3 2.3 0 0 1 55 47v.6H39.48a1 1 0 0 0 0 2H55v1.48H33v-2.46a3.91 3.91 0 0 1 3.9-3.9m-25.61 0H27.1a3.91 3.91 0 0 1 3.9 3.9v2.47H9v-1.48h15.52a1 1 0 0 0 0-2H9V47a2.29 2.29 0 0 1 2.29-2.28M9 54.58v-1.49h22V55H9.42a.42.42 0 0 1-.42-.42m46 0a.42.42 0 0 1-.42.42H33v-1.91h22ZM20.38 25.17a1 1 0 0 0-1.21.61 10.44 10.44 0 0 0 1.48 9.67A13.17 13.17 0 0 0 32 41.2c5.91 0 12.42-3 13.24-8.83 1.25-8.78-3.19-10.83-3.38-10.91a1 1 0 0 0-1.28 1.38 3.72 3.72 0 0 1 .25 2.74 2.2 2.2 0 0 1-.68.84c-.07-2.52-2-5.38-5.5-8.26-2.71-2.21-.15-5.95 0-6.11a1 1 0 0 0 0-1.14 1 1 0 0 0-1.06-.4c-4.12 1-11.46 5.09-9.78 13.14.6 2.92.21 4.37-.36 4.76a1.32 1.32 0 0 1-1.35-.2 2 2 0 0 1-1-1.87 1 1 0 0 0-.72-1.17M35.2 37.84c-.22.73-1 1.17-2.29 1.31h-1.26c-1 0-2.21-.22-2.67-.92-.78-1.18.38-3.92 1.23-5.92.31-.72.59-1.38.81-2 2.47 2.15 4.72 5.69 4.18 7.53m-10.7-7.77c1-.71 2.1-2.46 1.19-6.83-1.19-5.77 3.24-8.72 6.09-10a5.6 5.6 0 0 0 1.58 6.46c3.69 3 5.39 6 4.54 8a1 1 0 0 0 1.18 1.36 5 5 0 0 0 3.55-2.69 3.4 3.4 0 0 0 .22-.68 12.9 12.9 0 0 1 .38 6.39c-.35 2.49-2.36 5-6.1 6.25.94-3.39-3-8.48-6.16-10.52a1 1 0 0 0-1.54.75 13.3 13.3 0 0 1-1.06 3c-.93 2.19-2 4.62-1.56 6.57a11.2 11.2 0 0 1-4.51-3.82 9.5 9.5 0 0 1-1.72-4.69l.34.25a3.19 3.19 0 0 0 3.58.2M9.06 13.13c-1.24.63-2.06 1-2.06 1.95S7.82 16.4 9.06 17a9.28 9.28 0 0 1 4.07 4.08c.63 1.23 1 2 1.95 2s1.32-.82 1.94-2A9.25 9.25 0 0 1 21.1 17c1.23-.62 2-1 2-1.94s-.82-1.32-2-1.95A9.23 9.23 0 0 1 17 9.06C16.4 7.82 16 7 15.08 7s-1.32.82-1.95 2.06a9.26 9.26 0 0 1-4.07 4.07M14.92 10c0-.09.1-.2.16-.31l.15.31a11.24 11.24 0 0 0 5 5l.31.16-.31.15a11.32 11.32 0 0 0-5 5c0 .09-.1.19-.15.31-.06-.12-.12-.22-.16-.31a11.35 11.35 0 0 0-5-5l-.32-.15.32-.16a11.27 11.27 0 0 0 5-5M55.33 18.11a6.6 6.6 0 0 1-2.91-2.91c-.47-.93-.84-1.67-1.67-1.67s-1.2.74-1.67 1.67a6.6 6.6 0 0 1-2.91 2.91c-.93.47-1.67.84-1.67 1.67s.74 1.21 1.67 1.68a6.58 6.58 0 0 1 2.91 2.9c.47.94.84 1.67 1.67 1.67s1.2-.73 1.67-1.67a6.58 6.58 0 0 1 2.91-2.9c.93-.46 1.67-.84 1.67-1.68s-.74-1.2-1.67-1.67m-4.58 5.14a8.7 8.7 0 0 0-3.46-3.47 8.66 8.66 0 0 0 3.46-3.46 8.63 8.63 0 0 0 3.47 3.46 8.65 8.65 0 0 0-3.47 3.47"/></g></svg>