<svg xmlns="http://www.w3.org/2000/svg" xml:space="preserve" width="800" height="800" viewBox="0 0 297.69 297.69"><path d="M67.93 97.818c3.457 0 6.844-1.406 9.29-3.853 2.457-2.446 3.854-5.833 3.854-9.291s-1.396-6.854-3.854-9.301a13.23 13.23 0 0 0-9.29-3.842 13.26 13.26 0 0 0-9.292 3.842 13.24 13.24 0 0 0-3.852 9.301 13.23 13.23 0 0 0 3.852 9.291 13.23 13.23 0 0 0 9.292 3.853M272.539 47.791c0 5.489-4.395 9.945-9.815 9.945-5.425 0-10.191-6.94-10.191-12.434 0 4.119-3.669 7.461-7.736 7.461-4.065 0-7.733-3.342-7.733-7.461 0 5.493-4.769 12.434-10.188 12.434-5.426 0-9.818-4.456-9.818-9.945 0 0-14.727-.154-14.727 19.735 0 0 19.637 0 19.637 14.919 0 0 17.928 4.82 22.831 14.767 4.908-9.946 22.835-14.767 22.835-14.767 0-14.919 19.635-14.919 19.635-14.919-.004-19.889-14.73-19.735-14.73-19.735M130.342 37.143s17.927 4.82 22.834 14.767c4.905-9.946 22.832-14.767 22.832-14.767 0-14.918 19.636-14.918 19.636-14.918 0-19.89-14.729-19.737-14.729-19.737 0 5.488-4.394 9.946-9.814 9.946-5.427 0-10.193-6.941-10.193-12.434 0 4.117-3.667 7.46-7.732 7.46-4.068 0-7.737-3.343-7.737-7.46 0 5.493-4.768 12.434-10.189 12.434-5.424 0-9.817-4.458-9.817-9.946 0 0-14.728-.152-14.728 19.737-.001 0 19.637 0 19.637 14.918"/><path d="M236.319 297.69c7.259 0 13.167-6.575 13.167-13.834V145.023l5.957 1.667c6.028 0 11.367-4.268 12.832-10.115 1.466-5.848-1.194-12.025-6.51-14.868l-84.708-45.345c-3.853-2.061-8.226-2.091-12.086-.052l-48.486 25.725V83.202c4-1.141 7.299-4.263 8.717-8.466 1.805-5.343-.119-11.24-4.603-14.658L75.96 26.098a13.185 13.185 0 0 0-15.965 0l-44.592 33.98c-4.484 3.418-6.049 9.315-4.245 14.658 1.765 5.227 6.328 8.781 12.328 8.933v200.188c0 7.259 5.392 13.834 12.65 13.834zm-146.833-228v46.23l-10.619 5.672c-5.34 2.821-8.011 9.088-6.558 14.951s6.775 10.146 12.816 10.146h4.361v124h-40V67.661l18.249-14.53L89.486 69.75zm134 61v140h-41v-43.956c0-7.26-5.741-13.143-12.999-13.143-7.26 0-13.001 5.884-13.001 13.143v43.956h-40v-139 .156l54.388-29.011 52.612 28.081z"/><path d="M186.779 176.69h16.176c7.259 0 13.144-5.741 13.144-13s-5.885-13-13.144-13h-16.176c-7.259 0-13.144 5.741-13.144 13s5.885 13 13.144 13"/></svg>