<svg xmlns="http://www.w3.org/2000/svg" xml:space="preserve" width="800" height="800" viewBox="0 0 512 512"><path d="M366.326 2.877c-16.847-6.426-35.491-1.883-47.497 11.572L128.884 227.314c-14.592 16.353-14.592 41.019.001 57.372l189.944 212.865c8.386 9.399 20.012 14.448 32.004 14.448 5.172 0 10.415-.938 15.493-2.874 16.847-6.425 27.734-22.227 27.734-40.259V43.135c0-18.031-10.885-33.833-27.734-40.258m7.335 465.989c0 11.524-7.543 18.505-14.603 21.197-7.058 2.688-17.337 2.506-25.009-6.094L144.105 271.103c-7.684-8.61-7.684-21.597-.001-30.207L334.049 28.032c7.673-8.597 17.951-8.785 25.009-6.093 7.059 2.692 14.603 9.674 14.603 21.196z"/><path d="m284.866 378.748-4.669-5.234c-3.749-4.201-10.197-4.571-14.402-.82-4.202 3.752-4.571 10.199-.82 14.402l4.67 5.234a10.18 10.18 0 0 0 7.615 3.409c2.415 0 4.842-.854 6.787-2.589 4.202-3.752 4.57-10.199.819-14.402M256.731 347.219l-85.937-96.307c-3.75-4.202-10.197-4.571-14.401-.819-4.202 3.75-4.57 10.198-.819 14.401l85.937 96.307a10.18 10.18 0 0 0 7.614 3.409c2.415 0 4.842-.854 6.787-2.59 4.202-3.75 4.57-10.198.819-14.401"/></svg>