<svg xmlns="http://www.w3.org/2000/svg" xml:space="preserve" width="800" height="800" viewBox="0 0 512 512"><path d="M383.117 227.314 193.17 14.45C181.165.994 162.523-3.548 145.674 2.877c-16.848 6.424-27.734 22.227-27.734 40.258v425.732c0 18.031 10.886 33.833 27.734 40.258a43.5 43.5 0 0 0 15.494 2.876c11.991 0 23.618-5.05 32.004-14.448l189.946-212.866c14.591-16.354 14.591-41.019-.001-57.373m-15.221 43.79L177.951 483.969c-7.672 8.598-17.949 8.784-25.008 6.093s-14.603-9.674-14.603-21.196V43.135c0-11.523 7.544-18.504 14.603-21.196a23.6 23.6 0 0 1 8.341-1.531c5.59 0 11.679 2.035 16.667 7.624l189.945 212.866c7.684 8.609 7.684 21.597 0 30.206"/><path d="m247.026 124.904-4.669-5.232c-3.752-4.203-10.199-4.571-14.401-.819-4.203 3.752-4.57 10.199-.819 14.401l4.669 5.233a10.17 10.17 0 0 0 7.613 3.409c2.416 0 4.843-.854 6.788-2.59 4.203-3.753 4.569-10.2.819-14.402M356.427 247.507 270.49 151.2c-3.75-4.201-10.199-4.571-14.401-.819-4.203 3.75-4.571 10.198-.82 14.401l85.937 96.307a10.17 10.17 0 0 0 7.614 3.409c2.416 0 4.843-.853 6.788-2.59 4.202-3.75 4.57-10.198.819-14.401"/></svg>