<svg xmlns="http://www.w3.org/2000/svg" xml:space="preserve" width="800" height="800" viewBox="0 0 512 512"><path d="M122.725 199.913c-12.248 0-22.213 9.965-22.213 22.213s9.965 22.213 22.213 22.213 22.213-9.965 22.213-22.213c-.001-12.248-9.965-22.213-22.213-22.213M189.362 199.913c-12.248 0-22.213 9.965-22.213 22.213s9.965 22.213 22.213 22.213 22.213-9.965 22.213-22.213-9.965-22.213-22.213-22.213M389.276 199.913c-12.248 0-22.213 9.965-22.213 22.213s9.965 22.213 22.213 22.213 22.213-9.965 22.213-22.213c-.001-12.248-9.965-22.213-22.213-22.213M322.638 199.913c-12.248 0-22.213 9.965-22.213 22.213s9.965 22.213 22.213 22.213 22.213-9.965 22.213-22.213c-.001-12.248-9.965-22.213-22.213-22.213M256 199.913c-12.248 0-22.213 9.965-22.213 22.213s9.965 22.213 22.213 22.213 22.213-9.965 22.213-22.213-9.965-22.213-22.213-22.213"/><path d="M422.246 155.961C416.741 69.037 344.287 0 256 0S95.259 69.037 89.754 155.96C39.76 160.825.555 203.084.555 254.334v23.323c0 .494.043.977.106 1.454q.022.168.051.337.107.669.29 1.308.014.052.027.102c.142.473.32.931.522 1.375q.058.122.118.244.29.603.646 1.162c.022.034.037.072.059.107q.027.038.052.077l.058.086c29.891 45.466 80.2 72.604 134.618 72.604h18.942v33.319c0 6.133 4.973 11.106 11.106 11.106h5.807l-38.332 95.832a11.108 11.108 0 0 0 10.312 15.231H256c6.133 0 11.106-4.973 11.106-11.106s-4.973-11.106-11.106-11.106h-94.658l35.54-88.85h96.024l35.54 88.85h-5.809c-6.133 0-11.106 4.973-11.106 11.106s4.973 11.106 11.106 11.106h22.213a11.105 11.105 0 0 0 10.312-15.231l-38.332-95.832h5.807c6.133 0 11.106-4.973 11.106-11.106v-33.319h41.154c54.42 0 104.727-27.138 134.617-72.602l.058-.086q.027-.038.052-.077c.022-.034.038-.072.059-.107q.358-.56.646-1.162.062-.123.119-.245c.202-.444.38-.902.522-1.375q.014-.051.027-.102a11 11 0 0 0 .341-1.645c.062-.476.105-.96.105-1.454v-23.323c.002-51.25-39.204-93.509-89.197-98.374M256 22.213c75.875 0 138.269 58.833 143.959 133.276H112.041C117.731 81.046 180.125 22.213 256 22.213m55.531 356.511H178.256v-22.213h133.275zm177.701-112.173H167.15c-6.133 0-11.106 4.973-11.106 11.106s4.973 11.106 11.106 11.106h310.593c-26.101 28.822-63.204 45.536-102.844 45.536H137.102c-39.641 0-76.743-16.714-102.844-45.536h66.255c6.133 0 11.106-4.973 11.106-11.106s-4.973-11.106-11.106-11.106H22.768v-12.217c0-42.256 34.377-76.633 76.633-76.633h313.198c42.256 0 76.633 34.377 76.633 76.633z"/><path d="M300.203 498.728a10.5 10.5 0 0 0-.634-2.077 11 11 0 0 0-1.022-1.92 10.5 10.5 0 0 0-1.377-1.689 10.6 10.6 0 0 0-1.688-1.377c-.6-.411-1.244-.744-1.921-1.022a11 11 0 0 0-2.076-.644 11.4 11.4 0 0 0-4.331 0 11 11 0 0 0-2.077.644c-.677.278-1.321.611-1.92 1.022-.612.4-1.178.866-1.689 1.377a10.6 10.6 0 0 0-1.377 1.689c-.399.6-.744 1.243-1.022 1.92-.278.667-.5 1.366-.644 2.077a11 11 0 0 0-.21 2.166 11.18 11.18 0 0 0 3.254 7.851c.511.512 1.077.978 1.689 1.377.6.4 1.243.744 1.92 1.022a10.4 10.4 0 0 0 2.077.633c.711.144 1.444.222 2.166.222.721 0 1.455-.078 2.166-.222a10.4 10.4 0 0 0 2.076-.633 11 11 0 0 0 1.921-1.022 10.5 10.5 0 0 0 1.688-1.377c.512-.511.979-1.077 1.377-1.688.4-.6.744-1.244 1.022-1.921.278-.666.5-1.365.633-2.076.144-.712.222-1.445.222-2.166a11 11 0 0 0-.223-2.166"/></svg>