<svg xmlns="http://www.w3.org/2000/svg" xml:space="preserve" width="800" height="800" viewBox="0 0 511.999 511.999"><path d="M464.585 14.332c-19.111-19.11-50.207-19.11-69.318 0l-88.113 88.113c-10.991-7.609-26.212-6.545-35.993 3.235-8.388 8.388-10.36 20.779-5.958 31.073l-56.058 56.058a8.867 8.867 0 0 0 12.537 12.539l54.192-54.193 60.48 60.48-.37.05c-20.829 2.79-42.365 5.675-65.124 20.169-8.784 5.594-15.702 11.608-21.15 18.386-10.064 12.522-14.673 22.774-19.13 32.689-1.752 3.896-3.563 7.925-5.714 12.112-1.343 2.61-13.812 25.977-37.776 42.341-25.492 17.406-52.369 18.625-65.287 19.212-15.534.705-30.973-1.079-46.071-5.292l67.736-67.737a8.867 8.867 0 0 0-12.537-12.539L35.68 366.279a8.865 8.865 0 0 0 0 12.54 125.5 125.5 0 0 0 20.595 16.649c20.644 13.353 44.377 20.038 68.115 20.038 32.126 0 64.252-12.229 88.71-36.685L358.745 233.17l.248.248c5.501 5.5 12.725 8.25 19.951 8.25 7.225 0 14.452-2.751 19.953-8.25 11.002-11.003 11.002-28.902 0-39.905l-22.088-22.088 87.773-87.775c19.114-19.11 19.114-50.207.003-69.318M200.56 366.277c-31.165 31.165-76.831 39.207-115.477 24.124-.505-.197-1.001-.422-1.504-.628-1.036-.422-2.073-.837-3.098-1.293a107 107 0 0 1-25.737-16.187l6.822-6.822c19.868 6.804 40.371 9.777 61.041 8.834 13.414-.609 44.828-2.033 74.482-22.281 27.574-18.83 41.992-45.854 43.546-48.876 2.365-4.602 4.273-8.846 6.119-12.951 4.365-9.71 8.135-18.097 16.779-28.849 4.215-5.246 9.729-10.002 16.853-14.539 19.185-12.218 36.793-14.714 57.075-17.434zm185.802-160.226c4.088 4.088 4.088 10.739 0 14.827-4.089 4.089-10.741 4.089-14.828 0L283.7 133.045c-4.088-4.088-4.088-10.739 0-14.827a10.45 10.45 0 0 1 7.414-3.066c2.686 0 5.37 1.021 7.414 3.066zm65.686-134.938-87.65 87.65-44.242-44.244 87.65-87.649c12.197-12.197 32.044-12.198 44.242-.001 12.196 12.199 12.196 32.046 0 44.244"/><path d="M174.793 239.701a8.867 8.867 0 0 0-12.537 0l-8.866 8.866a8.867 8.867 0 0 0 6.269 15.135 8.84 8.84 0 0 0 6.269-2.596l8.866-8.866a8.87 8.87 0 0 0-.001-12.539M153.982 436.158a8.865 8.865 0 0 0-12.345 0c-6.27 6.081-26.725 27.147-26.725 42.943 0 18.141 14.757 32.898 32.898 32.898s32.898-14.757 32.898-32.898c-.001-15.796-20.457-36.862-26.726-42.943m-6.173 58.11c-8.363 0-15.166-6.804-15.166-15.166 0-3.791 5.88-13.517 15.146-23.789 8.024 8.969 15.188 19.311 15.188 23.789-.002 8.363-6.805 15.166-15.168 15.166"/></svg>