<svg xmlns="http://www.w3.org/2000/svg" xml:space="preserve" id="_x32_" width="800" height="800" version="1.1" viewBox="0 0 512 512"><style>.st0{fill:#000}</style><path d="M305.844 132.859c-3.219-16.797-17.906-28.922-34.984-28.922h-87.297c-17.625 0-32.594 12.891-35.219 30.328l-10.516 70.172h181.703zM450.313 246.063c-4.625-8.406-10.813-15.313-18.141-20.188-3.672-2.438-7.609-4.344-11.75-5.656-4.141-1.281-8.484-1.984-12.891-1.984h-336c-4.828 0-9.547.828-14.016 2.359-6.719 2.313-12.844 6.219-18.078 11.313C34.188 237 29.813 243.313 26.5 250.5l-.188.422L0 327.688l17.406 5.969 9.078-26.531h16.578a41 41 0 0 0-5.906 6.906 40.36 40.36 0 0 0-6.906 22.594c0 5.516 1.125 10.656 3.188 15.141 1.516 3.359 3.5 6.391 5.766 9.078 3.391 4.063 7.328 7.438 11.453 10.563 4.141 3.156 8.484 6.063 12.781 9.063l.125.094 25.781 16.609a68.3 68.3 0 0 0 36.984 10.891h227.063a68.3 68.3 0 0 0 36.969-10.875l25.797-16.625.125-.094c3.813-2.656 7.688-5.266 11.391-8 2.781-2.063 5.484-4.219 8.031-6.594a49 49 0 0 0 5.375-5.719c2.484-3.094 4.609-6.594 6.109-10.547 1.484-3.953 2.281-8.328 2.281-12.984 0-5.563-1.125-10.906-3.188-15.719-2.219-5.281-5.531-9.938-9.625-13.781h25.516l16.453 30.719 16.219-8.688-44.5-83.047zm-18.844 99c-.828 1.844-1.938 3.594-3.438 5.359-2.203 2.656-5.203 5.297-8.813 8.047-3.563 2.719-7.719 5.516-12.109 8.578L381.563 383.5a51.84 51.84 0 0 1-28.172 8.297H126.328a51.84 51.84 0 0 1-28.172-8.297l-25.531-16.453c-3.906-2.734-7.625-5.234-10.875-7.641-2.5-1.844-4.75-3.656-6.656-5.438-1.438-1.344-2.703-2.656-3.781-4-1.594-1.984-2.75-3.938-3.531-6.063-.813-2.125-1.25-4.438-1.266-7.281 0-3.344.672-6.5 1.891-9.391 1.844-4.328 4.906-8.047 8.781-10.641 3.875-2.609 8.469-4.125 13.484-4.125h338.391c3.344 0 6.5.656 9.375 1.906 4.313 1.813 8.031 4.906 10.641 8.75a23.97 23.97 0 0 1 4.125 13.5c-.016 3.377-.641 5.986-1.735 8.44M321.641 168.5l120.39-10.406.625 7.203L512 159.313l-3.437-39.782-69.344 6 .625 7.188-120.391 10.406zM132.156 171.531l-60.812.375v31.125H126.5z" class="st0"/><path d="M134.766 324.375c-15.766 0-28.563 12.781-28.563 28.563S119 381.5 134.766 381.5s28.563-12.781 28.563-28.563-12.798-28.562-28.563-28.562M204.594 324.375c-15.781 0-28.563 12.781-28.563 28.563s12.781 28.563 28.563 28.563c15.766 0 28.563-12.781 28.563-28.563s-12.798-28.563-28.563-28.563M274.406 324.375c-15.766 0-28.563 12.781-28.563 28.563s12.797 28.563 28.563 28.563c15.781 0 28.563-12.781 28.563-28.563s-12.781-28.563-28.563-28.563M344.234 324.375c-15.766 0-28.563 12.781-28.563 28.563s12.797 28.563 28.563 28.563 28.563-12.781 28.563-28.563-12.797-28.563-28.563-28.563M70.672 321.313c-8.453 0-15.328 6.844-15.328 15.313 0 8.453 6.875 15.313 15.328 15.313s15.313-6.859 15.313-15.313c-.001-8.47-6.86-15.313-15.313-15.313M411.031 321.313c-8.453 0-15.313 6.844-15.313 15.313 0 8.453 6.859 15.313 15.313 15.313 8.469 0 15.313-6.859 15.313-15.313 0-8.47-6.844-15.313-15.313-15.313" class="st0"/></svg>