<svg xmlns="http://www.w3.org/2000/svg" width="800" height="800" viewBox="0 0 64 64"><path d="M51.338 11.818a1 1 0 0 0 1.414 0l.767-.767.767.767a1 1 0 1 0 1.414-1.414l-.767-.767.767-.767a1 1 0 1 0-1.414-1.414l-.767.767-.767-.767a1 1 0 1 0-1.414 1.414l.767.767-.767.767a1 1 0 0 0 0 1.414"/><circle cx="5" cy="56" r="1"/><path d="M54.499 32.146C59.336 29.6 62 26.299 62 22.822c0-5.786-6.952-7.554-15.753-9.791A1 1 0 0 0 46 13v-1.48A7.53 7.53 0 0 0 38.48 4H23.52A7.53 7.53 0 0 0 16 11.52V13a1 1 0 0 0-.247.03C6.953 15.269 0 17.037 0 22.823 0 26.3 2.664 29.6 7.5 32.145a24 24 0 1 0 46.999 0M18 11.52A5.526 5.526 0 0 1 23.52 6h14.96A5.526 5.526 0 0 1 44 11.52V13H18ZM2 22.822C2 18.814 7.364 17.23 16.125 15h29.75C54.636 17.229 60 18.814 60 22.822c0 2.601-2.14 5.174-6.006 7.311A23.9 23.9 0 0 0 47.923 20H50a1 1 0 0 0 0-2H12a1 1 0 0 0 0 2h2.076a23.9 23.9 0 0 0-6.07 10.132C4.138 27.996 2 25.424 2 22.822M31 59a21.995 21.995 0 0 1-13.955-39h27.921c.01.009.014.02.024.029A21.995 21.995 0 0 1 31 59"/><circle cx="24" cy="29" r="2"/><circle cx="38" cy="29" r="2"/><path d="M37.817 38.11C36.327 37.025 34.918 36 33.11 36a3.9 3.9 0 0 0-2.358.787A3.9 3.9 0 0 0 28.395 36c-1.809 0-3.217 1.025-4.708 2.11-2.396 1.742-4.87 3.546-9.636 1.504a1.07 1.07 0 0 0-1.347.294 1.05 1.05 0 0 0 .082 1.332c.792.946 6.371 4.76 12.01 4.76.247 0 .493-.022.74-.037A3.99 3.99 0 0 0 29.02 48h3.957a4.03 4.03 0 0 0 3.482-2.019c5.721.114 11.454-3.782 12.258-4.74a1.05 1.05 0 0 0 .081-1.333 1.07 1.07 0 0 0-1.346-.293c-4.763 2.04-7.24.238-9.636-1.505M29.022 46a2 2 0 0 1-1.215-.425 9.4 9.4 0 0 0 1.623-.612 6 6 0 0 0 1.322-.873 6 6 0 0 0 1.321.873 9.5 9.5 0 0 0 1.994.706 2 2 0 0 1-1.089.331Zm3.945-2.826a3.27 3.27 0 0 1-1.369-1.14 1.038 1.038 0 0 0-1.693 0 3.27 3.27 0 0 1-1.369 1.14c-3.214 1.605-7.074.617-9.967-.681a11.85 11.85 0 0 0 6.293-2.766C26.136 38.8 27.236 38 28.394 38a1.93 1.93 0 0 1 1.556.792 1.036 1.036 0 0 0 1.604 0A1.93 1.93 0 0 1 33.109 38c1.158 0 2.258.8 3.532 1.728a11.85 11.85 0 0 0 6.293 2.765c-2.892 1.298-6.753 2.287-9.967.68m15.275-1.721h-.002l-.394-.919ZM18.553 27.895a1 1 0 0 0 1.342-.448c1.627-3.255 5.738-2.499 5.912-2.466a1 1 0 0 0 .39-1.961c-1.99-.398-6.239-.17-8.091 3.533a1 1 0 0 0 .447 1.342M32 49h-2a1 1 0 0 0 0 2h2a1 1 0 0 0 0-2M56 51a3 3 0 1 0 3 3 3.003 3.003 0 0 0-3-3m0 4a1 1 0 1 1 1-1 1 1 0 0 1-1 1"/></svg>