<svg xmlns="http://www.w3.org/2000/svg" width="125" height="118" fill="none"><path fill="#A3A2A2" d="M0 0h125v118H0z"/><path fill="#000" d="m39.335 49.497-.528 9.932-3.838.351-2.05-5.317-.323 5.42H29.3l.264-10.386 3.662-.176 2.534 5.274.117-4.98zm9.55 5.332q0 .666-.154 1.29-.153.615-.446 1.156-.285.543-.703.997a4.572 4.572 0 0 1-2.05 1.274 4.6 4.6 0 0 1-1.29.176q-.66 0-1.26-.169a5 5 0 0 1-1.113-.468 4.8 4.8 0 0 1-.945-.733 5 5 0 0 1-.718-.952 5.2 5.2 0 0 1-.461-1.128 5.058 5.058 0 0 1-.007-2.498q.153-.615.439-1.157.293-.541.703-.996t.915-.784q.513-.33 1.106-.512a4.2 4.2 0 0 1 1.253-.183q1.062 0 1.933.33a4.13 4.13 0 0 1 2.454 2.423q.345.865.344 1.934m-3.252.19q0-.315-.095-.607a1.6 1.6 0 0 0-.264-.528 1.3 1.3 0 0 0-.439-.373 1.2 1.2 0 0 0-.593-.147q-.345 0-.615.125a1.42 1.42 0 0 0-.762.85q-.103.285-.103.607 0 .307.088.616.088.307.264.556.175.249.432.403.264.153.608.154.344 0 .615-.132a1.45 1.45 0 0 0 .469-.366q.19-.235.293-.535t.102-.623m10.65-5.331-.806 9.975-3.09.161v-9.931zm11.836-.367-.674 10.752-3.34.147.03-5.67-1.51 4.571h-1.289l-1.157-4.087-.014 4.746-3.384.103.146-10.122 3.765-.147 1.494 4.849 1.992-5.142zm9.646 10.05-3.633.468-.44-1.655h-1.67l-.366 1.655-3.735-.366 2.915-9.756 4.072-.205zm-4.336-3.429-.557-2.548-.542 2.548zm13.154 2.564q-.345.432-.85.754a5.6 5.6 0 0 1-1.084.535 6.6 6.6 0 0 1-1.186.315q-.608.11-1.157.11-1.062 0-1.956-.381a4.7 4.7 0 0 1-1.545-1.047 4.9 4.9 0 0 1-1.011-1.583 5.2 5.2 0 0 1-.366-1.955q0-.798.183-1.56.183-.77.52-1.443.345-.682.835-1.245.49-.571 1.113-.982a5.28 5.28 0 0 1 2.944-.864q.315 0 .674.03.36.021.71.087.36.06.697.169t.615.27l-.205 2.799a3.6 3.6 0 0 0-.85-.205 6 6 0 0 0-.85-.059q-.585 0-1.098.183a2.6 2.6 0 0 0-.886.513 2.5 2.5 0 0 0-.594.82q-.22.483-.22 1.091 0 .38.103.74.103.352.308.63.212.27.52.44.314.168.725.168.278 0 .571-.073.3-.074.513-.25l.03-.57-1.759-.03.088-2.197q1.091-.037 2.183-.059 1.091-.03 2.197-.073zm7.5-9.068q-.044.69-.08 1.363-.038.673-.096 1.362l-3.105.161-.074.923h2.183l-.161 2.27-2.197.074-.073 1.07h3.105q-.045.804-.095 1.603-.044.79-.08 1.59L87.095 60l.234-10.562z"/></svg>